<svg id="Layer_1" data-name="Layer 1" xmlns="http://www.w3.org/2000/svg" viewBox="0 0 957.91 499.75"><defs><style>.cls-1{fill:#231f20;}.cls-2{fill:#ffdb00;}.cls-3{fill:#85e8da;}.cls-4{fill:#ececec;}.cls-5{fill:#e51b24;}</style></defs><title>Slide-17-DOM-Tree-Annotated</title><polygon class="cls-1" points="76.55 271.33 75.55 271.33 75.55 250.83 170.86 250.83 170.86 150.82 382.02 150.82 382.02 43.56 383.02 43.56 383.02 151.82 171.86 151.82 171.86 251.83 76.55 251.83 76.55 271.33"/><rect class="cls-2" x="306.47" width="152.1" height="47.9" rx="4" ry="4"/><path d="M319,33.56V14.28h6.91c5.49,0,9.52,3.56,9.52,9.65s-4.05,9.63-9.54,9.63H319Zm6.74-3.48c3.15,0,5.79-2,5.79-6.15s-2.61-6.17-5.76-6.17h-3V30.08h3Z"/><path d="M351.52,26.87a7,7,0,1,1-14,0A7,7,0,1,1,351.52,26.87Zm-3.62,0c0-2.53-1.63-3.81-3.4-3.81s-3.4,1.28-3.4,3.81,1.63,3.81,3.4,3.81S347.9,29.4,347.9,26.87Z"/><path d="M357,26.87a3.44,3.44,0,0,0,3.43,3.78,3.06,3.06,0,0,0,3.07-2.26l3.18,1.06A6.21,6.21,0,0,1,360.41,34a6.92,6.92,0,0,1-7-7.1,6.85,6.85,0,0,1,6.93-7.1,6.12,6.12,0,0,1,6.28,4.51l-3.24,1.09a2.92,2.92,0,0,0-3-2.26C358.53,23.12,357,24.45,357,26.87Z"/><path d="M377.75,32.12a4.23,4.23,0,0,1-3.7,1.79A4.93,4.93,0,0,1,369,28.64V20.18h3.62v7.72A2.38,2.38,0,0,0,375,30.6,2.41,2.41,0,0,0,377.56,28V20.18h3.62v11a21.91,21.91,0,0,0,.14,2.42h-3.45A9.18,9.18,0,0,1,377.75,32.12Z"/><path d="M385,33.56V20.18h3.45v1.63a4.6,4.6,0,0,1,3.92-2,4.14,4.14,0,0,1,4,2.23,4.65,4.65,0,0,1,4.24-2.23c2.47,0,4.84,1.5,4.84,5.08v8.67h-3.51V25.62a2.23,2.23,0,0,0-2.37-2.53,2.46,2.46,0,0,0-2.47,2.64v7.83h-3.59V25.62a2.24,2.24,0,0,0-2.37-2.53,2.45,2.45,0,0,0-2.5,2.64v7.83H385Z"/><path d="M421.11,29.73A6,6,0,0,1,415,34a6.78,6.78,0,0,1-6.91-7.15,6.72,6.72,0,0,1,6.58-7c4.13,0,6.61,2.64,6.61,6.93,0,0.52-.05,1.06-0.05,1.11h-9.57a3.26,3.26,0,0,0,3.37,3,3,3,0,0,0,3-2Zm-3.37-4.38a2.69,2.69,0,0,0-3-2.64,2.89,2.89,0,0,0-3,2.64h6Z"/><path d="M427.77,33.56h-3.62V20.18h3.51v1.66a4.44,4.44,0,0,1,3.86-2c3.32,0,4.84,2.37,4.84,5.3v8.43h-3.62v-7.8a2.35,2.35,0,0,0-2.47-2.67,2.52,2.52,0,0,0-2.5,2.77v7.7Z"/><path d="M444.48,20.18h2.69v3.21h-2.69V29a1.34,1.34,0,0,0,1.58,1.55,5.26,5.26,0,0,0,1.12-.11v3a5.37,5.37,0,0,1-2,.33,3.87,3.87,0,0,1-4.24-4.13V23.39h-2.42V20.18h0.68a1.93,1.93,0,0,0,2.07-2.12V16.19h3.26v4Z"/><rect class="cls-3" x="306.47" y="75.66" width="152.1" height="47.9" rx="4" ry="4"/><path d="M357.73,109.22v-8h-8.4v8h-3.75V89.95h3.75v7.75h8.4V89.95h3.78v19.28h-3.78Z"/><path d="M374,93.51v15.72h-3.78V93.51h-6.09V89.95h16v3.56H374Z"/><path d="M400.55,109.22V95.71L395,109.22h-3.13l-5.55-13.41v13.41h-3.59V89.95h4.95l5.79,13.92,5.66-13.92h5.11v19.28h-3.7Z"/><path d="M408.64,109.22V89.95h3.75v15.69H421v3.59H408.64Z"/><rect class="cls-4" x="95.31" y="176.5" width="152.1" height="47.9" rx="4" ry="4"/><path d="M152.44,210.06v-8H144v8h-3.75V190.79H144v7.75h8.4v-7.75h3.78v19.28h-3.78Z"/><path d="M172.26,206.23a6,6,0,0,1-6.09,4.24,7.11,7.11,0,0,1-.33-14.19c4.13,0,6.61,2.64,6.61,6.93,0,0.52-.05,1.06-0.05,1.11h-9.57a3.26,3.26,0,0,0,3.37,3,3,3,0,0,0,3-2Zm-3.37-4.38a2.69,2.69,0,0,0-3-2.64,2.89,2.89,0,0,0-3,2.64h6Z"/><path d="M178.48,202.37l3.29-.49a1,1,0,0,0,1-1c0-1-.73-1.74-2.26-1.74a2.37,2.37,0,0,0-2.56,2.18l-3.21-.68c0.22-2.09,2.15-4.41,5.74-4.41,4.24,0,5.82,2.39,5.82,5.08v6.58a15,15,0,0,0,.16,2.12h-3.32a9,9,0,0,1-.14-1.6,4.47,4.47,0,0,1-3.94,2c-2.85,0-4.6-1.93-4.6-4C174.48,204,176.25,202.7,178.48,202.37Zm4.3,2.28v-0.6l-3,.46a1.69,1.69,0,0,0-1.66,1.69,1.57,1.57,0,0,0,1.74,1.55C181.36,207.75,182.78,207,182.78,204.65Z"/><path d="M202.65,207.64c0,0.9.05,1.88,0.11,2.42H199.3a9.2,9.2,0,0,1-.14-1.55,4.19,4.19,0,0,1-3.75,1.88c-3.81,0-6.53-3-6.53-7s2.64-7,6.42-7c2.31,0,3.4,1,3.78,1.66v-7.64h3.56v17.27Zm-6.8-.49c1.85,0,3.29-1.41,3.29-3.83s-1.44-3.73-3.29-3.73-3.32,1.36-3.32,3.75S193.95,207.15,195.85,207.15Z"/><rect class="cls-4" y="268.02" width="152.1" height="47.9" rx="4" ry="4"/><path d="M58.28,285.87v15.72H54.5V285.87H48.41v-3.56h16v3.56H58.28Z"/><path d="M68.3,281.57a2.23,2.23,0,1,1-2.23,2.26A2.23,2.23,0,0,1,68.3,281.57Zm-1.79,20V288.21h3.62v13.38H66.51Z"/><path d="M78.45,288.21h2.69v3.21H78.45V297A1.34,1.34,0,0,0,80,298.57a5.23,5.23,0,0,0,1.12-.11v3a5.37,5.37,0,0,1-2,.33,3.87,3.87,0,0,1-4.24-4.13v-6.23H72.44v-3.21h0.68a1.93,1.93,0,0,0,2.07-2.12v-1.88h3.26v4Z"/><path d="M83.55,301.58V281.9h3.62v19.69H83.55Z"/><path d="M103,297.75A6,6,0,0,1,96.93,302a7.11,7.11,0,0,1-.33-14.19c4.13,0,6.61,2.64,6.61,6.93,0,0.52-.05,1.06-0.05,1.11H93.59a3.26,3.26,0,0,0,3.37,3,3,3,0,0,0,3-2Zm-3.37-4.38a2.69,2.69,0,0,0-3-2.64,2.9,2.9,0,0,0-3,2.64h6Z"/><rect class="cls-4" x="468.28" y="364.1" width="152.1" height="47.9" rx="4" ry="4"/><path d="M534.81,397.67V378.39h3.75v15.69h8.59v3.59H534.81Z"/><path d="M550,397.67V378.39h3.81v19.28H550Z"/><polygon class="cls-1" points="267.16 271.33 266.16 271.33 266.16 251.83 171.36 251.83 171.36 250.83 267.16 250.83 267.16 271.33"/><rect class="cls-4" x="190.61" y="268.02" width="152.1" height="47.9" rx="4" ry="4"/><path d="M253.77,301.58V288.07l-5.55,13.51h-3.13l-5.55-13.41v13.41H236V282.31h4.95l5.79,13.92,5.66-13.92h5.11v19.28h-3.7Z"/><path d="M273.5,297.75a6,6,0,0,1-6.09,4.24,7.11,7.11,0,0,1-.33-14.19c4.13,0,6.61,2.64,6.61,6.93,0,0.52-.05,1.06-0.05,1.11h-9.57a3.26,3.26,0,0,0,3.37,3,3,3,0,0,0,3-2Zm-3.37-4.38a2.69,2.69,0,0,0-3-2.64,2.89,2.89,0,0,0-3,2.64h6Z"/><path d="M281,288.21h2.69v3.21H281V297a1.34,1.34,0,0,0,1.58,1.55,5.23,5.23,0,0,0,1.12-.11v3a5.37,5.37,0,0,1-2,.33,3.87,3.87,0,0,1-4.24-4.13v-6.23H275v-3.21h0.68a1.93,1.93,0,0,0,2.07-2.12v-1.88H281v4Z"/><path d="M290,293.89l3.29-.49a1,1,0,0,0,1-1c0-1-.73-1.74-2.26-1.74a2.37,2.37,0,0,0-2.56,2.18l-3.21-.68c0.22-2.09,2.15-4.41,5.74-4.41,4.24,0,5.82,2.39,5.82,5.08v6.58a15,15,0,0,0,.16,2.12H294.7a9,9,0,0,1-.14-1.6,4.47,4.47,0,0,1-3.94,2c-2.85,0-4.6-1.93-4.6-4C286,295.55,287.8,294.21,290,293.89Zm4.3,2.28v-0.6l-3,.46a1.69,1.69,0,0,0-1.66,1.69,1.57,1.57,0,0,0,1.74,1.55C292.91,299.27,294.32,298.54,294.32,296.17Z"/><polygon class="cls-1" points="503.56 271.33 502.56 271.33 502.56 250.83 607.58 250.83 607.58 151.82 382.52 151.82 382.52 150.82 608.58 150.82 608.58 251.83 503.56 251.83 503.56 271.33"/><rect class="cls-4" x="532.03" y="176.5" width="152.1" height="47.9" rx="4" ry="4"/><path d="M585,190.79c3.75,0,5.87,2.2,5.87,5.19a4.28,4.28,0,0,1-2.8,4.13,4.55,4.55,0,0,1,3.4,4.57c0,3.13-2.34,5.38-6,5.38H578V190.79H585Zm-0.57,8c1.71,0,2.75-1,2.75-2.42s-1-2.39-2.77-2.39h-2.64v4.81h2.67Zm0.38,8.18c1.82,0,2.91-1,2.91-2.5s-1-2.58-2.86-2.58h-3.1v5.08h3Z"/><path d="M607.51,203.37a7,7,0,1,1-7-7.1A6.87,6.87,0,0,1,607.51,203.37Zm-3.62,0c0-2.53-1.63-3.81-3.4-3.81s-3.4,1.28-3.4,3.81,1.63,3.81,3.4,3.81S603.9,205.9,603.9,203.37Z"/><path d="M623.12,207.64c0,0.9.05,1.88,0.11,2.42h-3.45a9.21,9.21,0,0,1-.14-1.55,4.19,4.19,0,0,1-3.75,1.88c-3.81,0-6.53-3-6.53-7s2.64-7,6.42-7c2.31,0,3.4,1,3.78,1.66v-7.64h3.56v17.27Zm-6.8-.49c1.85,0,3.29-1.41,3.29-3.83s-1.44-3.73-3.29-3.73S613,201,613,203.35,614.41,207.15,616.32,207.15Z"/><path d="M627.81,215.34l3.15-7-5.68-11.69h4.05l3.56,7.83,3.29-7.83h3.86l-8.4,18.65h-3.83Z"/><polygon class="cls-1" points="544.83 364.11 543.83 364.11 543.83 340.83 712.11 340.83 712.11 251.83 608.08 251.83 608.08 250.83 713.11 250.83 713.11 341.83 544.83 341.83 544.83 364.11"/><rect class="cls-4" x="427.01" y="268.02" width="152.1" height="47.9" rx="4" ry="4"/><path d="M501.87,301.58v-8h-8.4v8h-3.75V282.31h3.75v7.75h8.4v-7.75h3.78v19.28h-3.78Z"/><path d="M512.93,301.58v-11.8h-4.24v-2.53c2.58,0,4.38-1.47,4.73-3.32h3.24v17.65h-3.72Z"/><rect class="cls-4" x="637.04" y="268.02" width="152.1" height="47.9" rx="4" ry="4"/><path d="M698.07,294.76V282.31h3.75v12.18c0,2.53,1.41,3.86,3.64,3.86s3.67-1.33,3.67-3.86V282.31h3.75v12.45c0,4.73-3.29,7.26-7.42,7.26S698.07,299.49,698.07,294.76Z"/><path d="M717.1,301.58V282.31h3.75V298h8.59v3.59H717.1Z"/><polygon class="cls-1" points="882.36 369.33 881.36 369.33 881.36 341.83 712.61 341.83 712.61 340.83 882.36 340.83 882.36 369.33"/><rect class="cls-1" x="712.11" y="341.33" width="1" height="28"/><rect class="cls-4" x="636.56" y="364.1" width="152.1" height="47.9" rx="4" ry="4"/><path d="M703.09,397.67V378.39h3.75v15.69h8.59v3.59H703.09Z"/><path d="M718.32,397.67V378.39h3.81v19.28h-3.81Z"/><rect class="cls-4" x="805.81" y="364.1" width="152.1" height="47.9" rx="4" ry="4"/><path d="M872.35,397.67V378.39h3.75v15.69h8.59v3.59H872.35Z"/><path d="M887.57,397.67V378.39h3.81v19.28h-3.81Z"/><path class="cls-5" d="M166.39,33.56L155.66,17.38V33.56h-2.74V13.71h3.67l9.91,15.23V13.71h2.74V33.56h-2.86Z"/><path class="cls-5" d="M186.66,26.81a6.89,6.89,0,1,1-13.78,0A6.89,6.89,0,1,1,186.66,26.81Zm-2.69,0c0-3.11-2-4.79-4.2-4.79s-4.2,1.68-4.2,4.79,2,4.82,4.2,4.82S184,29.95,184,26.81Z"/><path class="cls-5" d="M199.45,31.52a4.51,4.51,0,0,1-4.17,2.41c-3.95,0-6.38-3.14-6.38-7.14,0-3.81,2.58-7.06,6.38-7.06,2.38,0,3.67,1.18,4.12,2.27V13.29H202V31.07a21.39,21.39,0,0,0,.14,2.49h-2.55a11.26,11.26,0,0,1-.14-1.82V31.52Zm-3.92.08c2.41,0,3.89-2.1,3.89-4.87s-1.46-4.68-3.86-4.68-4,2-4,4.73S193,31.6,195.53,31.6Z"/><path class="cls-5" d="M218.22,29.73a6.11,6.11,0,0,1-6,4.26c-3.61,0-6.78-2.63-6.78-7.2,0-4.23,3.05-7.11,6.44-7.11,4.14,0,6.47,2.86,6.47,7.06a5.93,5.93,0,0,1-.06.84H208.11a4,4,0,0,0,4.06,4.09,3.67,3.67,0,0,0,3.78-2.72Zm-2.66-4.28a3.39,3.39,0,0,0-3.7-3.44,3.62,3.62,0,0,0-3.67,3.44h7.36Z"/><rect class="cls-5" x="224.91" y="25.67" width="61.49" height="2"/><polygon class="cls-5" points="284.94 31.65 293.58 26.67 284.94 21.68 284.94 31.65"/><path class="cls-5" d="M166.39,106.5L155.66,90.32V106.5h-2.74V86.65h3.67l9.91,15.23V86.65h2.74V106.5h-2.86Z"/><path class="cls-5" d="M186.66,99.76a6.89,6.89,0,1,1-6.89-7.14A6.8,6.8,0,0,1,186.66,99.76Zm-2.69,0c0-3.11-2-4.79-4.2-4.79s-4.2,1.68-4.2,4.79,2,4.82,4.2,4.82S184,102.89,184,99.76Z"/><path class="cls-5" d="M199.45,104.46a4.51,4.51,0,0,1-4.17,2.41c-3.95,0-6.38-3.14-6.38-7.14,0-3.81,2.58-7.06,6.38-7.06,2.38,0,3.67,1.18,4.12,2.27V86.23H202V104a21.39,21.39,0,0,0,.14,2.49h-2.55a11.26,11.26,0,0,1-.14-1.82v-0.22Zm-3.92.08c2.41,0,3.89-2.1,3.89-4.87S198,95,195.56,95s-4,2-4,4.73S193,104.54,195.53,104.54Z"/><path class="cls-5" d="M218.22,102.67a6.11,6.11,0,0,1-6,4.26c-3.61,0-6.78-2.63-6.78-7.2,0-4.23,3.05-7.11,6.44-7.11,4.14,0,6.47,2.86,6.47,7.06a5.93,5.93,0,0,1-.06.84H208.11a4,4,0,0,0,4.06,4.09,3.67,3.67,0,0,0,3.78-2.72Zm-2.66-4.28a3.39,3.39,0,0,0-3.7-3.44,3.62,3.62,0,0,0-3.67,3.44h7.36Z"/><path class="cls-5" d="M152.83,397.67l-10.72-16.18v16.18h-2.74V377.81H143L152.95,393V377.81h2.74v19.85h-2.86Z"/><path class="cls-5" d="M173.11,390.92a6.89,6.89,0,1,1-6.89-7.14A6.8,6.8,0,0,1,173.11,390.92Zm-2.69,0c0-3.11-2-4.79-4.2-4.79s-4.2,1.68-4.2,4.79,2,4.82,4.2,4.82S170.42,394.05,170.42,390.92Z"/><path class="cls-5" d="M185.9,395.62a4.51,4.51,0,0,1-4.17,2.41c-3.95,0-6.38-3.14-6.38-7.14,0-3.81,2.58-7.06,6.38-7.06,2.38,0,3.67,1.18,4.12,2.27v-8.71h2.6v17.78a21.4,21.4,0,0,0,.14,2.49H186a11.26,11.26,0,0,1-.14-1.82v-0.22Zm-3.92.08c2.41,0,3.89-2.1,3.89-4.87s-1.46-4.68-3.86-4.68-4,2-4,4.73S179.46,395.71,182,395.71Z"/><path class="cls-5" d="M204.66,393.83a6.11,6.11,0,0,1-6,4.26c-3.61,0-6.78-2.63-6.78-7.2,0-4.23,3.05-7.11,6.44-7.11,4.14,0,6.47,2.86,6.47,7.06a5.93,5.93,0,0,1-.06.84H194.55a4,4,0,0,0,4.06,4.09,3.67,3.67,0,0,0,3.78-2.72ZM202,389.55a3.39,3.39,0,0,0-3.7-3.44,3.62,3.62,0,0,0-3.67,3.44H202Z"/><path class="cls-5" d="M345.5,209.06l-10.72-16.18v16.18H332V189.21h3.67l9.91,15.23V189.21h2.74v19.85H345.5Z"/><path class="cls-5" d="M365.77,202.32a6.89,6.89,0,1,1-6.89-7.14A6.8,6.8,0,0,1,365.77,202.32Zm-2.69,0c0-3.11-2-4.79-4.2-4.79s-4.2,1.68-4.2,4.79,2,4.82,4.2,4.82S363.08,205.45,363.08,202.32Z"/><path class="cls-5" d="M378.57,207a4.51,4.51,0,0,1-4.17,2.41c-3.95,0-6.38-3.14-6.38-7.14,0-3.81,2.58-7.06,6.38-7.06,2.38,0,3.67,1.18,4.12,2.27v-8.71h2.6v17.78a21.39,21.39,0,0,0,.14,2.49h-2.55a11.26,11.26,0,0,1-.14-1.82V207Zm-3.92.08c2.41,0,3.89-2.1,3.89-4.87s-1.46-4.68-3.86-4.68-4,2-4,4.73S372.13,207.1,374.65,207.1Z"/><path class="cls-5" d="M397.33,205.23a6.11,6.11,0,0,1-6,4.26c-3.61,0-6.78-2.63-6.78-7.2,0-4.23,3.05-7.11,6.44-7.11,4.14,0,6.47,2.86,6.47,7.06a5.93,5.93,0,0,1-.06.84H387.22a4,4,0,0,0,4.06,4.09,3.67,3.67,0,0,0,3.78-2.72Zm-2.66-4.28a3.39,3.39,0,0,0-3.7-3.44,3.62,3.62,0,0,0-3.67,3.44h7.36Z"/><rect class="cls-5" x="224.91" y="98.61" width="61.49" height="2"/><polygon class="cls-5" points="284.94 104.6 293.58 99.61 284.94 94.62 284.94 104.6"/><rect class="cls-5" x="260.75" y="199.45" width="61.49" height="2"/><polygon class="cls-5" points="262.21 205.44 253.58 200.45 262.21 195.46 262.21 205.44"/><path class="cls-5" d="M790.83,209.06l-10.72-16.18v16.18h-2.74V189.21H781l9.91,15.23V189.21h2.74v19.85h-2.86Z"/><path class="cls-5" d="M811.11,202.32a6.89,6.89,0,1,1-6.89-7.14A6.8,6.8,0,0,1,811.11,202.32Zm-2.69,0c0-3.11-2-4.79-4.2-4.79s-4.2,1.68-4.2,4.79,2,4.82,4.2,4.82S808.42,205.45,808.42,202.32Z"/><path class="cls-5" d="M823.9,207a4.51,4.51,0,0,1-4.17,2.41c-3.95,0-6.38-3.14-6.38-7.14,0-3.81,2.58-7.06,6.38-7.06,2.38,0,3.67,1.18,4.12,2.27v-8.71h2.6v17.78a21.27,21.27,0,0,0,.14,2.49H824a11.18,11.18,0,0,1-.14-1.82V207Zm-3.92.08c2.41,0,3.89-2.1,3.89-4.87s-1.46-4.68-3.86-4.68-4,2-4,4.73S817.46,207.1,820,207.1Z"/><path class="cls-5" d="M842.66,205.23a6.11,6.11,0,0,1-6,4.26c-3.61,0-6.78-2.63-6.78-7.2,0-4.23,3.05-7.11,6.44-7.11,4.14,0,6.47,2.86,6.47,7.06a5.85,5.85,0,0,1-.06.84H832.55a4,4,0,0,0,4.06,4.09,3.67,3.67,0,0,0,3.78-2.72ZM840,200.94a3.39,3.39,0,0,0-3.7-3.44,3.62,3.62,0,0,0-3.67,3.44H840Z"/><rect class="cls-5" x="706.09" y="199.45" width="61.49" height="2"/><polygon class="cls-5" points="707.54 205.44 698.91 200.45 707.54 195.46 707.54 205.44"/><path class="cls-5" d="M890.07,300.58L879.34,284.4v16.18H876.6V280.73h3.67L890.18,296V280.73h2.74v19.85h-2.86Z"/><path class="cls-5" d="M910.34,293.84a6.89,6.89,0,1,1-6.89-7.14A6.8,6.8,0,0,1,910.34,293.84Zm-2.69,0c0-3.11-2-4.79-4.2-4.79s-4.2,1.68-4.2,4.79,2,4.82,4.2,4.82S907.65,297,907.65,293.84Z"/><path class="cls-5" d="M923.13,298.54a4.51,4.51,0,0,1-4.17,2.41c-3.95,0-6.38-3.14-6.38-7.14,0-3.81,2.58-7.06,6.38-7.06,2.38,0,3.67,1.18,4.12,2.27v-8.71h2.6v17.78a21.52,21.52,0,0,0,.14,2.49h-2.55a11.34,11.34,0,0,1-.14-1.82v-0.22Zm-3.92.08c2.41,0,3.89-2.1,3.89-4.87s-1.46-4.68-3.86-4.68-4,2-4,4.73S916.69,298.62,919.21,298.62Z"/><path class="cls-5" d="M941.89,296.75a6.1,6.1,0,0,1-6,4.26c-3.61,0-6.78-2.63-6.78-7.2,0-4.23,3.05-7.11,6.44-7.11,4.14,0,6.47,2.86,6.47,7.06a6,6,0,0,1-.06.84H931.79a4,4,0,0,0,4.06,4.09,3.67,3.67,0,0,0,3.78-2.72Zm-2.66-4.28a3.39,3.39,0,0,0-3.7-3.44,3.62,3.62,0,0,0-3.67,3.44h7.36Z"/><rect class="cls-5" x="805.32" y="290.97" width="61.49" height="2"/><polygon class="cls-5" points="806.78 296.96 798.14 291.97 806.78 286.98 806.78 296.96"/><polygon class="cls-5" points="267.66 360.67 75.05 360.67 75.05 328.18 77.05 328.18 77.05 358.67 265.66 358.67 265.66 328.18 267.66 328.18 267.66 360.67"/><polygon class="cls-5" points="71.06 329.63 76.05 321 81.04 329.63 71.06 329.63"/><polygon class="cls-5" points="271.65 329.63 266.66 321 261.68 329.63 271.65 329.63"/><rect class="cls-5" x="170.36" y="359.67" width="2" height="15.67"/><path class="cls-5" d="M694.24,499.41l-10.81-16.12,0.09,16.18h-2.74l-0.11-19.85,3.67,0,10,15.18-0.08-15.23,2.74,0,0.11,19.85Z"/><path class="cls-5" d="M714.47,492.55a6.89,6.89,0,1,1-6.93-7.1A6.8,6.8,0,0,1,714.47,492.55Zm-2.69,0c0-3.11-2-4.78-4.23-4.76s-4.19,1.7-4.17,4.81,2,4.81,4.23,4.79S711.8,495.7,711.78,492.56Z"/><path class="cls-5" d="M727.29,497.18a4.51,4.51,0,0,1-4.16,2.43c-3.95,0-6.4-3.1-6.42-7.1,0-3.81,2.54-7.07,6.34-7.09,2.38,0,3.67,1.16,4.13,2.25l0-8.71h2.6l0.1,17.78a21.55,21.55,0,0,0,.15,2.49h-2.55a11.32,11.32,0,0,1-.15-1.82v-0.22Zm-3.92.11c2.41,0,3.88-2.12,3.86-4.89s-1.48-4.67-3.89-4.65-4,2-4,4.75S720.85,497.3,723.37,497.29Z"/><path class="cls-5" d="M746,495.28a6.11,6.11,0,0,1-6,4.29c-3.61,0-6.79-2.59-6.82-7.16,0-4.23,3-7.13,6.4-7.15,4.14,0,6.48,2.82,6.51,7a6,6,0,0,1-.05.84l-10.14.06a4,4,0,0,0,4.08,4.07,3.67,3.67,0,0,0,3.76-2.74ZM743.36,491a3.39,3.39,0,0,0-3.72-3.42,3.62,3.62,0,0,0-3.65,3.46Z"/><path class="cls-5" d="M367.33,349.41l-10.81-16.12,0.09,16.18h-2.74l-0.11-19.85,3.67,0,10,15.18-0.08-15.23,2.74,0,0.11,19.85Z"/><path class="cls-5" d="M387.57,342.55a6.89,6.89,0,1,1-6.93-7.1A6.8,6.8,0,0,1,387.57,342.55Zm-2.69,0c0-3.11-2-4.78-4.23-4.76s-4.19,1.7-4.17,4.81,2,4.81,4.23,4.79S384.9,345.7,384.88,342.56Z"/><path class="cls-5" d="M400.39,347.18a4.51,4.51,0,0,1-4.16,2.43c-3.95,0-6.4-3.1-6.42-7.1,0-3.81,2.54-7.07,6.34-7.09,2.38,0,3.67,1.16,4.13,2.25l0-8.71h2.6l0.1,17.78a21.43,21.43,0,0,0,.15,2.49h-2.55a11.32,11.32,0,0,1-.15-1.82v-0.22Zm-3.92.11c2.41,0,3.88-2.12,3.86-4.89s-1.48-4.67-3.89-4.65-4,2-3.95,4.75S394,347.3,396.47,347.29Z"/><path class="cls-5" d="M419.14,345.28a6.11,6.11,0,0,1-6,4.29c-3.61,0-6.79-2.59-6.82-7.16,0-4.23,3-7.13,6.4-7.15,4.14,0,6.48,2.82,6.51,7a5.93,5.93,0,0,1-.05.84l-10.14.06a4,4,0,0,0,4.08,4.07,3.67,3.67,0,0,0,3.77-2.74ZM416.46,341a3.39,3.39,0,0,0-3.72-3.42,3.62,3.62,0,0,0-3.65,3.46Z"/><polygon class="cls-5" points="543.44 461.87 543.26 429.38 545.26 429.37 545.43 459.86 880.96 458.81 880.79 428.32 882.79 428.31 882.97 460.8 881.97 460.8 543.44 461.87"/><polygon class="cls-5" points="539.28 430.86 544.22 422.2 549.25 430.81 539.28 430.86"/><polygon class="cls-5" points="886.79 429.74 881.75 421.14 876.81 429.8 886.79 429.74"/><rect class="cls-5" x="711.64" y="428.31" width="2" height="47.69" transform="translate(-0.72 1.14) rotate(-0.09)"/><polygon class="cls-5" points="707.62 429.78 712.59 421.14 717.59 429.76 707.62 429.78"/><polygon class="cls-5" points="504.24 344.33 427.01 344.33 427.01 342.33 502.24 342.33 502.24 328.18 504.24 328.18 504.24 344.33"/><polygon class="cls-5" points="508.23 329.63 503.24 321 498.26 329.63 508.23 329.63"/></svg>