<?xml version="1.0" encoding="utf-8"?>
<!-- Generator: Adobe Illustrator 23.0.2, SVG Export Plug-In . SVG Version: 6.00 Build 0)  -->
<svg version="1.1" xmlns="http://www.w3.org/2000/svg" xmlns:xlink="http://www.w3.org/1999/xlink" x="0px" y="0px"
	 viewBox="0 0 1920 1080" style="enable-background:new 0 0 1920 1080;" xml:space="preserve">
<style type="text/css">
	.st0{display:none;}
	.st1{display:inline;fill:#F56E56;stroke:#000000;stroke-miterlimit:10;}
	.st2{display:inline;fill:#F34A2C;stroke:#000000;stroke-miterlimit:10;}
	.st3{display:inline;}
	.st4{fill:#F34A2C;}
	.st5{fill:none;stroke:#000000;stroke-miterlimit:10;}
	.st6{fill:url(#SVGID_1_);}
	.st7{display:none;fill:url(#SVGID_2_);}
	.st8{display:none;fill:#F65234;}
	.st9{opacity:0.1;fill:#F65234;enable-background:new    ;}
	.st10{opacity:0.35;}
	.st11{opacity:0.2;fill:#F65234;enable-background:new    ;}
	.st12{fill:none;stroke:#535461;stroke-width:2;stroke-miterlimit:10;}
	.st13{fill:#F65234;}
	.st14{opacity:0.25;enable-background:new    ;}
	.st15{display:none;opacity:0.25;fill:#B83D27;stroke:#B83D27;stroke-miterlimit:10;enable-background:new    ;}
	.st16{opacity:0.1;enable-background:new    ;}
	.st17{fill:#FFD037;}
	.st18{fill:#65617D;}
	.st19{fill:#9D9CB5;}
	.st20{fill:url(#SVGID_3_);}
	.st21{fill:#F6F7F9;}
	.st22{fill:url(#SVGID_4_);}
	.st23{fill:url(#SVGID_5_);}
	.st24{fill:url(#SVGID_6_);}
	.st25{fill:url(#SVGID_7_);}
	.st26{fill:url(#SVGID_8_);}
	.st27{fill:none;}
	.st28{font-family:'CambriaMath';}
	.st29{font-size:14px;}
	.st30{fill:url(#SVGID_9_);}
	.st31{fill:#2D293D;}
	.st32{fill:#575988;}
	.st33{opacity:0.05;enable-background:new    ;}
	.st34{opacity:0.05;}
	.st35{fill:#FFCDD3;}
	.st36{fill:#DCE6F2;}
	.st37{fill:#656691;}
	.st38{opacity:0.1;}
	.st39{display:inline;fill:none;stroke:url(#SVGID_10_);stroke-miterlimit:10;}
	.st40{display:inline;opacity:0.4;fill:#F34A2C;enable-background:new    ;}
	.st41{display:inline;fill:#3F3D56;}
	.st42{display:inline;fill:#F34A2C;}
	.st43{display:inline;opacity:0.1;enable-background:new    ;}
	.st44{display:inline;fill:#2F2E41;}
	.st45{display:inline;fill:#575A89;}
	.st46{display:inline;fill:#FFB9B9;}
	.st47{display:inline;fill:#A0616A;}
	.st48{display:inline;fill:#F2F2F2;}
	.st49{display:inline;fill:#57B894;}
	.st50{fill:#F2F2F2;}
	.st51{fill:#FFB9B9;}
	.st52{fill:#2F2E41;}
	.st53{font-family:'Gabriola';}
	.st54{font-size:125.0276px;}
	.st55{font-family:'Microsoft-Yi-Baiti';}
	.st56{font-size:48px;}
	.st57{display:inline;fill:#E89470;}
	.st58{display:inline;fill:#FFFFFF;}
	.st59{font-size:84.4833px;}
	.st60{font-family:'Calibri-Light';}
	.st61{font-size:24px;}
	.st62{display:inline;fill:#656691;}
	.st63{font-size:36px;}
</style>
<g id="Layer_3" class="st0">
	<path class="st1" d="M880.5-15.5c-26.63-0.33-68.51-0.64-120,0c-84.66,1.05-126.98,1.57-138,6c-120.22,48.34-151.4,636.6,115,796
		c172.49,103.21,292.69-79.31,627-3c261.45,59.68,396.67,218.96,490,152c33.34-23.92,46.89-99.61,74-251
		c17.41-97.2,30.66-171.24,34-275c3.2-99.44-2.23-241.55-43-409"/>
</g>
<g id="Layer_2" class="st0">
	<ellipse class="st2" cx="1411" cy="435.5" rx="689.5" ry="463"/>
	<ellipse class="st2" cx="765" cy="807" rx="123.5" ry="68.5"/>
	<circle class="st2" cx="961" cy="889" r="43.5"/>
</g>
<g id="Layer_1" class="st0">
	<g id="XMLID_1_" class="st3">
		<g>
			<path class="st4" d="M757.94-53.11c3.48-4.03,10.1-5.14,13.51-0.77C766.95-53.65,762.44-53.4,757.94-53.11z"/>
		</g>
		<g>
			<path class="st5" d="M758.64-44.65C786.6-27.51,813-7.1,837.3,16.16c27.21,26.04,53.42,60,53.48,100.57
				c0.03,26.16-10.92,50.49-20.78,74.14c-18.06,43.33-33.38,88.62-39.76,136c-9.55,71,1.4,143.62,19.01,212.48
				c16.35,63.93,38.89,126.77,74.72,179.29c35.84,52.51,86.17,94.18,143.56,106.57c62.49,13.49,126.73-8.23,185.68-35.82
				c44.91-21.01,92.69-46.12,139.94-33.9c39.02,10.09,69.33,43.75,98.77,74.58c50.85,53.25,109.26,103.96,177.92,113.02
				c55.75,7.36,111.53-13.87,162.34-41.31c34.23-18.49,67.33-39.96,101.53-58.42c16.56-8.94,33.38-17.17,50.71-24.01"/>
			<path class="st5" d="M755.89-52.99c0.68-0.04,1.37-0.09,2.05-0.12c4.5-0.29,9.01-0.54,13.51-0.77
				c37.39-1.89,74.82-2.12,112.24-2.3c347.41-1.65,694.83,1.08,1042.16,8.21c-2.53,294.96,0.31,589.96,8.53,884.75"/>
			<path class="st5" d="M1934.95,846.83c-0.24-0.62-0.47-1.25-0.7-1.89c-0.19-0.52-0.37-1.05-0.54-1.58
				c-3.4-10.35-4.07-21.86-1.9-32.66"/>
			<path class="st5" d="M755.67-47.14c0.01-2.34,0.9-4.38,2.27-5.97c3.48-4.03,10.1-5.14,13.51-0.77c0.07,0.09,0.14,0.18,0.21,0.28"
				/>
		</g>
	</g>
	<path class="st2" d="M1513.5,428.5"/>
</g>
<g id="Layer_4">
	<g>
		
			<radialGradient id="SVGID_1_" cx="836.0881" cy="478.5144" r="911.9351" fx="1177.9482" fy="-53.2818" gradientTransform="matrix(-0.2753 0.8871 -1.5917 -0.5326 1939.1704 -41.1687)" gradientUnits="userSpaceOnUse">
			<stop  offset="0.1292" style="stop-color:#F65234;stop-opacity:0.4"/>
			<stop  offset="0.1799" style="stop-color:#EF5E47;stop-opacity:0.4357"/>
			<stop  offset="0.31" style="stop-color:#E07A72;stop-opacity:0.5273"/>
			<stop  offset="0.4423" style="stop-color:#D39195;stop-opacity:0.6203"/>
			<stop  offset="0.5751" style="stop-color:#CAA3B1;stop-opacity:0.7138"/>
			<stop  offset="0.7088" style="stop-color:#C3B0C4;stop-opacity:0.8078"/>
			<stop  offset="0.8437" style="stop-color:#BEB7D0;stop-opacity:0.9027"/>
			<stop  offset="0.982" style="stop-color:#BDBAD4"/>
		</radialGradient>
		<path class="st6" d="M-2,414C234.07,118.02,376.05,75.71,463,95c25.91,5.75,109.98,34.84,278.11,93.03
			c60.01,20.77,83.81,31.35,122.92,31.7c119.99,1.1,174.26-52.27,205.47-25.18c29.93,25.98,20.1,108.83-15.25,167.84
			C986.47,475.53,860,442.34,802.13,541.43c-38.38,65.72-31.14,163.15,5.38,225.65c89.83,153.71,416.71,198.67,629.88,80.19
			c87.61-48.69,159.14-127.16,265.59-110.03c72.17,11.61,96.46,61.38,137.28,44.76c64.72-26.35,71.93-175.97,77.45-290.71
			c0.44-9.1-0.12-0.33,0-123.95c0.06-66.09,0.22-102.43,0.45-182.2c0.13-44.18,0.3-109.24,0.45-189.66
			C1598.77-10.24,1340.72-13.28,1160-15c-782.06-7.46-622.52,4.73-708,0c-83.55-4.63-167.65,11.35-251,4
			C101.42-19.78,35.02-38.39-2,0c-23.78,24.66-22.9,59.85-21,106C-19.66,186.83-13.61,290.89-2,414z"/>
		
			<radialGradient id="SVGID_2_" cx="830.1082" cy="106.3865" r="972.9132" gradientTransform="matrix(0.8975 0 0 0.932 196.998 -0.3402)" gradientUnits="userSpaceOnUse">
			<stop  offset="0" style="stop-color:#656691;stop-opacity:0.3"/>
			<stop  offset="1" style="stop-color:#656691"/>
		</radialGradient>
		<path class="st7" d="M1158.6,915c-27.77,0-55.46-1.76-82.46-5.29c-60.41-7.9-116.59-24.56-162.49-48.17
			c-48.83-25.12-84.67-56.82-106.52-94.21c-18.3-31.31-29.25-71.03-30.85-111.84c-1.67-42.73,7.37-83.32,25.46-114.29
			c28.12-48.13,71.84-64.94,118.14-82.74c48.73-18.73,99.12-38.1,133.99-96.3c36.58-61.06,44.04-142.33,15.35-167.24
			c-15.33-13.31-36.47-6.92-68.47,2.76c-32.2,9.74-76.32,23.06-136.72,22.52l-4.6-0.04c-45.54-0.38-102.22-0.85-118.71-31.9
			c-9.77-18.4-4.31-46.23,15.79-80.49c19.33-32.95,51.14-70.28,92.01-107.98l0.13-0.12l0.17,0L1919.08-5l-0.02,0.49
			c-4.47,128.11-4.77,253.21-0.9,371.83l0.19,5.86c1,30.07,2.24,67.49-0.19,118.14c-2.79,57.89-5.95,123.5-16.54,178.58
			c-12.3,63.98-32.32,100.79-61.2,112.55c-22.01,8.96-39.43-1.3-61.48-14.3c-18.94-11.16-42.5-25.04-76.03-30.44
			c-79.22-12.74-138.25,27.02-200.74,69.11c-20.79,14-42.28,28.48-64.57,40.87c-51.62,28.69-110.79,48.58-175.86,59.12
			C1228.02,912.26,1193.25,915,1158.6,915z M1047.33,186.4c8.68,0,16.05,2.21,22.47,7.79c14.16,12.29,20.36,38.51,17.02,71.94
			c-3.27,32.66-15,67.83-32.18,96.51c-35.03,58.47-85.57,77.9-134.44,96.68c-46.15,17.74-89.73,34.49-117.69,82.35
			c-35.96,61.57-33.65,158.38,5.38,225.17c42.33,72.44,142.66,125.5,268.36,141.95c128.36,16.79,259.91-5.78,360.92-61.92
			c22.26-12.37,43.73-26.84,64.5-40.83c62.64-42.19,121.81-82.05,201.37-69.25c33.69,5.42,57.34,19.35,76.34,30.55
			c21.85,12.87,39.1,23.04,60.71,14.24c28.57-11.63,48.41-48.22,60.65-111.87c10.58-55.01,13.73-120.58,16.52-178.44
			c2.44-50.61,1.19-88.01,0.19-118.06l-0.19-5.86c0.45-61.06,0.75-122.11,0.9-183.15c0.15-62.75,0.15-125.5-0.02-188.26L848.98,0.59
			c-40.74,37.6-72.45,74.82-91.71,107.65c-19.92,33.96-25.37,61.47-15.77,79.56c16.24,30.58,72.62,31.05,117.93,31.42l4.6,0.04
			c60.27,0.56,104.31-12.76,136.46-22.49C1019.56,191.01,1034.81,186.4,1047.33,186.4z"/>
	</g>
</g>
<g id="Layer_9">
</g>
<g id="Layer_5">
	<path class="st8" d="M1822.16,331.81c-6.39-2.29-20.91-20.97-20.91-20.97s22.54-5.36,28.93-3.06c6.39,2.3,9.77,9.54,7.56,16.17
		C1835.52,330.59,1828.55,334.11,1822.16,331.81L1822.16,331.81z"/>
	<ellipse class="st9" cx="1546.74" cy="862.55" rx="95.98" ry="16.7"/>
	<g class="st10">
		<path class="st11" d="M1485.77,229.9v-6.2h-94.06c-4.33,0-1.69,6.24-1.69,6.24h-51.1v139.01h224.37V229.9H1485.77z"/>
	</g>
	<path class="st12" d="M1726.67,379.25c0,0,28.28-52.02,70.9-67.01c17.9-6.17,33.39-18.2,44.15-34.3
		c5.05-7.68,9.41-15.82,13.02-24.32"/>
	<path class="st13" d="M1881.49,244c-4.85,4.89-27.44,9.95-27.44,9.95s5.54-23.3,10.39-28.2c4.85-4.89,12.6-4.77,17.31,0.27
		C1886.46,231.06,1886.34,239.11,1881.49,244L1881.49,244z"/>
	<path class="st13" d="M1843.53,319.84c-6.53-1.84-22.23-19.46-22.23-19.46s22.14-6.91,28.66-5.07c6.52,1.85,10.37,8.83,8.59,15.61
		C1856.78,317.69,1850.05,321.69,1843.53,319.84L1843.53,319.84L1843.53,319.84z"/>
	<path class="st13" d="M1779.45,358.1c-6.67-1.13-24.03-16.97-24.03-16.97s21.34-9.23,28.02-8.09c6.67,1.15,11.19,7.69,10.08,14.62
		c-1.1,6.93-7.41,11.62-14.08,10.47V358.1z"/>
	<path class="st13" d="M1821.61,260.82c0,7.03,12.23,27.39,12.23,27.39s12.26-20.35,12.26-27.38c0.18-7.02-5.15-12.87-11.91-13.06
		c-6.76-0.19-12.39,5.35-12.58,12.37C1821.6,260.37,1821.6,260.6,1821.61,260.82L1821.61,260.82z"/>
	<path class="st13" d="M1772.04,292.23c2.02,6.7,19.57,22.37,19.57,22.37s5.82-23.23,3.81-29.94c-1.7-6.79-8.39-10.87-14.93-9.1
		c-6.54,1.77-10.46,8.71-8.76,15.51c0.1,0.4,0.22,0.8,0.36,1.19L1772.04,292.23z"/>
	<path class="st13" d="M1727.89,329.62c0.9,6.96,15.65,25.45,15.65,25.45s9.52-21.87,8.62-28.84c-0.47-7.01-6.32-12.3-13.07-11.81
		c-6.75,0.48-11.84,6.56-11.38,13.57c0.04,0.55,0.11,1.09,0.21,1.63H1727.89z"/>
	<path class="st12" d="M1375.34,348.11c0,0-37.52-45.28-36.63-92c0.49-19.58-5.15-38.8-16.08-54.76
		c-5.24-7.54-11.14-14.56-17.61-20.98"/>
	<path class="st14" d="M1881.49,244c-4.85,4.89-27.44,9.95-27.44,9.95s5.54-23.3,10.39-28.2c4.85-4.89,12.6-4.77,17.31,0.27
		C1886.46,231.06,1886.34,239.11,1881.49,244L1881.49,244z"/>
	<path class="st14" d="M1843.6,319.83c-6.53-1.81-22.32-19.35-22.32-19.35s22.11-7.02,28.64-5.21c6.53,1.81,10.41,8.78,8.67,15.56
		C1856.84,317.61,1850.13,321.64,1843.6,319.83L1843.6,319.83L1843.6,319.83z"/>
	<path class="st14" d="M1779.45,358.1c-6.67-1.13-24.03-16.97-24.03-16.97s21.34-9.23,28.02-8.09c6.67,1.15,11.19,7.69,10.08,14.62
		c-1.1,6.93-7.41,11.62-14.08,10.47V358.1z"/>
	<path class="st14" d="M1821.61,260.82c0,7.03,12.23,27.39,12.23,27.39s12.26-20.35,12.26-27.38c0.18-7.02-5.15-12.87-11.91-13.06
		c-6.76-0.19-12.39,5.35-12.58,12.37C1821.6,260.37,1821.6,260.6,1821.61,260.82L1821.61,260.82z"/>
	<path class="st14" d="M1772.04,292.23c2.02,6.7,19.57,22.37,19.57,22.37s5.82-23.23,3.81-29.94c-1.7-6.79-8.39-10.87-14.93-9.1
		c-6.54,1.77-10.46,8.71-8.76,15.51c0.1,0.4,0.22,0.8,0.36,1.19L1772.04,292.23z"/>
	<path class="st14" d="M1727.89,329.62c0.9,6.96,15.65,25.45,15.65,25.45s9.52-21.87,8.62-28.84c-0.47-7.01-6.32-12.3-13.07-11.81
		c-6.75,0.48-11.84,6.56-11.38,13.57c0.04,0.55,0.11,1.09,0.21,1.63H1727.89z"/>
	<path class="st12" d="M1728.31,378.22c0,0,5.55-59.46,38.59-91.08c13.96-13.17,23.42-30.69,26.97-49.93
		c1.62-9.15,2.43-18.43,2.41-27.73"/>
	<path class="st15" d="M1822.16,331.81c-6.39-2.29-20.91-20.97-20.91-20.97s22.54-5.36,28.93-3.06c6.39,2.3,9.77,9.54,7.56,16.17
		C1835.52,330.59,1828.55,334.11,1822.16,331.81L1822.16,331.81z"/>
	<path class="st13" d="M1817.07,189.42c-2.53,6.52-21.22,20.65-21.22,20.65s-4.03-23.65-1.5-30.18c2.53-6.51,9.66-9.67,15.93-7.04
		c6.27,2.63,9.31,10.03,6.78,16.55V189.42z"/>
	<path class="st13" d="M1821.83,233.36c-5.53,4.04-28.61,5.36-28.61,5.36s8.97-22.12,14.52-26.15c5.53-4.04,13.17-2.66,17.06,3.08
		S1827.36,229.32,1821.83,233.36z"/>
	<path class="st13" d="M1797.08,294.67c-6.74,0.59-27.3-10.37-27.3-10.37s18.52-14.38,25.26-14.97c6.74-0.59,12.66,4.61,13.22,11.61
		C1808.82,287.94,1803.82,294.08,1797.08,294.67L1797.08,294.67z"/>
	<path class="st13" d="M1768.3,336.68c-6.54,1.77-28.6-5.43-28.6-5.43s15.91-17.42,22.44-19.18c6.55-1.76,13.23,2.32,14.93,9.11
		c1.7,6.8-2.23,13.74-8.78,15.5L1768.3,336.68z"/>
	<path class="st13" d="M1768.88,230c2.74,6.42,21.87,19.89,21.87,19.89s3.26-23.77,0.52-30.19c-2.73-6.43-9.96-9.35-16.15-6.52
		c-6.2,2.83-9.01,10.34-6.28,16.78L1768.88,230z"/>
	<path class="st13" d="M1735.82,279.62c4.49,5.28,26.6,12.19,26.6,12.19s-3.74-23.69-8.2-28.98c-4.46-5.28-12.2-5.8-17.28-1.16
		C1731.86,266.3,1731.36,274.33,1735.82,279.62L1735.82,279.62z"/>
	<path class="st13" d="M1710.04,332.33c3.59,5.98,24.23,16.68,24.23,16.68s0.22-24.01-3.37-29.99c-3.66-5.91-11.24-7.61-16.93-3.81
		C1708.46,318.9,1706.72,326.45,1710.04,332.33L1710.04,332.33z"/>
	<path class="st12" d="M1116.46,618.75c0,0-35-45.04-32.8-90.24c1.05-18.95-3.85-37.74-13.96-53.55
		c-4.86-7.47-10.36-14.45-16.45-20.88"/>
	<path class="st13" d="M1054.47,425.59c2.51,6.29-1.16,29.25-1.16,29.25s-18.24-13.51-20.75-19.8c-2.51-6.29,0.37-13.5,6.42-16.1
		s13,0.38,15.5,6.67L1054.47,425.59z"/>
	<path class="st13" d="M1086.52,452.63c-1.18,6.69-16.29,23.87-16.29,23.87s-8.27-21.66-7.05-28.33c1.1-6.71,7.23-11.22,13.69-10.08
		c6.46,1.14,10.81,7.51,9.71,14.21C1086.56,452.41,1086.54,452.52,1086.52,452.63z"/>
	<path class="st13" d="M1109.44,512.48c-4.28,5.16-25.68,12.07-25.68,12.07s3.41-22.99,7.69-28.16c4.48-4.97,11.99-5.22,16.77-0.57
		c4.51,4.39,5.02,11.63,1.18,16.65H1109.44z"/>
	<path class="st13" d="M1116.98,561.83c-3.37,5.83-23.33,16.4-23.33,16.4s-0.39-23.3,3-29.1c3.44-5.79,10.75-7.59,16.33-4.02
		C1118.45,548.63,1120.24,556.05,1116.98,561.83z"/>
	<path class="st13" d="M1047.66,487.62c6.09,2.51,28.14-1.66,28.14-1.66s-13.28-18.73-19.37-21.25c-6.16-2.34-12.98,0.94-15.24,7.33
		C1039.02,478.2,1041.86,485.04,1047.66,487.62z"/>
	<path class="st13" d="M1057.19,545.24c6.53,0.5,26.37-10.32,26.37-10.32s-18.08-13.76-24.61-14.26
		c-6.54-0.51-12.24,4.57-12.73,11.36c-0.5,6.79,4.4,12.71,10.94,13.22H1057.19z"/>
	<path class="st13" d="M1073.85,599.88c6.35,1.65,27.67-5.59,27.67-5.59s-15.58-16.67-21.93-18.29c-6.36-1.64-12.8,2.38-14.38,8.98
		c-1.58,6.6,2.29,13.29,8.65,14.94V599.88z"/>
	<path class="st13" d="M1864.19,694.36c0,0,6.85,9.32-3.16,23.3c-10.01,13.98-18.26,25.89-14.93,34.65c0,0,15.1-26.1,27.39-26.44
		C1885.78,725.52,1877.71,710.03,1864.19,694.36z"/>
	<path class="st16" d="M1864.19,694.36c0.6,0.9,1.07,1.88,1.4,2.92c11.99,14.63,18.38,28.29,6.86,28.63
		c-10.77,0.32-23.62,20.25-26.71,25.29c0.1,0.39,0.23,0.77,0.37,1.15c0,0,15.1-26.1,27.39-26.44S1877.71,710.03,1864.19,694.36z"/>
	<path class="st17" d="M1876.92,706.2c0,3.28-0.36,5.93-0.79,5.93s-0.79-2.65-0.79-5.93s0.44-1.72,0.9-1.72
		C1876.7,704.48,1876.92,702.93,1876.92,706.2z"/>
	<path class="st17" d="M1881.28,710.12c-2.76,1.57-5.18,2.51-5.38,2.12s1.87-1.99,4.63-3.56s1.68-0.43,1.88,0
		C1882.62,709.1,1884.06,708.55,1881.28,710.12z"/>
	<path class="st13" d="M1828.02,694.36c0,0-6.85,9.32,3.16,23.3c10.01,13.98,18.26,25.89,14.93,34.65c0,0-15.1-26.1-27.39-26.44
		C1806.42,725.52,1814.49,710.03,1828.02,694.36z"/>
	<path class="st16" d="M1828.02,694.36c-0.6,0.9-1.07,1.88-1.4,2.92c-12,14.63-18.38,28.29-6.86,28.63
		c10.77,0.32,23.62,20.25,26.71,25.29c-0.11,0.38-0.22,0.76-0.37,1.15c0,0-15.1-26.1-27.39-26.44
		C1806.42,725.56,1814.49,710.03,1828.02,694.36z"/>
	<path class="st17" d="M1815.27,706.2c0,3.28,0.36,5.93,0.79,5.93s0.79-2.65,0.79-5.93s-0.44-1.72-0.9-1.72
		S1815.27,702.93,1815.27,706.2z"/>
	<path class="st17" d="M1810.91,710.12c2.77,1.57,5.19,2.51,5.38,2.12s-1.87-1.99-4.63-3.56s-1.68-0.43-1.88,0
		C1809.57,709.1,1808.15,708.55,1810.91,710.12z"/>
	<ellipse class="st9" cx="1846.1" cy="812.07" rx="71.6" ry="11.41"/>
	<path class="st18" d="M1882.95,739.81l-0.34,2.9l-0.48,4.1l-0.2,1.71l-0.48,4.1l-0.22,1.71l-0.48,4.1l-5.48,46.6
		c-0.48,4.17-7.04,7.46-14.94,7.46h-28.47c-7.91,0-14.45-3.24-14.94-7.46l-5.48-46.6l-0.48-4.1l-0.2-1.71l-0.48-4.1l-0.21-1.71
		l-0.48-4.1l-0.35-2.9c-0.27-2.36,3.28-4.34,7.75-4.34h58.23C1879.69,735.47,1883.23,737.45,1882.95,739.81z"/>
	<polygon class="st19" points="1882.61,742.71 1882.13,746.81 1810.07,746.81 1809.59,742.71 	"/>
	<polygon class="st19" points="1881.93,748.52 1881.44,752.62 1810.76,752.62 1810.27,748.52 	"/>
	<polygon class="st19" points="1881.24,754.34 1880.76,758.43 1811.44,758.43 1810.96,754.34 	"/>
	
		<linearGradient id="SVGID_3_" gradientUnits="userSpaceOnUse" x1="1747.1281" y1="624.4642" x2="1747.1281" y2="819.5762" gradientTransform="matrix(1 0 0 -1 -76.87 1056.39)">
		<stop  offset="0" style="stop-color:#808080;stop-opacity:0.25"/>
		<stop  offset="0.54" style="stop-color:#808080;stop-opacity:0.12"/>
		<stop  offset="1" style="stop-color:#808080;stop-opacity:0.1"/>
	</linearGradient>
	<path class="st20" d="M1699.99,258.72h-0.75c1.18-1.4,1.79-2.8,1.7-4.04l-6.82-7.08l2.6-6.06h-8.77l1.62-4.73h-5.2l-57.49,19.89
		c0,0-0.06,0.83,0,2.01h-37.02v173.21h160.79V258.72H1699.99z"/>
	<rect x="1591.06" y="259.32" class="st21" width="158.37" height="170.78"/>
	<path class="st16" d="M1699.55,259.32c-7.5,11.47-57.62,26.58-57.62,26.58l0.31-11.96h-9.27c0.52-2.37-0.52-4.8-2.57-5.98
		c-2.69-1.54-2.95-6.52-2.92-8.64H1699.55z"/>
	<path class="st19" d="M1684.16,237.73l-56.62,19.57c0,0-0.65,7.64,2.87,9.63c2.04,1.18,3.08,3.62,2.57,5.98h9.27l-0.31,11.96
		c0,0,59.5-17.94,58.54-29.56l-6.71-6.98l2.56-5.98h-8.64l1.61-4.66L1684.16,237.73z"/>
	<g class="st10">
		<rect x="1620.33" y="314.68" class="st11" width="99.82" height="2.91"/>
	</g>
	<g class="st10">
		<rect x="1620.33" y="330.01" class="st11" width="99.82" height="2.91"/>
	</g>
	<g class="st10">
		<rect x="1620.33" y="345.33" class="st11" width="99.82" height="2.91"/>
	</g>
	<g class="st10">
		<rect x="1620.33" y="360.66" class="st11" width="99.82" height="2.91"/>
	</g>
	<g class="st10">
		<rect x="1620.33" y="375.98" class="st11" width="99.82" height="2.91"/>
	</g>
	<g class="st10">
		<rect x="1620.33" y="391.31" class="st11" width="99.82" height="2.91"/>
	</g>
	
		<linearGradient id="SVGID_4_" gradientUnits="userSpaceOnUse" x1="1282.3225" y1="592.236" x2="1282.3225" y2="799.063" gradientTransform="matrix(1 0 0 -1 -76.87 1056.39)">
		<stop  offset="0" style="stop-color:#808080;stop-opacity:0.25"/>
		<stop  offset="0.54" style="stop-color:#808080;stop-opacity:0.12"/>
		<stop  offset="1" style="stop-color:#808080;stop-opacity:0.1"/>
	</linearGradient>
	<path class="st22" d="M1215.46,279.16h-0.38c2.84-7.55,5.46-14.91,5.34-16.32c-0.25-2.8-5.65,3.28-5.9,1.76
		c-0.25-1.52,0-7.28-2.45-7.28c-2.45,0-3.93,2.99-5.38,2.99c-1.45,0-7.37-1.01-7.37-1.01l-7.53,19.85h-56.72v184.99h140.76V279.16
		H1215.46z"/>
	<rect x="1146.52" y="281.12" class="st21" width="137.57" height="182.73"/>
	<path class="st16" d="M1227.8,269c-2.9,7.82-6.17,16.06-6.91,18.02c-1.44,3.73-2.4,1.74-4.08,1.25c-1.69-0.49-3.83,0.49-4.79,0
		s-6.6,0-6.6,0c0.06-0.92,0.06-1.83,0-2.75c-0.13-0.99-6.61,0-6.61,0l6.17-16.52H1227.8z"/>
	<path class="st19" d="M1209.32,261.52l-13.2,35.14c0,0,6.48-1,6.6,0c0.07,0.91,0.07,1.83,0,2.74c0,0,5.65-0.5,6.61,0
		s3.11-0.5,4.79,0c1.68,0.5,2.64,2.49,4.08-1.25s12-30.4,11.76-33.14s-5.52,3.24-5.76,1.74c-0.24-1.5,0-7.19-2.4-7.19
		c-2.4,0-3.84,2.95-5.28,2.95C1215.08,262.52,1209.32,261.52,1209.32,261.52z"/>
	<g class="st10">
		<rect x="1165.41" y="329.62" class="st11" width="99.82" height="2.91"/>
	</g>
	<g class="st10">
		<rect x="1165.41" y="340.59" class="st11" width="99.82" height="2.91"/>
	</g>
	<g class="st10">
		<rect x="1165.41" y="351.55" class="st11" width="99.82" height="2.91"/>
	</g>
	<g class="st10">
		<rect x="1165.41" y="362.52" class="st11" width="99.82" height="2.91"/>
	</g>
	<g class="st10">
		<rect x="1165.41" y="373.48" class="st11" width="99.82" height="2.91"/>
	</g>
	<g class="st10">
		<rect x="1165.41" y="384.44" class="st11" width="99.82" height="2.91"/>
	</g>
	
		<linearGradient id="SVGID_5_" gradientUnits="userSpaceOnUse" x1="1791.2078" y1="332.3134" x2="1791.2078" y2="587.4828" gradientTransform="matrix(1 0 0 -1 -76.87 1056.39)">
		<stop  offset="0" style="stop-color:#808080;stop-opacity:0.25"/>
		<stop  offset="0.54" style="stop-color:#808080;stop-opacity:0.12"/>
		<stop  offset="1" style="stop-color:#808080;stop-opacity:0.1"/>
	</linearGradient>
	<path class="st23" d="M1726.53,495.84h-0.38c3.48-9.32,6.7-18.43,6.54-20.13c-0.3-3.42-6.92,4.04-7.18,2.18
		c-0.26-1.86,0-8.98-3.01-8.98c-3.01,0-4.81,3.73-6.61,3.73s-9.03-1.25-9.03-1.25l-9.28,24.46h-69.51v228.23h172.52V495.84H1726.53z
		"/>
	<rect x="1633.95" y="496.49" class="st21" width="169.52" height="225.17"/>
	<path class="st16" d="M1726.2,497.43c-3.54,9.56-7.5,19.57-8.43,21.98c-1.79,4.6-2.95,2.14-5.03,1.54c-2.07-0.61-4.73,0.61-5.91,0
		c-1.18-0.61-8.13,0-8.13,0c0.08-1.13,0.08-2.26,0-3.38c-0.15-1.22-8.13,0-8.13,0l7.57-20.13L1726.2,497.43z"/>
	<path class="st19" d="M1711.32,472.34l-16.26,43.29c0,0,7.98-1.23,8.13,0c0.08,1.12,0.08,2.25,0,3.37c0,0,6.95-0.61,8.13,0
		s3.84-0.61,5.91,0c2.07,0.61,3.25,3.08,5.03-1.53c1.78-4.6,14.78-37.47,14.49-40.84s-6.8,3.99-7.1,2.15c-0.3-1.84,0-8.86-2.95-8.86
		c-2.95,0-4.73,3.64-6.51,3.64S1711.32,472.34,1711.32,472.34z"/>
	<g class="st10">
		<rect x="1668.8" y="559.41" class="st11" width="99.82" height="7.39"/>
	</g>
	<g class="st10">
		<rect x="1668.8" y="607.42" class="st11" width="99.82" height="7.39"/>
	</g>
	<g class="st10">
		<rect x="1668.8" y="655.44" class="st11" width="99.82" height="7.39"/>
	</g>
	
		<linearGradient id="SVGID_6_" gradientUnits="userSpaceOnUse" x1="1168.5885" y1="338.8549" x2="1168.5885" y2="583.5488" gradientTransform="matrix(1 0 0 -1 0 1082)">
		<stop  offset="0" style="stop-color:#808080;stop-opacity:0.25"/>
		<stop  offset="0.54" style="stop-color:#808080;stop-opacity:0.12"/>
		<stop  offset="1" style="stop-color:#808080;stop-opacity:0.1"/>
	</linearGradient>
	<polygon class="st24" points="1192.28,526.01 1192.28,498.45 1155.02,498.45 1155.02,526.01 1077.24,526.01 1077.24,743.15 
		1259.94,743.15 1259.94,526.01 	"/>
	<rect x="1079.17" y="527.11" class="st21" width="178.84" height="214.62"/>
	<rect x="1155.31" y="527.11" class="st16" width="36.47" height="29.24"/>
	<rect x="1155.31" y="499.87" class="st19" width="36.47" height="55.48"/>
	<g class="st10">
		<rect x="1118.68" y="599.02" class="st11" width="99.82" height="7.39"/>
	</g>
	<g class="st10">
		<rect x="1118.68" y="613.72" class="st11" width="99.82" height="7.39"/>
	</g>
	<g class="st10">
		<rect x="1118.68" y="628.43" class="st11" width="99.82" height="7.39"/>
	</g>
	<g class="st10">
		<rect x="1118.68" y="643.12" class="st11" width="99.82" height="7.39"/>
	</g>
	<g class="st10">
		<rect x="1191.78" y="659.49" class="st11" width="26.72" height="22.42"/>
	</g>
	<g class="st10">
		<rect x="1118.68" y="687.23" class="st11" width="26.72" height="22.42"/>
	</g>
	
		<linearGradient id="SVGID_7_" gradientUnits="userSpaceOnUse" x1="1498.7635" y1="313.2355" x2="1498.7635" y2="556.2" gradientTransform="matrix(1 0 0 -1 -76.87 1056.39)">
		<stop  offset="0" style="stop-color:#808080;stop-opacity:0.25"/>
		<stop  offset="0.54" style="stop-color:#808080;stop-opacity:0.12"/>
		<stop  offset="1" style="stop-color:#808080;stop-opacity:0.1"/>
	</linearGradient>
	<path class="st25" d="M1448.86,525.67h-0.25c2.91-11.81,5.1-21.21,5.1-21.21l-12.4,6.06c0,0-8.8-12.12-12.06-10.09
		c-3.26,2.02-10.41,7.06-10.41,7.06l-9.5-5.05l-3.63,23.23h-74.98v167.66l4.82,2.99c3.98-1.48,10.52-4,10.52-4l-3.01,8.67l2.03,1.25
		l3.42-3.22l1.27,6.14l4.07,2.53l6.42-4.24l-1.79,7.14l6.02,3.73l17.51-6.83l-5.28,14.43l3.47,2.16l7.92-1.44c0,0-0.36,2.88-0.58,6
		l7.95,4.94c3.26-1.31,6.33-2.61,6.33-2.61s-0.31,3.15-0.46,6.24l5.33,3.32c4.21-2.55,9.57-6.03,9.57-6.03l-4.49,8.67h101.33V525.67
		H1448.86z"/>
	<path class="st21" d="M1511.08,527.11v214.62h-99.38l4.43-8.55c0,0-5.25,3.42-9.38,5.95l-5.22-3.28c0.14-3.05,0.46-6.16,0.46-6.16
		s-3.02,1.28-6.21,2.57l-7.8-4.87c0.22-3.08,0.57-5.92,0.57-5.92l-7.76,1.43l-3.4-2.13l5.17-14.24l-17.17,6.75l-5.91-3.73l1.72-7.05
		l-6.28,4.18l-3.98-2.49l-1.24-6.06l-3.36,3.19l-1.99-1.24l2.95-8.55c0,0-6.42,2.48-10.32,3.94l-4.72-2.95V527.11H1511.08z"/>
	<g class="st10">
		<rect x="1371.75" y="593.72" class="st11" width="99.82" height="7.39"/>
	</g>
	<g class="st10">
		<rect x="1371.75" y="615.82" class="st11" width="99.82" height="7.39"/>
	</g>
	<g class="st10">
		<rect x="1371.75" y="637.9" class="st11" width="99.82" height="7.39"/>
	</g>
	<g class="st10">
		<rect x="1371.75" y="660" class="st11" width="20" height="7.39"/>
	</g>
	<path class="st16" d="M1448.1,527.11c-4.86,19.93-11.95,47.53-13.8,47.05c-2.87-0.81-7.36-6.52-7.36-6.52s-10.55,10.3-15.67,4.99
		c-5.12-5.31-12.16-1.67-12.16-1.67l6.82-43.85L1448.1,527.11z"/>
	<path class="st19" d="M1409.34,504.23l-10.24,65.78c0,0,7.04-3.65,12.15,1.67c5.12,5.32,15.68-5,15.68-5s4.49,5.7,7.36,6.52
		c2.87,0.82,18.56-66.97,18.56-66.97l-12.16,5.98c0,0-8.63-11.97-11.84-9.97c-3.2,1.99-10.2,6.98-10.2,6.98L1409.34,504.23z"/>
	<path class="st13" d="M1362.26,223.9c-3.09,6.25-22.94,18.55-22.94,18.55s-1.95-23.91,1.16-30.16c3.09-6.25,10.47-8.71,16.48-5.5
		S1365.35,217.65,1362.26,223.9z"/>
	
		<linearGradient id="SVGID_8_" gradientUnits="userSpaceOnUse" x1="1534.748" y1="698.4828" x2="1534.748" y2="845.4669" gradientTransform="matrix(1 0 0 -1 -76.87 1056.39)">
		<stop  offset="0" style="stop-color:#808080;stop-opacity:0.25"/>
		<stop  offset="0.54" style="stop-color:#808080;stop-opacity:0.12"/>
		<stop  offset="1" style="stop-color:#808080;stop-opacity:0.1"/>
	</linearGradient>
	<path class="st26" d="M1492.99,217.23v-6.31h-95.24c-4.37,0-1.7,6.31-1.7,6.31h-51.75v140.67h227.15V217.18L1492.99,217.23z"/>
	<rect x="1345.74" y="217.9" class="st21" width="224.35" height="139.04"/>
	<path class="st27" d="M1492.59,240.58h-89.02c0,0-0.96-10.72,2.16-12.7c3.12-1.99-8.89-8.98-8.89-8.98c-0.13-0.33-0.25-0.66-0.35-1
		h96.09v3.24C1492.59,221.15,1504.83,232.36,1492.59,240.58z"/>
	<text transform="matrix(1 0 0 1 1405.9775 227.686)" class="st28 st29">Lorem ipsum </text>
	<path class="st19" d="M1398.53,204.22h94.06v8.47c0,0,12.24,11.18,0,19.43h-89.02c0,0-0.96-10.72,2.16-12.7
		c3.12-1.99-8.89-8.98-8.89-8.98S1394.21,204.22,1398.53,204.22z"/>
	<g class="st10">
		<rect x="1373.3" y="261.51" class="st11" width="169.25" height="2.91"/>
	</g>
	<g class="st10">
		<rect x="1373.3" y="272.47" class="st11" width="101.1" height="2.91"/>
	</g>
	<g class="st10">
		<rect x="1373.3" y="283.44" class="st11" width="169.25" height="2.91"/>
	</g>
	<g class="st10">
		<rect x="1373.3" y="294.4" class="st11" width="169.25" height="2.91"/>
	</g>
	<g class="st10">
		<rect x="1373.3" y="305.36" class="st11" width="169.25" height="2.91"/>
	</g>
	
		<linearGradient id="SVGID_9_" gradientUnits="userSpaceOnUse" x1="1547.9916" y1="183.8668" x2="1547.9916" y2="806.393" gradientTransform="matrix(1 0 0 -1 -76.87 1056.39)">
		<stop  offset="0" style="stop-color:#808080;stop-opacity:0.25"/>
		<stop  offset="0.54" style="stop-color:#808080;stop-opacity:0.12"/>
		<stop  offset="1" style="stop-color:#808080;stop-opacity:0.1"/>
	</linearGradient>
	<path class="st30" d="M1612.16,859.57c-1.61-7.1-2.59-13.33-2.59-13.33s0.37-7.73-2.97-13.52v-1.93l0,0v-14.27
		c0.95-2.58,2.11-5.08,3.46-7.46c2.48-4.49,0-20.93,0-20.93s-9.17-23.18-6.94-37.88c2.23-14.7-18.85-65.29-18.85-65.29
		c0.13-4.88,0.8-9.73,1.98-14.46c0.22-0.99,0.31-2.01,0.27-3.03c0-0.12,0-0.24,0-0.37v0.12c-0.31-9.69-7.69-27.87-7.69-27.87
		l0.99-34.64c0,0,4.71-20.43-2.97-47.84c-2.69-9.57-4.41-17.22-5.49-23.13c-0.13-0.67-0.24-1.31-0.35-1.93
		c15.82-2.51,27.9-4.59,27.9-4.59s-9.18-39.89-15.37-46.86c-6.19-6.97-11.16-28.89-11.16-28.89s-3.23-28.16,1.98-36.35
		s5.94-22.43,5.94-22.43s11.9-8.97,13.39-12.95c1.49-3.99,3.97-12.95,3.97-17.71c0-4.75-1.49-8.98-0.99-11.46
		s-3.47-11.96-1.49-16.45c0.52-1.38,0.78-2.84,0.79-4.32c0-0.04,0-0.09,0-0.13c0,0,0,0,0-0.05c0.01-3.92-0.34-7.84-1.05-11.7
		c0,0-5.38-4.93-11.77-6.52l-0.26-1.07l-0.67-2.8c-0.38-0.26-0.77-0.51-1.18-0.73v-1.02l-0.11-4.04l1.87-9.11
		c3.65-15.84-16.68-18.18-16.68-18.18c-1.22-2.44-3.27-4.32-5.75-5.28c-4.09-1.5-0.68,23.8,1.23,25.42
		c1.44,1.22,5.89,9.15,8.02,13.05l0,0l0.35,0.64c-0.32,0.31-0.62,0.65-0.9,1.02l0.77,5.49l0.12,0.84c-1.34,1.74-2.44,3.68-3.24,5.75
		c0,0,3.72,4.23,2.98,8.97c-0.74,4.73,1.14,10.63,1.23,10.96c-0.22-0.26-2.84-3.21-5.45-2.49s-9.87,2.99-9.87,2.99
		s-5.46,1-4.95,2.25c0.5,1.25-3.72,6.73-3.72,6.73l-14.66-14.43c-0.14-0.43-0.29-0.86-0.42-1.3c-0.61-2.06-1.04-4.18-1.27-6.32
		c1.6-0.4,3.16-0.91,4.68-1.55c1.54-0.55,2.93-1.47,4.06-2.69c1.47-1.86,1.79-4.3,2.36-6.52c1.16-4.44,3.65-8.39,5.44-12.59
		c3.02-7.1,4.03-14.94,2.93-22.62c-0.23-2.36-1-4.63-2.25-6.62c-2.39-3.42-6.73-4.81-9.87-7.54c-3.14-2.73-5.19-6.89-8.87-8.94
		c-3.32-1.86-7.38-1.63-11.12-1c-7.33,1.25-14.38,3.92-20.78,7.85c-2.14,1.31-4.49,2.8-6.95,2.37c-2.1-0.39-3.64-2.14-5-3.81
		c0.02-0.07,0.04-0.14,0.06-0.21l-0.16-0.2c-1.55,3.58-2.33,7.47-2.28,11.39c0,0.61,0,1.21,0.07,1.86c0,0.21,0,0.43,0,0.64
		c0.01,0.17,0.01,0.35,0,0.52l0,0c0,0.27-0.04,0.54-0.11,0.8c-0.31,0.78-0.78,1.48-1.37,2.06c-0.45,0.52-0.85,1.09-1.19,1.69
		c0.06-0.21,0.13-0.41,0.2-0.62c-0.94,1.41-1.46,3.08-1.52,4.79c-0.08,1.25,0.32,2.49,1.1,3.44c0.73,0.74,1.53,1.41,2.39,1.99
		c-2.07,11.98,3.27,24.02,13.37,30.18c0.17,0.43,0.33,0.87,0.5,1.3c1.87,5.13,3.28,11.09,2.69,16.6c-0.05,0.41-0.11,0.81-0.18,1.21
		c-0.19,0.21-0.37,0.42-0.53,0.63l0,0c0,0-24.23,0.24-29.9-5.12s-14.36,13.05-14.36,13.05s-8.68,1.75-10.41,0
		c-1.73-1.75-11.9-0.24-11.9-0.24s-6.2-6.24-15.12-5.73c-3.39-2.67-7.13-4.83-11.1-6.41l0,0l-0.28-0.1l0,0
		c-1.75-0.65-3.61-0.9-5.46-0.72c0,0-11.9-10.25-15.36-15.69c-3.46-5.44-20-25.82-20.08-25.91l-0.06-0.93l-0.19-2.96
		c-0.49,0.08-0.98,0.12-1.48,0.13l-0.33-1.03c-0.95-2.89-2.13-5.7-3.52-8.39c0,0,0-3.73,1.05-4.66s-0.43-14.64-0.43-14.64
		s-10.72-26.04-20.33-6.6c0,0-18.16,12.57-2.92,27.21c0,0,6.08,3.07,6.94,5.49c0.57,1.58,2.63,5.96,4.02,8.89
		c0.23,0.48,0.44,0.93,0.62,1.3l-0.17,0.15l0.22,2.44l0.09,0.93c-2.87,1.7-4.82,3.36-4.34,4.66c0.85,2.16,1.43,4.42,1.73,6.73
		c0,0,21.07,27.41,23.8,39.14c0,0,56.54,34.88,75.12,37.38l-3.22,17.44c0,0-1,10.47-0.74,14.2c0.25,3.74-2.23,20.69-2.23,20.69
		s-3.22,24.91-5.95,28.4c-2.73,3.49-2.23,18.44-2.23,18.44c-0.66,7.16-1.9,14.25-3.72,21.18c-2.69,9.47-0.74,21.17-0.74,21.17
		s-9.42,22.43,13.14,7.23c0,0,11.07-0.72,23.83-1.16c0,0.43,0,0.87,0,1.31c0,1.71-0.05,3.55-0.07,5.5
		c-0.17,12.84-0.24,30.54,0.31,43.93c0.99,23.67,7.93,70.52,7.93,70.52v23.53c-0.45,2.21-0.67,4.47-0.66,6.73
		c-0.15,8.3,1.97,16.47,6.11,23.56l1.53,15.54c0,0,4.07,10.35,4.16,16.52c-0.02,0.5-0.08,1.01-0.18,1.5c-0.15,0.79-0.22,1.6-0.2,2.4
		c-0.23,7.13,3.9,24.18,3.9,24.18s0.25,17.2,2.69,18.19c2.12,0.85-2.83,9.91-4.31,12.51c0-0.17-0.06-0.33-0.09-0.49
		c-0.19,0.34-0.31,0.52-0.31,0.52c-0.51,1.39-0.77,2.86-0.77,4.34c-0.29,2.4,0.78,4.75,2.75,6.05c4.71,2.99,7.24,5.48,3.25,6.52
		c-1.47,0.23-2.93,0.54-4.37,0.93c-0.07-0.2-0.14-0.39-0.21-0.58c-1.15,0.49-1.82,1.74-1.63,3.01c-0.11,1.26,0.3,3.09,1.48,5.83
		c3.97,9.22,6.71,12.71,6.71,12.71l1.9-0.22c-0.29,0.75-0.66,1.46-1.1,2.12c-0.72,1.08-1.69,1.97-2.81,2.58
		c-1.03,0.65-2.19,1.06-3.38,1.2c-2.72,0.09-5.28,1.39-7.03,3.55c-2.47,3.32-4.02,7.85,0.9,11.82l17.73,6.36
		c0,0,30.51,4.11,28.87-2.99c-1.64-7.1-2.59-13.33-2.59-13.33s0.34-6.93-2.48-12.6c-0.32-0.65-0.68-1.27-1.08-1.86l1.08-0.13
		c0,0,2.23-15.69,5.21-18.64c0.68-0.69,0.83-1.22,0.67-1.62c0.31-0.86-0.47-1.36-1.46-1.64l-0.22,0.62
		c-0.97-0.22-1.97-0.34-2.96-0.34c0,0-1-8.22,2.23-11.18c0.53-0.69,0.76-1.57,0.63-2.44c0.03-1.13-0.08-2.25-0.33-3.35
		c0,0.06-0.07,0.13-0.12,0.19c-1.62-7.46-7.12-19.32-7.12-19.32s-0.25-7.46,1.73-10.46c1.98-3-0.24-40.63-0.24-40.63
		s0.74-18.18-1.49-26.65c-2.23-8.47,2.69-18.44,2.69-18.44s0-0.2-0.05-0.54l0.06-0.13c0,0-0.11-1.12-0.29-2.86
		c-0.02,0.05-0.05,0.11-0.06,0.17c-0.49-4.81-1.44-13.53-2.14-17.57c-1-5.73,0.24-33.14,0.24-33.14l4.49-11.71l7.93,20.18
		l8.44,26.92c0,0,4.17,5.69,4.27,11.44c0,0.28,0,0.56-0.05,0.84c-0.07,0.6-0.1,1.2-0.1,1.8c-0.15,3.4,0.75,6.76,2.57,9.59
		c0,0,2.23,12.7,5.71,15.95c3.47,3.24,3.46,9.47,3.46,9.47s4.22,18.43,6.2,21.68c1.67,2.73,1.79,10.25,1.74,12.54l0,0
		c0,0.43,0,0.67,0,0.67s0.58,6.59,0.57,12.12c0,0.68,0,1.34-0.06,1.97v-0.14c-0.01,1.51-0.18,3.01-0.51,4.48
		c-0.03,0.08-0.05,0.17-0.07,0.25c0-0.31,0-0.62,0.07-0.93c-0.86,3.76-1.28,7.62-1.24,11.49c-0.12,6.63,0.9,14.48,4.72,19.09
		c6.7,7.98,10.91,6.98,10.91,6.98s-3.23,9.96-7.18,11.96c-0.15,0.08-0.29,0.17-0.42,0.28c0-0.2-0.07-0.38-0.1-0.58
		c-0.83,0.75-1.16,2.09-1.16,3.73c-0.29,4.38,2.37,11.5,4.91,14.77c0.94,0.95,2.09,1.65,3.35,2.03c-0.2,0.14-0.41,0.28-0.63,0.4
		c-0.44,0.25-0.9,0.47-1.36,0.66c-0.64,0.29-1.32,0.48-2.02,0.55c-2.72,0.06-5.29,1.34-7.05,3.5c-2.47,3.31-4.02,7.84,0.9,11.81
		l17.73,6.36C1583.33,862.57,1613.79,866.67,1612.16,859.57z"/>
	<path class="st31" d="M1495.71,871.34l-17.16-6.36c-4.74-3.97-3.23-8.5-0.83-11.82c1.66-2.15,4.14-3.45,6.79-3.55
		c1.16-0.15,2.28-0.56,3.28-1.2c1.08-0.63,2.01-1.51,2.69-2.58c1.26-2.06,1.93-4.45,1.96-6.89c0,0,18.85-5.73,24,0
		c0.92,1.04,1.69,2.21,2.28,3.48c2.69,5.67,2.41,12.6,2.41,12.6s0.96,6.22,2.51,13.33S1495.71,871.34,1495.71,871.34z"/>
	<path class="st31" d="M1579.68,862.56l-17.16-6.36c-4.73-3.97-3.22-8.5-0.83-11.81c1.66-2.15,4.14-3.45,6.79-3.55
		c0.68-0.07,1.34-0.25,1.97-0.55c0.45-0.19,0.89-0.41,1.32-0.66c4.8-2.74,4.68-9.47,4.68-9.47s18.85-5.73,24,0
		c0.69,0.77,1.29,1.63,1.79,2.54c3.23,5.8,2.87,13.53,2.87,13.53s0.96,6.23,2.52,13.33
		C1609.19,866.67,1579.68,862.56,1579.68,862.56z"/>
	<path class="st16" d="M1516.46,838.94c0.92,1.04,1.69,2.21,2.28,3.48l0,0l-28.23,3.4c1.26-2.06,1.93-4.45,1.96-6.89
		C1492.46,838.93,1511.31,833.22,1516.46,838.94z"/>
	<path class="st16" d="M1602.25,832.71v5.49c-4.39,7.51-25.63,5.87-31.8,2.1c0.45-0.19,0.89-0.41,1.32-0.66
		c4.8-2.74,4.68-9.47,4.68-9.47s18.85-5.73,24,0C1601.14,830.94,1601.74,831.79,1602.25,832.71z"/>
	<path class="st32" d="M1605.6,809.05c-1.32,2.38-2.44,4.88-3.36,7.46v19.7c-4.8,8.22-29.76,5.48-33.12,1
		c-3.36-4.48-6.96-16.2-3.12-18.19c3.83-1.99,6.95-11.96,6.95-11.96s-4.08,1-10.56-6.98c-6.48-7.98-4.56-25.67-3.35-29.9
		c1.21-4.23,0-18.44,0-18.44s0.24-9.96-1.68-13.21c-1.92-3.24-5.95-21.68-5.95-21.68s0-6.23-3.37-9.47
		c-3.37-3.24-5.52-15.95-5.52-15.95c-1.96-3.18-2.81-6.96-2.4-10.71c0.72-6.24-4.08-12.96-4.08-12.96l-8.16-26.91l-7.67-20.19
		l-4.32,11.72c0,0-1.2,27.41-0.24,33.14c0.96,5.73,2.4,20.93,2.4,20.93s-4.79,9.96-2.64,18.43c2.15,8.47,1.44,26.66,1.44,26.66
		s2.15,37.62,0.23,40.62c-1.92,2.99-1.68,10.47-1.68,10.47s9.87,21.92,6.72,24.91s-2.16,11.18-2.16,11.18s6.72,0,3.84,2.99
		c-2.88,2.99-5.04,18.64-5.04,18.64l-29.01,3.49c0,0-2.69-3.49-6.5-12.71s0.72-8.22,4.58-9.22c3.86-1,1.42-3.49-3.14-6.52
		c-4.56-3.04-1.92-9.72-1.92-9.72s6.96-12.21,4.56-13.21c-2.4-1-2.64-18.19-2.64-18.19s-4.8-20.43-3.59-25.91
		c1.21-5.48-3.89-18.6-3.89-18.6l-1.68-15.7c-8.64-15.44-5.28-29.65-5.28-29.65v-24.14c0,0-6.72-46.84-7.68-70.51
		c-0.61-15.16-0.44-35.85-0.24-48.76c0.12-7.24,0.24-12.04,0.24-12.04l103.66-11.18c0,0-0.11,4.97,1.88,15.99
		c1.05,5.91,2.69,13.56,5.31,23.13c7.44,27.41,2.88,47.84,2.88,47.84l-0.96,34.62c0,0,9.12,23.18,7.18,31.15
		c-1.15,4.73-1.79,9.58-1.92,14.46c0,0,20.42,50.57,18.25,65.3c-2.16,14.73,6.72,37.88,6.72,37.88S1608,804.55,1605.6,809.05z"/>
	<path class="st33" d="M1546.33,679.22l31.56-4.36C1577.89,674.86,1560.01,693.8,1546.33,679.22z"/>
	<path class="st16" d="M1573.33,642.84c0,0,1.08,11.58-5.76,15.95C1567.57,658.79,1579.81,656.8,1573.33,642.84z"/>
	<path class="st16" d="M1571.39,605.97c0,0-26.38,22.54-35.97,20.68C1525.83,624.78,1571.39,605.97,1571.39,605.97z"/>
	<path class="st16" d="M1507.22,689.82c0,0-20.03,4.73-20.64,13.05C1485.97,711.19,1507.22,689.82,1507.22,689.82z"/>
	<path class="st33" d="M1511.63,793.71c0,0-28.32,5.49-20.27,9.23c8.04,3.74,21.23,6.72,21.23,6.72S1521.71,810.16,1511.63,793.71z"
		/>
	<g class="st34">
		<path d="M1485.64,808.87c-1.44-0.93-2.4-2.5-2.59-4.26l-0.29,0.52c0,0-2.64,6.73,1.92,9.72l1.48,1.01
			c0.83-0.16,1.74-0.28,2.62-0.51C1492.64,814.35,1490.2,811.86,1485.64,808.87z"/>
		<path d="M1522.11,806.87c0.77-0.75,0.74-2.66,0.27-5.12c-1.27,1.93-1.58,4.93-1.61,7.21
			C1521.07,808.18,1521.53,807.47,1522.11,806.87z"/>
		<path d="M1517.75,682.91c-1.05,2.95-1.69,6.03-1.91,9.16c0.54-2.16,1.27-4.27,2.19-6.29
			C1518.03,685.78,1517.92,684.65,1517.75,682.91z"/>
		<path d="M1582.57,669.83c0.2-0.89,0.28-1.81,0.26-2.72c-0.35,1.86-0.6,3.59-0.78,5.1
			C1582.21,671.43,1582.38,670.64,1582.57,669.83z"/>
		<path d="M1517.07,771.5c0.39-0.62,0.61-2.67,0.72-5.54c-0.9,1.82-1.27,4.75-1.38,6.99
			C1516.57,772.44,1516.79,771.95,1517.07,771.5z"/>
		<path d="M1523.02,818.49c-1.97,5.59-3.31,15.3-3.31,15.3l-29.02,3.49c0,0-2.69-3.49-6.5-12.7c-0.33-0.81-0.6-1.54-0.82-2.2
			c-1.74,0.83-2.42,2.7-0.14,8.17c3.84,9.22,6.5,12.71,6.5,12.71l29.02-3.51c0,0,2.16-15.69,5.04-18.64
			C1525.21,819.61,1524.3,818.86,1523.02,818.49z"/>
		<path d="M1484.68,773.73c0,0,0.24,17.2,2.64,18.19l0,0c1.21-2.84,2.02-5.59,0.9-5.99c-2.4-0.99-2.64-18.18-2.64-18.18
			s-4.8-20.44-3.59-25.92c1.21-5.48-3.84-18.69-3.84-18.69l-1.68-15.69c-8.64-15.45-5.28-29.66-5.28-29.66v-24.16
			c0,0-6.72-46.85-7.68-70.52c-0.61-15.15-0.44-35.84-0.24-48.75c0-2.34,0.08-4.41,0.12-6.15l-0.83,0.08c0,0-0.13,4.8-0.24,12.04
			c-0.2,12.91-0.37,33.55,0.24,48.76c0.96,23.67,7.68,70.51,7.68,70.51v24.18c0,0-3.37,14.2,5.28,29.65l1.68,15.7
			c0,0,5.03,13.21,3.84,18.64S1484.68,773.73,1484.68,773.73z"/>
		<path d="M1570.1,830.55c-2.36-3.54-3.93-7.59-4.6-11.84c-2.96,2.8,0.44,13.56,3.59,17.82c3.36,4.48,28.32,7.22,33.12-1v-4.74
			C1595.77,837.47,1573.28,834.79,1570.1,830.55z"/>
		<path d="M1606.57,802.39c-1.32,2.38-2.45,4.88-3.37,7.46v3.49c0.55-1.28,1.33-2.98,2.41-4.99c0.69-1.3,0.98-3.58,1.05-6.18
			C1606.63,802.26,1606.6,802.34,1606.57,802.39z"/>
		<path d="M1571.57,806.32c0.92-1.91,1.71-3.89,2.37-5.92c0,0-4.08,1-10.56-6.97c-4.71-5.81-4.98-16.78-4.31-23.92
			c-1.21,4.24-3.12,21.93,3.35,29.9C1566.67,804.62,1569.86,805.99,1571.57,806.32z"/>
		<path d="M1559.06,751.06c0.42,4.91,0.58,9.84,0.48,14.77c0.12-0.78,0.29-1.55,0.49-2.31c1.21-4.23,0-18.43,0-18.43
			s0.24-9.97-1.68-13.21c-1.92-3.23-6.04-21.68-6.04-21.68s0-6.24-3.36-9.47c-3.36-3.23-5.52-15.95-5.52-15.95
			c-1.96-3.18-2.81-6.97-2.4-10.72c0.72-6.23-4.08-12.95-4.08-12.95l-8.16-26.92l-7.67-20.18l-4.33,11.71c0,0-0.06,1.47-0.14,3.78
			l3.51-9.52l7.67,20.19l8.16,26.91c0,0,4.8,6.73,4.08,12.96c-0.41,3.75,0.43,7.53,2.4,10.71c0,0,2.16,12.71,5.52,15.95
			c3.36,3.23,3.42,9.47,3.42,9.47s4.08,18.44,6,21.68S1559.06,751.06,1559.06,751.06z"/>
	</g>
	<path class="st35" d="M1579.24,292.67l-1.79,9.1l0.11,4.04l0.07,2.99l-10.05,1.03l-1.12-2.15l0,0c-2.07-3.9-6.37-11.83-7.77-13.05
		c-1.85-1.62-5.15-26.92-1.18-25.42c2.42,0.97,4.4,2.84,5.57,5.24C1563.06,274.45,1582.75,276.82,1579.24,292.67z"/>
	<path class="st16" d="M1577.58,308.75l-10.02,1.07l-1.12-2.15l0,0c1.44-1.54,5.54-5.03,11.06-1.86L1577.58,308.75z"/>
	<path class="st36" d="M1580.13,313.68l-13.22,3.22l-0.28-2.05l-0.74-5.49c0,0,5.21-7.23,12.78-1.82l0.66,2.8L1580.13,313.68z"/>
	<path class="st35" d="M1366.25,293.6l-14.07,7.87c0,0-0.54-1.16-1.27-2.8c-1.35-2.92-3.34-7.32-3.89-8.89
		c-0.83-2.42-6.72-5.48-6.72-5.48c-14.75-14.64,2.83-27.22,2.83-27.22c9.3-19.43,19.67,6.6,19.67,6.6s1.44,13.72,0.42,14.64
		s-1.01,4.66-1.01,4.66c1.35,2.7,2.48,5.5,3.39,8.39C1366.01,292.76,1366.25,293.6,1366.25,293.6z"/>
	<path class="st16" d="M1366.25,293.6l-14.07,7.87c0,0-0.54-1.16-1.27-2.8c1.98-1.72,9.04-7.66,11.35-7.39
		c1.11,0.14,2.23,0.17,3.34,0.08C1366.01,292.76,1366.25,293.6,1366.25,293.6z"/>
	<path class="st36" d="M1367.69,298.04l-15.84,8.11l-0.31-3.54l-0.26-2.48c0,0,9.17-8.16,11.88-7.85c1.37,0.21,2.77,0.21,4.14,0
		l0.18,2.96L1367.69,298.04z"/>
	<path class="st35" d="M1540.81,353.05c0,0-69.05,8.09-56.15,3.73c8.97-3.04,12.56-8.98,13.3-15.55c0.61-5.51-0.75-11.46-2.57-16.59
		c-1.63-4.52-3.7-8.86-6.17-12.95c0,0,52.79-30.16,42.18-2.8c-1.63,4.15-2.63,8.53-2.99,12.99c-0.32,4.43,0.14,8.89,1.36,13.15
		C1531.77,341.98,1535.6,348.22,1540.81,353.05z"/>
	<path class="st16" d="M1531.45,308.94c-1.63,4.15-2.64,8.53-2.99,12.99c-4.97,4.33-10.43,4.05-17.43,4.05
		c-5.38,0-11.34,1.35-15.63-1.34c-1.63-4.52-3.7-8.86-6.17-12.95C1489.23,311.69,1542.02,281.53,1531.45,308.94z"/>
	<ellipse class="st35" cx="1510.1" cy="298.23" rx="28.56" ry="29.66"/>
	<path class="st16" d="M1540.81,353.05c0,0-69.05,8.09-56.15,3.73c8.97-3.04,12.56-8.98,13.3-15.55c3.44-3.86,10.35-6.65,14.78-8.14
		c4.07-1.42,8.46-1.5,12.56-0.21c1.61,0.5,3.14,1.24,4.55,2.2C1531.85,342,1535.64,348.22,1540.81,353.05z"/>
	<path class="st16" d="M1580.13,313.68l-13.22,3.22l-0.28-2.05c3.72-4.94,8.42-5.54,12.69-4.5L1580.13,313.68z"/>
	<path class="st16" d="M1367.69,298.04l-15.84,8.11l-0.31-3.54c5.66-3.47,15.15-7.04,15.98-7.34L1367.69,298.04z"/>
	<path class="st16" d="M1568.13,533.75c-26.74,4.38-64.81,10.09-70.85,8.18c-5.01-1.58-21.01-1.42-34.94-0.93
		c0.12-7.24,0.24-12.04,0.24-12.04l103.66-11.18C1566.25,517.77,1566.14,522.72,1568.13,533.75z"/>
	<path class="st37" d="M1594.81,527.22c0,0-88.06,15.7-97.52,12.71s-57.97,0.25-57.97,0.25c-21.84,15.19-12.72-7.23-12.72-7.23
		s-1.92-11.71,0.72-21.17c1.76-6.95,2.96-14.03,3.59-21.18c0,0-0.48-14.91,2.16-18.43s5.75-28.41,5.75-28.41s2.41-16.94,2.16-20.68
		c-0.24-3.74,0.72-14.2,0.72-14.2l3.13-17.41c-17.95-2.49-72.7-37.37-72.7-37.37c-2.64-11.72-23.04-39.14-23.04-39.14
		c-0.3-2.3-0.86-4.56-1.68-6.73c-1.44-3.99,20.16-11.96,20.16-11.96s16.07,20.43,19.43,25.91c3.36,5.48,14.88,15.7,14.88,15.7
		c1.79-0.19,3.6,0.05,5.28,0.72c0.1,0,0.18,0.06,0.28,0.08c0.1,0.03,0,0,0,0c5.38,1.95,10.77,6.4,10.77,6.4
		c8.64-0.49,14.64,5.73,14.64,5.73s9.87-1.49,11.51,0.25c1.64,1.74,10.08,0,10.08,0s8.4-18.44,13.92-13.05
		c5.52,5.4,28.93,5.11,28.93,5.11c3.12-4.31,10.72-7.39,15.46-8.98c4.07-1.42,8.46-1.5,12.56-0.21c1.77,0.52,3.44,1.36,4.94,2.48
		l14.21,14.45c0,0,4.08-5.48,3.59-6.73c-0.49-1.25,4.8-2.24,4.8-2.24s6.96-2.25,9.59-2.99c2.64-0.75,5.06,2.22,5.28,2.48
		c-0.09-0.32-1.89-6.35-1.19-10.95c0.7-4.6-2.88-8.98-2.88-8.98c8.4-21.44,27.36-3.49,27.36-3.49s2.16,11.72,0.24,16.2
		c-1.92,4.48,1.92,13.98,1.44,16.44c-0.48,2.46,0.96,6.73,0.96,11.46s-2.4,13.71-3.84,17.71c-1.44,4-13,12.91-13,12.91
		s-0.73,14.2-5.76,22.42c-5.03,8.22-1.92,36.35-1.92,36.35s4.8,21.93,10.77,28.89C1585.87,487.3,1594.81,527.22,1594.81,527.22z"/>
	<path class="st16" d="M1466.43,363.27c0,0-2.64-8.22-5.03-8.98c-2.39-0.91-4.72-1.99-6.96-3.23l1.54-3.07c0,0,9.02,2.56,10.46,5.3
		C1467.87,356.03,1466.43,363.27,1466.43,363.27z"/>
	<path class="st16" d="M1418.2,345.07c-0.48,2.5-21.84,4.73-21.84,4.73l10.77-11.24l0,0l0.27,0.09l0,0
		C1412.86,340.62,1418.2,345.07,1418.2,345.07z"/>
	<ellipse class="st32" cx="1356.41" cy="310.87" rx="1.92" ry="1.99"/>
	<ellipse class="st32" cx="1358.87" cy="314.86" rx="1.92" ry="1.99"/>
	<ellipse class="st32" cx="1361.27" cy="318.54" rx="1.92" ry="1.99"/>
	<ellipse class="st32" cx="1363.79" cy="322.52" rx="1.92" ry="1.99"/>
	<ellipse class="st32" cx="1589.97" cy="322.31" rx="1.56" ry="1.62"/>
	<ellipse class="st32" cx="1590.21" cy="325.98" rx="1.56" ry="1.62"/>
	<ellipse class="st32" cx="1590.43" cy="329.66" rx="1.56" ry="1.62"/>
	<path class="st16" d="M1466.55,430.79c-0.22-0.29,53.85,70.64,95.86,29.66C1562.41,460.43,1496.07,469.79,1466.55,430.79z"/>
	<path class="st16" d="M1435.48,467.67c0,0,32.36,0.93,35.76,10.59v10.06c-1.87,1.09-4.15,1.09-6.02,0
		c-3.27-1.86-22.83-12.12-29.73-7.19V467.67z"/>
	<path class="st37" d="M1436.08,467.67c0,0,30.95,0.88,34.19,10.09v9.59c-1.79,1.04-3.97,1.04-5.76,0
		c-3.11-1.74-21.84-11.58-28.43-6.85V467.67z"/>
	<path class="st16" d="M1453.15,394.68c0,0,3.71,9.9,12.56,22.37c5.48,7.63,12.11,14.28,19.65,19.7
		C1485.36,436.75,1453.69,399.31,1453.15,394.68z"/>
	<path class="st16" d="M1442.56,355.62c0,0,5.38,24.23,19.31,32.43L1442.56,355.62z"/>
	<path class="st16" d="M1434.27,358.07c-0.13-0.45-4.79,19.14,17.95,29.98C1452.21,388.06,1442.56,384.66,1434.27,358.07z"/>
	<path class="st16" d="M1575.65,341.84c-0.36,0,11.22,7.65,14.36,11.18C1590.01,353.05,1582.45,341.34,1575.65,341.84z"/>
	<path class="st31" d="M1502.38,325.11c0.4,1.53,0.9,3.21,2.23,4.01c0.84,0.42,1.76,0.63,2.69,0.62c8.71,0.56,17.76,0.93,25.82-2.53
		c1.5-0.55,2.85-1.48,3.92-2.7c1.43-1.82,1.71-4.29,2.28-6.52c1.13-4.43,3.54-8.39,5.28-12.59c2.92-7.13,3.9-14.95,2.83-22.61
		c-0.22-2.35-0.97-4.62-2.18-6.63c-2.32-3.42-6.52-4.81-9.58-7.53s-5.02-6.89-8.58-8.94c-3.21-1.86-7.18-1.63-10.77-1
		c-7.12,1.26-13.94,3.92-20.1,7.84c-2.06,1.32-4.33,2.84-6.72,2.38c-2.08-0.41-3.59-2.23-4.94-3.93c-1.7,4.06-2.44,8.5-2.15,12.92
		c0.09,0.65,0.07,1.31-0.06,1.95c-0.3,0.77-0.75,1.47-1.33,2.05c-2.15,2.59-3.49,6.69-1.36,9.32c0.9,1.14,2.34,1.76,3.24,2.92
		c1.62,2.09,1.07,5.08,1.03,7.74c-0.1,0.93,0.13,1.86,0.63,2.63c0.81,1.02,2.28,1.1,3.53,0.88c1.25-0.22,2.52-0.66,3.75-0.37
		c1.34,0.46,2.49,1.38,3.27,2.61C1499.13,312.88,1500.7,318.76,1502.38,325.11z"/>
	<g class="st38">
		<path d="M1538.01,322.23c-1.07,1.22-2.42,2.15-3.92,2.7c-8.08,3.49-17.11,3.08-25.82,2.52c-0.93,0.02-1.85-0.19-2.69-0.62
			c-1.32-0.81-1.79-2.48-2.23-4.01c-1.69-6.39-3.26-12.23-7.28-17.54c-0.78-1.23-1.93-2.15-3.27-2.61c-1.23-0.29-2.5,0.15-3.75,0.37
			c-1.25,0.22-2.69,0.14-3.53-0.88c-0.5-0.77-0.72-1.7-0.63-2.63c0-2.67,0.57-5.67-1.03-7.74c-0.9-1.16-2.32-1.78-3.25-2.92
			c-1.33-1.65-1.29-3.88-0.55-5.96c-1.53,2.52-2.19,5.75-0.4,7.94c0.9,1.15,2.34,1.76,3.24,2.93c1.61,2.08,1.07,5.08,1.03,7.74
			c-0.1,0.93,0.13,1.86,0.63,2.63c0.81,1.02,2.28,1.1,3.53,0.88c1.25-0.22,2.52-0.66,3.75-0.37c1.34,0.46,2.49,1.38,3.27,2.61
			c4.02,5.31,5.59,11.18,7.28,17.54c0.4,1.52,0.9,3.2,2.23,4.01c0.84,0.42,1.76,0.63,2.69,0.62c8.71,0.57,17.76,0.93,25.82-2.52
			c1.5-0.55,2.85-1.48,3.92-2.7c0.54-0.72,0.96-1.53,1.24-2.4C1538.19,321.96,1538.1,322.1,1538.01,322.23z"/>
		<path d="M1482.44,279.02c0.4-0.43,0.7-0.94,0.9-1.5c0.13-0.64,0.15-1.3,0.06-1.95c-0.24-3.63,0.22-7.28,1.34-10.73l-0.15-0.2
			c-1.71,4.06-2.44,8.5-2.15,12.92C1482.49,278.05,1482.49,278.54,1482.44,279.02z"/>
	</g>
	<path class="st16" d="M1497.29,343.08c0,0,35.67,4.91,38.88-0.65"/>
	<path class="st16" d="M1566.67,327.76c0,0,19.82,0,24.18,7.74"/>
	<path class="st13" d="M1303.87,157.12c4.19,5.51,6.72,29.37,6.72,29.37s-21.76-8.11-25.95-13.62c-4.19-5.51-3.28-13.51,2.03-17.86
		C1291.99,150.67,1299.68,151.61,1303.87,157.12L1303.87,157.12z"/>
	<path class="st13" d="M1340.74,180.46c-1.26,6.9-16.96,24.52-16.96,24.52s-8.37-22.37-7.09-29.28c1.26-6.9,7.67-11.42,14.32-10.11
		C1337.65,166.91,1342,173.56,1340.74,180.46z"/>
	<path class="st13" d="M1305.01,193.35c5.66,0.71,21.14,13.35,21.14,13.35s-17.35,8.51-23.02,7.78c-5.66-0.71-9.83-6.02-9.31-11.86
		C1294.34,196.79,1299.35,192.64,1305.01,193.35z"/>
	<path class="st13" d="M1325.37,224.44c5.18,4.51,12.32,27.35,12.32,27.35s-22.89-3.35-28.06-7.88c-5.18-4.52-5.85-12.53-1.5-17.91
		C1312.47,220.62,1320.19,219.92,1325.37,224.44z"/>
</g>
<g id="Layer_10" class="st0">
	
		<radialGradient id="SVGID_10_" cx="958.5" cy="27.5" r="678.4044" gradientTransform="matrix(1 0 0 1.8633 0 0)" gradientUnits="userSpaceOnUse">
		<stop  offset="0.1292" style="stop-color:#F65234;stop-opacity:0.4"/>
		<stop  offset="0.1799" style="stop-color:#EF5E47;stop-opacity:0.4357"/>
		<stop  offset="0.31" style="stop-color:#E07A72;stop-opacity:0.5273"/>
		<stop  offset="0.4423" style="stop-color:#D39195;stop-opacity:0.6203"/>
		<stop  offset="0.5751" style="stop-color:#CAA3B1;stop-opacity:0.7138"/>
		<stop  offset="0.7088" style="stop-color:#C3B0C4;stop-opacity:0.8078"/>
		<stop  offset="0.8437" style="stop-color:#BEB7D0;stop-opacity:0.9027"/>
		<stop  offset="0.982" style="stop-color:#BDBAD4"/>
	</radialGradient>
	<rect class="st39" width="1917" height="55"/>
</g>
<g id="Layer_11" class="st0">
	<circle class="st40" cx="1708.05" cy="417.25" r="22.82"/>
	<circle class="st40" cx="1226.86" cy="281.98" r="32.53"/>
	<circle class="st40" cx="1166.65" cy="297.52" r="22.82"/>
	<path class="st41" d="M1727.16,672.47c-18.03,19.74-18.69,48.5-18.69,48.5s28.58-3.25,46.62-22.99
		c18.03-19.74,18.69-48.5,18.69-48.5S1745.2,652.72,1727.16,672.47z"/>
	<path class="st42" d="M1737.35,678.15c-5.46,26.18-28.39,43.54-28.39,43.54s-14.09-25.08-8.63-51.26s28.39-43.54,28.39-43.54
		S1742.81,651.97,1737.35,678.15z"/>
	<polygon class="st41" points="1713.93,408.05 1713.93,720.09 1609.91,806.01 1077.78,806.01 1077.78,478.9 1233.05,408.05 	"/>
	<polygon class="st43" points="1713.93,408.05 1713.93,409.3 1676.59,434.29 1609.91,478.9 1077.78,478.9 1233.05,408.05 	"/>
	<polygon class="st43" points="1713.93,408.05 1713.93,720.09 1609.91,806.01 1610.67,478.14 1676.59,434.29 1713.33,408.05 	"/>
	<polygon class="st44" points="1573.74,451.01 1249.63,451.01 1273.75,437.44 1584.29,437.44 	"/>
	<path class="st44" d="M1853.46,822.98c0,0,6.28,26.27,0.57,27.42c-5.71,1.14-33.7,0.77-40.55,1.92
		c-6.85,1.14-21.13-0.77-21.13-5.91s14.85-8.57,14.85-8.57s21.13-11.42,21.71-12S1853.46,822.98,1853.46,822.98z"/>
	<path class="st45" d="M1848.32,668.19c0,0-1.71,19.42-1.71,21.13s1.71,28.56,0,29.7c-1.71,1.14,1.14,9.14,1.14,12
		c0,2.86,9.14,50.26,6.85,68.54c-2.28,18.28,3.43,16.56,1.71,18.28c-1.71,1.71-1.71,1.71-1.71,5.14c0,3.43-18.28,6.28-18.28,6.28
		l-19.99-126.23l10.28-37.7L1848.32,668.19z"/>
	<path class="st43" d="M1848.32,668.19c0,0-1.71,19.42-1.71,21.13s1.71,28.56,0,29.7c-1.71,1.14,1.14,9.14,1.14,12
		c0,2.86,9.14,50.26,6.85,68.54c-2.28,18.28,3.43,16.56,1.71,18.28c-1.71,1.71-1.71,1.71-1.71,5.14c0,3.43-18.28,6.28-18.28,6.28
		l-19.99-126.23l10.28-37.7L1848.32,668.19z"/>
	<path class="st44" d="M1845.46,830.98c0,0,5.71,20.56,0,21.71c-5.71,1.14-33.7-1.31-40.55-0.17c-6.85,1.14-21.13,1.31-21.13-3.83
		s14.85-8.57,14.85-8.57s21.13-11.42,21.71-11.99C1820.9,827.55,1845.46,830.98,1845.46,830.98z"/>
	<path class="st45" d="M1853.46,645.34c0,0,6.85,16.56-1.14,25.13c-8,8.57-17.14,25.7-17.14,26.85c0,1.14,15.99,114.81,13.71,122.24
		c-2.28,7.43-1.71,12-1.14,13.14c0.57,1.14-5.71,7.43-12.57,7.43c-6.85,0-17.14-5.14-18.28-9.71c-1.14-4.57,1.71-43.98,1.14-51.41
		c-0.57-7.43-3.43-18.28-4.57-20.56c-1.14-2.28-7.43-4.57-8.57-11.42c-1.14-6.85-10.28-94.25-7.43-97.1
		C1800.34,647.06,1853.46,645.34,1853.46,645.34z"/>
	<circle class="st46" cx="1810.05" cy="494.55" r="19.42"/>
	<path class="st46" d="M1822.04,504.26c0,0-4,21.13-1.14,23.42c2.86,2.28-21.71,5.71-21.71,5.71s-2.86-27.99-3.43-30.84
		S1822.04,504.26,1822.04,504.26z"/>
	<path class="st42" d="M1795.77,531.68c0,0,6.85-19.99,34.84-14.28c0,0,5.14,1.71,3.43,3.43s-3.43,1.71-1.14,3.43
		c2.28,1.71,5.14,0,3.43,1.71c-1.71,1.71,15.42,11.99,14.28,31.42s4,46.84,0,51.41c-4,4.57,2.86,24.56,1.71,28.56
		c-1.14,4,6.85,9.14,3.43,10.85c-3.43,1.71-65.12,11.99-66.83,0c-1.71-12-0.57-3.43-2.28-6.28c-1.71-2.86-2.28-8-1.14-14.28
		c1.14-6.28,4-21.71,2.86-27.42c-1.14-5.71,0-53.69,3.43-59.4C1795.2,535.1,1795.77,531.68,1795.77,531.68z"/>
	<path class="st46" d="M1807.76,671.05c0,0,8.57,32.56-2.28,32.56s-10.28-33.7-10.28-33.7L1807.76,671.05z"/>
	<path class="st44" d="M1801.48,494.55c0,1.66,2.4,2.71,6.12,2.95h0.01c1.58,0.09,3.16,0.06,4.73-0.09
		c2.38-0.22,3.36,2.02,3.76,4.96c0.66,4.86-0.26,11.68,0.81,12.74c1.47,1.47,12.22-0.01,15.58-3.35c0.52-0.47,0.87-1.1,0.99-1.79
		c0.35-2.04,1.36-3.91,2.87-5.33c1.98-2.16,4.8-4.56,7.99-8.38c5.71-6.85,0-7.43-1.71-12.57c-1.71-5.14-4.57-6.85-4.57-10.28
		c0-3.43-13.14-6.28-23.99-5.71c-10.85,0.57-8.57,14.28-8.57,14.28s-0.65,1.66-1.42,3.79c-1.04,2.68-1.89,5.43-2.54,8.24
		C1801.5,494.19,1801.48,494.37,1801.48,494.55z"/>
	<path class="st43" d="M1803.76,540.24c0,0,19.42-1.14,21.13,27.42c1.71,28.56,1.14,55.41,1.14,55.98s-8,54.83-15.42,54.83
		s-13.14-1.14-14.85-4c-1.71-2.86,4.57-43.98,4.57-43.98s2.86-43.41-1.71-57.12S1793.48,541.96,1803.76,540.24z"/>
	<path class="st42" d="M1800.91,537.39c0,0,19.42-1.14,21.13,27.42c1.71,28.56,1.14,55.41,1.14,55.98s-8,54.83-15.42,54.83
		c-7.43,0-13.14-1.14-14.85-4c-1.71-2.86,4.57-43.98,4.57-43.98s2.86-43.41-1.71-57.12C1791.2,556.81,1790.63,539.1,1800.91,537.39z
		"/>
	<path class="st47" d="M1478.87,258.18c0,0-8.46-23.98-14.58-16.46s9.4,20.22,9.4,20.22L1478.87,258.18z"/>
	<path class="st45" d="M1518.84,234.67l-5.09,1.89c0,0-2.43,10.81-1.49,12.69c0.94,1.88,1.41,0.47,0,4.23s-5.64,13.64-6.11,15.05
		c-0.47,1.41-27.27-8.93-27.27-14.11c0,0-5.64,6.58-8.46,7.99c0,0,31.03,22.57,35.26,25.39c4.23,2.82,6.58,1.41,10.34-1.88
		c3.76-3.29,19.75-30.56,19.75-30.56L1518.84,234.67z"/>
	<path class="st44" d="M1505.2,401.59c0,0,0.47,5.17,1.41,5.64s7.99,12.23,0,14.58s-12.7,1.41-14.58,2.35
		c-1.88,0.94-34.79,2.82-35.26-2.35s15.99-6.11,15.99-6.11s15.05-9.87,17.4-15.05C1492.51,395.48,1505.2,401.59,1505.2,401.59z"/>
	<path class="st44" d="M1600.65,411c0,0,11.28,19.28,8.46,21.63c-2.82,2.35-30.3,10.92-34.32,11.28c-5.17,0.47-8.93-3.76-4.7-6.11
		c4.23-2.35,13.17-12.23,13.17-15.52v-8.46L1600.65,411z"/>
	<path class="st44" d="M1611.47,284.98c0,0,9.87,12.23-5.64,31.97l-25.86,32.91c0,0,15.99,25.39,16.46,38.56
		c0.47,13.17,3.76,10.34,4.7,15.99c0.94,5.64,5.17,2.82,1.88,7.05c-3.29,4.23-15.52,7.99-19.28,4.7c-2.62-2.4-4.01-5.86-3.76-9.4
		c0-1.88-6.58-12.7-7.05-15.99s-17.87-30.09-17.87-30.09s-5.64-15.99,0.94-24.92c6.58-8.93,10.93-21.6,10.93-21.6
		s-19.4,23.49-33.03,29.13c0,0-5.17,0.94-4.23,3.29s0,3.76-1.41,6.11c-1.41,2.35-11.28,29.62-14.58,36.68s-1.88,11.28-5.64,13.64
		s-20.69,0.47-20.69-1.88s2.35-8.46,3.76-11.75c1.41-3.29,12.7-41.38,11.75-47.96s0.47-15.52,7.52-19.28s42.79-34.32,44.67-34.32
		C1556.93,287.81,1611.47,284.98,1611.47,284.98z"/>
	<circle class="st47" cx="1516.96" cy="191.41" r="19.75"/>
	<path class="st47" d="M1532.95,193.3c0,0,6.11,10.81,13.64,12.23s-19.75,23.04-19.75,23.04s-6.58-20.69-12.23-21.63
		C1508.97,205.99,1532.95,193.3,1532.95,193.3z"/>
	<path class="st45" d="M1513.67,237.49c0,6.11,18.34,23.51,18.34,23.51l17.4,14.58c0,0,0.47,5.17,2.35,5.64
		c1.88,0.47,4.23,0.47,2.35,3.29c-1.88,2.82-6.58,8.93-2.35,9.87c1.28,0.19,2.56,0.32,3.85,0.37c1.13,0.07,2.45,0.13,3.95,0.18
		c3.48,0.12,7.83,0.2,12.55,0.17c1.34,0,2.7-0.02,4.09-0.05c17.78-0.35,38.37-2.4,36.69-9.14c-2.82-11.28-0.94-15.05-7.05-21.16
		c-6.11-6.11-15.99-27.27-15.99-27.27s-19.75-33.38-36.21-33.38l-3.42-0.9c-3.26-0.86-6.7,0.46-8.54,3.28
		c-3.3,5.03-8.51,12.58-11.55,15.01c-4.7,3.76-5.44,1.06-5.44,1.06S1513.67,231.38,1513.67,237.49z"/>
	<path class="st47" d="M1555.52,308.96c0,0-13.64,21.16-5.17,24.92c8.46,3.76,13.17-22.1,13.17-22.1L1555.52,308.96z"/>
	<path class="st44" d="M1529.87,189.18c-0.76-0.1-1-1.05-1.13-1.81c-0.68-4.03-3.69-7.86-7.73-8.51c-1.54-0.21-3.11-0.08-4.6,0.37
		c-2.14,0.59-4.14,1.57-5.91,2.91c-0.86,0.79-1.86,1.42-2.95,1.85c-0.74,0.22-3.89,1.62-4.62,1.85c-1.62,0.52-2.95,2.21-4.62,1.88
		c-1.59-0.32-2.2-2.24-2.45-3.85c-0.58-3.65,1.51-9.11,3.59-12.17c1.58-2.32,4.25-3.66,6.92-4.53c3.13-0.95,6.34-1.59,9.6-1.91
		c4.39-0.52,8.94-0.79,13.15,0.56c4.21,1.36,8.04,4.68,8.83,9.03c0.16,0.91,0.19,1.84,0.4,2.73c0.49,2.19,1.94,4.04,2.79,6.12
		c1.24,3.09,1.1,6.56-0.36,9.55c-1.17,2.36-3.21,4.62-2.77,7.22l-3.63-2.86c-1.08-0.61-1.59-1.9-1.21-3.08l0.53-4.54
		c0.18-0.82,0.1-1.68-0.24-2.46C1531.83,184.74,1531.13,189.34,1529.87,189.18z"/>
	<path class="st43" d="M1563.98,276.52l-4.43,18.42c4.47,0.16,10.38,0.24,16.64,0.12c1.58-4.74,3.09-9.68,4.25-14.31
		c4.23-16.93-2.82-42.79-6.58-55.01s-13.17-15.52-13.17-15.52c-3.86,1.36-7.5,3.26-10.81,5.64
		C1543.76,220.1,1563.98,276.52,1563.98,276.52z"/>
	<path class="st43" d="M1560.22,275.58l-4.61,19.17c1.13,0.07,2.45,0.13,3.95,0.18c3.48,0.12,7.83,0.2,12.55,0.17
		c1.7-5.04,3.34-10.35,4.57-15.3c4.23-16.93-2.82-42.79-6.58-55.01s-11.99,1.18-11.99,1.18s3.29-7.99-2.82-3.76
		C1549.17,226.44,1560.22,275.58,1560.22,275.58z"/>
	<path class="st45" d="M1558.81,209.28c0,0,9.4,3.29,13.17,15.52s10.81,38.09,6.58,55.01c-4.23,16.93-13.17,38.09-13.17,38.09
		s-8.93-6.58-12.23-5.17l8.93-37.15c0,0-20.22-56.42-14.11-60.66C1551.31,212.54,1554.95,210.64,1558.81,209.28z"/>
	<polygon class="st48" points="1565.82,445.13 1435.73,174.04 1218.21,278.43 1298.21,445.13 	"/>
	
		<rect x="1271.59" y="307.78" transform="matrix(0.9016 -0.4326 0.4326 0.9016 -3.4044 608.5516)" class="st41" width="128.15" height="7.95"/>
	
		<rect x="1302.18" y="371.52" transform="matrix(0.9016 -0.4326 0.4326 0.9016 -27.9708 628.0599)" class="st41" width="128.15" height="7.95"/>
	
		<rect x="1419.94" y="248.26" transform="matrix(0.9016 -0.4326 0.4326 0.9016 27.0456 647.2122)" class="st41" width="31.82" height="31.82"/>
	
		<rect x="1450.53" y="312" transform="matrix(0.9016 -0.4326 0.4326 0.9016 2.4791 666.7203)" class="st41" width="31.82" height="31.82"/>
	<polygon class="st49" points="1445.28,223.08 1433.47,256.69 1417.54,251.09 1415.37,257.29 1437.47,265.06 1451.48,225.26 	"/>
	<polygon class="st49" points="1475.87,286.82 1464.06,320.43 1448.13,314.83 1445.95,321.03 1468.06,328.8 1482.07,289 	"/>
	<g id="b6a4aa65-5bff-4dd4-a595-827386906092" class="st3">
		
			<rect x="909.79" y="691.42" transform="matrix(0.9779 -0.2089 0.2089 0.9779 -129.9768 212.2455)" class="st50" width="60.1" height="60.1"/>
		<path id="ac286760-ef31-4470-8aba-995faff60c3b" class="st51" d="M973.87,670.1c0,0-21.59,15.42-14.39,21.59
			c7.2,6.17,21.59-18.5,21.59-18.5L973.87,670.1z"/>
		<path id="ad0ee0d5-d520-47bd-bca9-706ef112ee3c" class="st51" d="M1073.58,693.75c0,0-4.11,51.4-5.14,58.59
			s-2.06,71.96-4.11,79.15c-2.06,7.2-4.11,24.67-4.11,24.67h-12.34c0,0,1.03-31.87-2.06-44.2c-3.08-12.34-2.06-46.26-2.06-46.26
			s-6.17-60.65-3.08-68.87C1043.77,688.61,1073.58,693.75,1073.58,693.75z"/>
		<path id="a2d865fc-f989-4a0f-bdfe-5d1a04b5cb09" class="st52" d="M1057.14,853.08c0,0,5.14,3.08,5.14,5.14c0,2.06-1.03,7.2,0,9.25
			c1.03,2.06,8.22,10.28,4.11,12.34c-4.11,2.06-22.62,0-22.62,0s1.03-14.39,2.06-15.42c1.03-1.03-1.03-11.31-1.03-11.31H1057.14z"/>
		<path id="a5afd73e-dc2f-49f8-bb76-01b6bc8ff4ec" class="st51" d="M995,692.49c0,0-1.31,51.55-1.04,58.81
			c0.27,7.26-5.51,71.78-4.22,79.15c1.29,7.37,1.5,24.97,1.5,24.97l12.27,1.29c0,0,2.32-31.8,6.68-43.74
			c4.36-11.94,6.9-45.79,6.9-45.79s12.5-59.67,10.3-68.17C1025.19,690.5,995,692.49,995,692.49z"/>
		<path id="bae9c969-98bd-41cd-ab49-dced4866e2f9" class="st52" d="M994.63,852.67c0,0-5.44,2.53-5.65,4.57s0.27,7.26-0.97,9.2
			c-1.24,1.94-9.26,9.36-5.38,11.84c3.87,2.48,22.49,2.37,22.49,2.37s0.49-14.42-0.43-15.55c-0.91-1.13,2.21-11.14,2.21-11.14
			L994.63,852.67z"/>
		<path id="efa1face-c8d6-4f61-8a17-c81461288bfc" class="st52" d="M1059.19,616.65c0,0,8.22,1.03,11.31,18.5
			c3.08,17.48,14.39,61.68,5.14,64.76c-9.25,3.08-37.01,9.25-38.04,7.2c-1.03-2.06-3.08-7.2-3.08-7.2s3.08,9.25-1.03,9.25
			c-4.11,0-44.2-6.17-43.17-9.25c1.03-3.08,3.08-25.7,3.08-25.7s6.17-38.04,12.34-44.2c3.61-3.47,5.5-8.37,5.14-13.36
			L1059.19,616.65z"/>
		<path id="ba787e0e-2496-4127-9664-864bc1f1b460" class="st51" d="M1074.61,608.42c0,0-13.36-3.08-15.42,1.03
			c-2.06,4.11,5.14,10.28,8.22,10.28c3.08,0,8.22-3.08,8.22-3.08L1074.61,608.42z"/>
		<circle id="af432612-84fe-4a80-a474-ad6710b59c23" class="st51" cx="1046.86" cy="502.54" r="18.5"/>
		<path id="fc691572-079c-4ac7-a111-0c7206f484e6" class="st51" d="M1043.77,515.91c0,0-3.08,14.39-1.03,14.39
			s-15.42,9.25-15.42,9.25l-13.36-2.06l-4.11-6.17c0,0,21.59-14.39,21.59-22.62C1031.44,500.49,1043.77,515.91,1043.77,515.91z"/>
		<path id="a377c2ac-5aad-4dd5-94e4-d6887260be3a" class="st4" d="M1034.52,530.3c0,0,3.08-2.06,4.11-2.06h8.22
			c1.03,0,14.39,3.08,14.39,3.08l8.22,46.26c0,0-14.39,23.64-4.11,42.15c0,0-3.08-2.06-17.48-1.03
			c-14.39,1.03-40.09,4.11-41.12,4.11c-1.03,0-1.03-8.22,0-10.28c1.03-2.06-1.03-1.03-1.03-6.17c0-5.14-3.08-14.39-3.08-14.39
			l-14.39-52.43c0,0,18.5-10.28,21.59-9.25s12.34,4.11,14.39,3.08C1026.3,532.35,1034.52,530.3,1034.52,530.3z"/>
		<path id="fd50713a-8150-4e39-832b-91f38638a5e4" class="st4" d="M1058.16,532.35l3.08-1.03c0,0,6.17-1.03,13.36,5.14
			c7.2,6.17,33.92,24.67,33.92,24.67s10.28,8.22,7.2,17.48c-3.08,9.25-8.22,31.87-23.64,30.84c0,0-9.25,12.34-14.39,10.28
			c-5.14-2.06-9.25-10.28-6.17-11.31s11.31-11.31,11.31-11.31l-10.28-19.53h-3.08l-11.31-6.17V532.35z"/>
		<path id="a85ddca5-281c-4897-a8aa-82a4133bac02" class="st4" d="M996.49,538.52l-8.22,1.03c0,0-7.2,3.08-6.17,16.45
			c1.03,13.36-6.17,74.01-3.08,81.21c0,0-10.28,34.95-8.22,35.98c2.06,1.03,14.39,7.2,13.36,3.08s11.31-32.9,11.31-32.9
			s14.39-15.42,8.22-37.01v-17.48L996.49,538.52z"/>
		<path id="eb14ef5a-0bc4-48da-8b11-b0e113a7ef46" class="st52" d="M1062.26,520.43l-13.07,2.85l-1.68-6.43l0.65,6.66l-21.08,4.59
			l-0.93-3.55l0.36,3.68l-13.5,2.94l-2.89-27.73c-2.97-11.38,7.87-23.51,19.25-26.47l5.05-1.32c8.36-2.18,23.55-0.2,25.73,8.16
			C1056.32,498.37,1049.81,514.34,1062.26,520.43z"/>
	</g>
</g>
<g id="Layer_6" class="st0">
	<rect x="-3.5" y="-0.5" class="st2" width="1923" height="88"/>
</g>
<g id="Layer_7" class="st0">
	<text transform="matrix(1.3787 0 0 1 81.5388 447.2939)" class="st42 st53 st54">Voter App</text>
	<text transform="matrix(1 0 0 1 150.0059 502.6978)" class="st3 st55 st56">Just some description</text>
	<rect x="69" y="575" class="st57" width="521" height="101"/>
	<text transform="matrix(1 0 0 1 196.6699 631.9375)" class="st58 st28 st56">Check it out!</text>
	<text transform="matrix(1.4596 0 0 1 38.8652 63.9902)" class="st58 st53 st59">Test</text>
	<text transform="matrix(1.2981 0 0 1 1408.8652 53.4565)" class="st58 st60 st61">home               about             contact</text>
	<rect x="6" y="1023" transform="matrix(0.9984 -0.0567 0.0567 0.9984 -59.3219 57.1809)" class="st62" width="1945" height="103"/>
</g>
<g id="Layer_8" class="st0">
	<path class="st42" d="M0,1080"/>
</g>
<g id="Layer_12" class="st0">
	<text transform="matrix(1 0 0 1 1145.5723 582.25)" class="st62 st28 st61">vote</text>
	<text transform="matrix(1 0 0 1 1658.2598 302.8364)" class="st62 st28 st29">vote</text>
	<text transform="matrix(1 0 0 1 1371.8203 262.8364)" class="st62 st28 st63">VOTE</text>
</g>
</svg>
