<?xml version="1.0" encoding="utf-8"?>
<!-- Generator: Adobe Illustrator 23.0.2, SVG Export Plug-In . SVG Version: 6.00 Build 0)  -->
<svg version="1.1" xmlns="http://www.w3.org/2000/svg" xmlns:xlink="http://www.w3.org/1999/xlink" x="0px" y="0px"
	 viewBox="0 0 1920 300" style="enable-background:new 0 0 1920 300;" xml:space="preserve">
<style type="text/css">
	.st0{fill:#DEC5CD;stroke:url(#SVGID_1_);stroke-miterlimit:10;}
	.st1{display:none;fill:url(#SVGID_2_);stroke:#EADBDB;stroke-miterlimit:10;}
	.st2{fill:#F4E4E9;}
	.st3{display:none;fill:#F4E4E9;}
</style>
<g id="Layer_2">
	<linearGradient id="SVGID_1_" gradientUnits="userSpaceOnUse" x1="961" y1="300" x2="961" y2="-11">
		<stop  offset="0" style="stop-color:#DEC5CD"/>
		<stop  offset="0.8666" style="stop-color:#9192BB"/>
	</linearGradient>
	<rect x="-1.5" y="-10.5" class="st0" width="1925" height="310"/>
</g>
<g id="Layer_1">
	
		<linearGradient id="SVGID_2_" gradientUnits="userSpaceOnUse" x1="960" y1="301.6215" x2="960" y2="-226.3921" gradientTransform="matrix(-1 0 0 -1 1921 292.5)">
		<stop  offset="0" style="stop-color:#DEC5CD"/>
		<stop  offset="0.8666" style="stop-color:#9192BB"/>
	</linearGradient>
	<polygon class="st1" points="0.5,-10.5 1921.5,-10.5 1921.5,517.51 0.5,517.51 	"/>
	<g>
		<path class="st2" d="M-1.5,107.65c38.22-1.32,90.34-5.36,119.81-19.1c37.06-17.28,3.34-33.59,30.58-42.54
			c52.01-17.08,201.38,28.06,457.19,40.2c228.97,10.86,292.07-43.28,478.19-62.56c58.39-6.05,107.74-10.96,168.49-6.35
			c155.84,11.83,176.11,70.97,292.26,72.28c83.44,0.94,106.92-29.19,220.07-31.32c67.2-1.26,123.28,8.15,158.41,15.7
			c0,75.29,0,150.58,0,225.87H-1.5V107.65z"/>
		<path class="st3" d="M1924,300H-2V145.46l0.06-0.04c39.19-26.12,89.88-42.81,150.68-49.58c38.53-4.29,76.13-4.98,118.33-2.16
			c38.04,2.54,76.53,7.73,117.28,13.23c61.79,8.33,131.82,17.77,221.79,21.2c141.81,5.4,220.18-9.29,303.16-24.84
			c42.39-7.94,86.22-16.16,140.43-22.09c61.29-6.7,127.71-9.45,203.04-8.41c97.67,1.35,236.28,11.89,512.42,32.9
			c52.87,4.02,106.17,8.26,158.42,12.6l0.38,0.03V300z M-1,299.66H1923V118.58c-52.12-4.33-105.28-8.56-158.02-12.57
			c-276.09-21-414.66-31.54-512.24-32.89c-168.09-2.32-256.99,14.34-342.96,30.46c-71.11,13.33-138.86,26.02-245.93,26.03
			c-18.09,0-37.28-0.36-57.82-1.14c-90.1-3.43-160.2-12.88-222.04-21.22c-81.15-10.94-151.23-20.39-234.93-11.06
			C88.54,102.91,38.06,119.52-1,145.54V299.66z"/>
	</g>
</g>
</svg>
