<?xml version="1.0" encoding="utf-8"?>
<!-- Generator: Adobe Illustrator 23.0.2, SVG Export Plug-In . SVG Version: 6.00 Build 0)  -->
<svg version="1.1" id="Layer_1" xmlns="http://www.w3.org/2000/svg" xmlns:xlink="http://www.w3.org/1999/xlink" x="0px" y="0px"
	 viewBox="0 0 1920 500" style="enable-background:new 0 0 1920 500;" xml:space="preserve">
<style type="text/css">
	.st0{fill:#F6F7F9;}
	.st1{display:none;fill:#F6F7F9;}
	.st2{display:none;fill:#FFFFFF;stroke:url(#SVGID_1_);stroke-miterlimit:10;}
	.st3{fill:#DEC5CD;stroke:#000000;stroke-miterlimit:10;}
	.st4{fill:url(#SVGID_2_);}
	.st5{display:none;fill:url(#SVGID_3_);}
	.st6{display:none;fill:#F65234;}
	.st7{fill:none;stroke:#535461;stroke-width:2;stroke-miterlimit:10;}
	.st8{display:none;opacity:0.25;fill:#B83D27;stroke:#B83D27;stroke-miterlimit:10;enable-background:new    ;}
	.st9{fill:#F65234;}
	.st10{opacity:0.35;}
	.st11{opacity:0.2;fill:#F65234;enable-background:new    ;}
</style>
<g>
	<path class="st0" d="M1934.6,515.8c-646.4,0.7-1292.8,1.3-1939.2,2.1C-3.4,345.8-2.2,173.8-1,1.7h1920L1934.6,515.8z"/>
	<g>
		<g>
			<path class="st1" d="M1926-3v506H-7V-3H1926 M1927-4H-8v508h1935V-4L1927-4z"/>
		</g>
		<g>
			
				<linearGradient id="SVGID_1_" gradientUnits="userSpaceOnUse" x1="959.5" y1="204.5" x2="959.5" y2="-304.5" gradientTransform="matrix(1 0 0 1 0 300)">
				<stop  offset="0" style="stop-color:#FFFFFF"/>
				<stop  offset="1" style="stop-color:#9192BB"/>
			</linearGradient>
			<path class="st2" d="M1926-3v506H-7V-3H1926 M1927-4H-8v508h1935V-4L1927-4z"/>
		</g>
	</g>
	<path class="st3" d="M960.1,202.2"/>
	<g>
		
			<linearGradient id="SVGID_2_" gradientUnits="userSpaceOnUse" x1="844.2164" y1="52.4717" x2="844.2164" y2="-259.24" gradientTransform="matrix(1 0 0 1 0 300)">
			<stop  offset="0" style="stop-color:#656691"/>
			<stop  offset="1" style="stop-color:#DEC5CD"/>
		</linearGradient>
		<path class="st4" d="M1920,68c-180.7,84.3-526.1,216.4-977.5,212.9C159.7,274.9-663.9-241.5,0,68C-8.5,49.8-17.9,22-8-4
			c70.9-1.5-35.8-9.5,980.3-5.1C1361.7-9.8,1914.7-35.6,1927-4C1936.8,21.3,1928.8,48.4,1920,68z"/>
		
			<linearGradient id="SVGID_3_" gradientUnits="userSpaceOnUse" x1="960.4999" y1="-18.5" x2="960.4999" y2="-301.5" gradientTransform="matrix(1 0 0 1 0 300)">
			<stop  offset="0" style="stop-color:#656691"/>
			<stop  offset="1" style="stop-color:#DEC5CD"/>
		</linearGradient>
		<path class="st5" d="M960.3,281.5c-6,0-11.9,0-17.8-0.1c-187.3-2-374.8-35.2-557.4-98.7C253.8,137,124.3,75.3,0.2-0.6l-1.5-0.9
			h1923.6l-1.5,0.9C1793,77.6,1659.5,140.6,1524,186.8C1339.2,249.6,1149.7,281.5,960.3,281.5z M2.3-0.5
			c299.5,183,615.8,277.5,940.2,280.9c336.8,3.6,665.3-91,976.2-280.9H2.3z"/>
	</g>
	<g id="Layer_5">
		<path class="st6" d="M1297.1,177.8c-6.4-2.3-20.9-21-20.9-21s22.5-5.4,28.9-3.1s9.8,9.5,7.6,16.2
			C1310.4,176.6,1303.5,180.1,1297.1,177.8L1297.1,177.8z"/>
		<path class="st7" d="M1216.6,156.6c-6.5,6.4-12.4,13.4-17.6,21c-10.9,16-16.6,35.2-16.1,54.8c0.9,46.7-51.8,42.3-51.8,42.3
			c-54.9,3.9-101.6,5.5-137.6,6.2c-89.5,1.7-101.5-5.6-153.8-3.8c0,0-15.5,0.5-42.5-2.2c-35.1-3.5-43.3-8.6-47.9-12.4
			c-9.2-7.5-12.4-16.6-18.7-34.5c-9.2-26-5.6-36.7-16.1-54.8c-5.8-10-12.8-16.9-17.6-21"/>
		<path class="st8" d="M1297.1,177.8c-6.4-2.3-20.9-21-20.9-21s22.5-5.4,28.9-3.1s9.8,9.5,7.6,16.2
			C1310.4,176.6,1303.5,180.1,1297.1,177.8L1297.1,177.8z"/>
		<path class="st7" d="M653.6,259.5c0,0-28.5-3.4-55.3-39.9c-11.1-15.4-26.7-26.9-44.5-32.8c-8.5-2.7-17.1-4.7-25.9-5.9"/>
		<path class="st9" d="M510.8,158c5.9,3.3,17.5,23.5,17.5,23.5s-22.7,1-28.6-2.3s-8.2-10.7-5.1-16.6
			C497.7,156.7,504.9,154.7,510.8,158L510.8,158z"/>
		<path class="st9" d="M552.8,158.8c3.3,5.9,2.4,28.8,2.4,28.8S535.1,176,531.8,170c-3.4-5.9-1.4-13.3,4.3-16.4s13.1-1,16.5,4.9
			C552.6,158.6,552.7,158.7,552.8,158.8z"/>
		<path class="st9" d="M608.2,190.9c-0.1,6.7-12.4,25.5-12.4,25.5s-11.8-20-11.7-26.7c0.4-6.7,6-11.6,12.7-11
			C603.1,179.3,608,184.6,608.2,190.9L608.2,190.9L608.2,190.9z"/>
		<path class="st9" d="M653.6,259.5c1,6.7-16.2-7.5-16.2-7.5s-15-17.9-16-24.5c-1-6.7,3.6-12.7,10.2-13.4
			C638,213.3,652.5,252.9,653.6,259.5z"/>
		<path class="st9" d="M544.6,210.5c6.3-1.9,20.8-19,20.8-19s-22.1-6.2-28.4-4.3c-6.3,2.1-9.5,8.9-7.2,15.3
			C531.9,208.6,538.4,212.1,544.6,210.5z"/>
		<path class="st9" d="M588.2,249.2c5.4-3.7,14-24.6,14-24.6s-22.7,0.7-28.1,4.4c-5.4,3.7-6.6,11.3-2.7,16.8
			C575.3,251.5,582.8,253,588.2,249.2L588.2,249.2L588.2,249.2z"/>
		<path class="st9" d="M635.6,281.2c6-2.7,18-21.8,18-21.8S631,256.2,625,259c-6,2.7-8.4,9.9-5.5,16S629.6,284,635.6,281.2
			L635.6,281.2L635.6,281.2z"/>
		<g class="st10">
			<rect x="846.7" y="506" class="st11" width="20" height="7.4"/>
		</g>
		<path class="st9" d="M746,195.5c-3.1,6.3-18.9,19.7-18.9,19.7s-1.9-23.9,1.2-30.2c3.1-6.3,4.8-11.6,10.8-8.4
			S749.1,189.3,746,195.5z"/>
		<path class="st9" d="M693.7,127.9c4.2,5.5,6.7,29.4,6.7,29.4s-21.8-8.1-25.9-13.6s-3.3-13.5,2-17.9
			C681.8,121.4,689.5,122.4,693.7,127.9L693.7,127.9z"/>
		<path class="st9" d="M730.5,151.2c-1.3,6.9-17,24.5-17,24.5s-8.4-22.4-7.1-29.3c1.3-6.9,7.7-11.4,14.3-10.1
			C727.4,137.7,731.8,144.3,730.5,151.2z"/>
		<path class="st9" d="M694.8,164.1c5.7,0.7,21.1,13.4,21.1,13.4s-17.3,8.5-23,7.8s-9.8-6-9.3-11.9
			C684.1,167.6,689.1,163.4,694.8,164.1z"/>
		<path class="st9" d="M715.2,195.2c5.2,4.5,12.3,27.4,12.3,27.4s-22.9-3.4-28.1-7.9c-5.2-4.5-5.8-12.5-1.5-17.9
			C702.3,191.4,710,190.7,715.2,195.2z"/>
	</g>
</g>
<g id="Layer_5_1_">
	<path class="st6" d="M606.3,182.3c-6.4,2.3-13.4-1.2-15.6-7.9c-2.2-6.6,1.2-13.9,7.6-16.2s28.9,3.1,28.9,3.1S612.7,180,606.3,182.3
		L606.3,182.3z"/>
	<path class="st8" d="M606.3,182.3c-6.4,2.3-13.4-1.2-15.6-7.9c-2.2-6.6,1.2-13.9,7.6-16.2s28.9,3.1,28.9,3.1S612.7,180,606.3,182.3
		L606.3,182.3z"/>
	<path class="st7" d="M1375.6,185.3c-8.8,1.2-17.4,3.1-25.9,5.9c-17.8,5.9-33.4,17.4-44.5,32.8c-26.7,36.5-55.3,39.9-55.3,39.9"/>
	<path class="st9" d="M1392.6,162.4c5.9-3.3,13.2-1.3,16.2,4.6c3.1,5.8,0.8,13.2-5.1,16.6c-5.9,3.3-28.6,2.3-28.6,2.3
		S1386.7,165.7,1392.6,162.4L1392.6,162.4z"/>
	<path class="st9" d="M1350.8,163c3.4-5.9,10.8-8.1,16.5-4.9s7.7,10.5,4.3,16.4c-3.2,6-23.3,17.6-23.3,17.6s-0.9-22.9,2.4-28.8
		C1350.7,163.2,1350.8,163.1,1350.8,163z"/>
	<path class="st9" d="M1295.2,195.3L1295.2,195.3c0.2-6.3,5.2-11.6,11.4-12.2c6.6-0.6,12.3,4.3,12.7,11c0.1,6.7-11.7,26.7-11.7,26.7
		S1295.3,202.1,1295.2,195.3L1295.2,195.3z"/>
	<path class="st9" d="M1271.9,218.5c6.6,0.7,11.1,6.7,10.2,13.4c-1,6.6-16,24.5-16,24.5s-17.3,14.2-16.2,7.5
		C1251,257.4,1265.4,217.8,1271.9,218.5z"/>
	<path class="st9" d="M1373.7,206.9c2.3-6.4-1-13.2-7.2-15.3c-6.3-1.9-28.4,4.3-28.4,4.3s14.5,17.1,20.8,19
		C1365,216.6,1371.5,213,1373.7,206.9z"/>
	<path class="st9" d="M1315.2,253.7L1315.2,253.7c5.4,3.7,13,2.2,16.8-3.4c3.9-5.6,2.7-13.1-2.7-16.8c-5.4-3.7-28.1-4.4-28.1-4.4
		S1309.8,250,1315.2,253.7L1315.2,253.7z"/>
	<path class="st9" d="M1267.8,285.7L1267.8,285.7c6,2.8,13.2,0,16.1-6.1s0.5-13.3-5.5-16s-28.6,0.4-28.6,0.4
		S1261.9,283,1267.8,285.7L1267.8,285.7z"/>
	<g class="st10">
		<rect x="1040.7" y="510.5" class="st11" width="20" height="7.4"/>
	</g>
	<path class="st9" d="M1169.3,180.1c6-3.2,7.7,2.1,10.8,8.4c3.1,6.3,1.2,30.2,1.2,30.2s-15.8-13.5-18.9-19.7
		S1163.3,183.3,1169.3,180.1z"/>
	<path class="st9" d="M1216.8,133.3c4.2-5.5,11.9-6.4,17.2-2.1c5.3,4.4,6.2,12.4,2,17.9s-25.9,13.6-25.9,13.6
		S1212.6,138.9,1216.8,133.3L1216.8,133.3z"/>
	<path class="st9" d="M1189.6,141.8c6.6-1.3,13.1,3.2,14.3,10.1c1.3,6.9-7.1,29.3-7.1,29.3s-15.7-17.6-17-24.5
		C1178.6,149.8,1183,143.1,1189.6,141.8z"/>
	<path class="st9" d="M1226.8,178.8c0.5,5.8-3.7,11.1-9.3,11.9c-5.7,0.7-23-7.8-23-7.8s15.5-12.6,21.1-13.4S1226.3,173,1226.8,178.8
		z"/>
	<path class="st9" d="M1212.5,202.2c4.3,5.4,3.7,13.4-1.5,17.9s-28.1,7.9-28.1,7.9s7.1-22.8,12.3-27.4
		C1200.4,196.1,1208.2,196.8,1212.5,202.2z"/>
</g>
</svg>
