<?xml version="1.0" encoding="utf-8"?>
<!-- Generator: Adobe Illustrator 23.0.2, SVG Export Plug-In . SVG Version: 6.00 Build 0)  -->
<svg version="1.1" id="Layer_1" xmlns="http://www.w3.org/2000/svg" xmlns:xlink="http://www.w3.org/1999/xlink" x="0px" y="0px"
	 viewBox="0 0 1137.68 859.71" style="enable-background:new 0 0 1137.68 859.71;" xml:space="preserve">
<style type="text/css">
	.st0{opacity:0.85;fill:#FFFFFF;enable-background:new    ;}
	.st1{opacity:0.1;fill:#F34A2C;enable-background:new    ;}
	.st2{fill:url(#SVGID_1_);}
	.st3{fill:#D38884;}
	.st4{fill:#444053;}
	.st5{fill:#B07473;}
	.st6{opacity:0.1;enable-background:new    ;}
	.st7{fill:#F34A2C;}
	.st8{fill:#FFFFFF;}
	.st9{fill:#67647E;}
	.st10{fill:#585268;}
	.st11{fill:#E1E7EF;}
	.st12{fill:url(#SVGID_2_);}
	.st13{fill:#A27772;}
	.st14{fill:#C97D6B;}
	.st15{opacity:0.1;}
	.st16{fill:#A8715A;}
	.st17{fill:#F6F8FB;}
	.st18{opacity:0.65;fill:#FFFFFF;enable-background:new    ;}
	.st19{fill:url(#SVGID_3_);}
	.st20{fill:#65617D;}
	.st21{fill:#FBBEBE;}
	.st22{opacity:0.05;enable-background:new    ;}
	.st23{fill:#7C5C5C;}
	.st24{fill:url(#SVGID_4_);}
	.st25{fill:#F9D7DF;}
	.st26{fill:#D39999;}
	.st27{fill:#FDC2CC;}
	.st28{fill:#7E5659;}
	.st29{fill:#865A61;}
	.st30{opacity:0.05;fill:#EDB2BF;enable-background:new    ;}
	.st31{opacity:0.05;}
	.st32{fill:#F7CDD6;}
	.st33{fill:url(#SVGID_5_);}
	.st34{opacity:0.5;fill:#FFFFFF;enable-background:new    ;}
	.st35{fill:#3F2B3B;}
	.st36{fill:none;stroke:#3F2B3B;stroke-miterlimit:10;}
	.st37{fill:#A8A8A8;}
	.st38{opacity:0.2;enable-background:new    ;}
</style>
<title>team spirit</title>
<path class="st0" d="M11.28,406.51c18,70.15,56.11,130.79,116.34,160.18c125.22,61.09,407.45,29.58,618.12-6.58
	c109-18.71,204.74-70.3,274.33-143L11.28,406.51z"/>
<path class="st0" d="M1116.05,76.32h-115.59c-5.5,0-10-4.1-10-9.11s4.49-9.11,10-9.11h20c-5.5,0-10-4.1-10-9.11s4.49-9.1,10-9.1
	h-14.27c-5.5,0-10-4.1-10-9.11s4.49-9.11,10-9.11h60.33c-13.39-5.68-29-9.71-47.06-11.82c-164.51-19.27-223.25-6.53-244,6.58
	c-25.79,16.51-54.48,27.98-84.55,33.79c-101.5,19.09-291.32,42.06-463.37-7.36c-85.51-24.55-149.06,17-187.16,86.31h1095.74
	c-1.43-20.16-5.71-38.78-13.57-55.07C1120.69,75.55,1118.4,76.33,1116.05,76.32z"/>
<path class="st0" d="M1.47,260.09c-4.44,40.8-2.92,82.03,4.49,122.39l1014.88,33.84c27.96-29.21,51.7-62.2,70.51-98L1.47,260.09z
	 M402.84,347.4h-20c5.49,0,10,4.1,10,9.11c0,5.01-4.5,9.1-10,9.1H267.3c-5.49,0-10-4.09-10-9.1s4.5-9.11,10-9.11h20
	c-5.49,0-10-4.1-10-9.11c0-5.01,4.5-9.11,10-9.11h-14.29c-5.49,0-10-4.09-10-9.1s4.5-9.11,10-9.11H388.6c5.5,0,10,4.1,10,9.11
	c0,5.01-4.49,9.1-10,9.1h14.24c5.5,0,10,4.1,10,9.11C412.84,343.3,408.37,347.4,402.84,347.4z"/>
<path class="st0" d="M1136.17,129.8l-1108,24.57c-13.5,31.59-22.43,67.3-26.55,104.32h1115.13c7.26-21.66,12.65-43.91,16.1-66.49
	C1136.17,170.44,1137.5,149.4,1136.17,129.8z M226.59,210.31h-20c5.49,0,10,4.1,10,9.11s-4.5,9.11-10,9.11H91.01
	c-5.49,0-10-4.1-10-9.11s4.5-9.11,10-9.11h20c-5.49,0-10-4.09-10-9.1s4.5-9.11,10-9.11H96.72c-5.49,0-10-4.1-10-9.11
	s4.5-9.11,10-9.11h115.59c5.5,0,10,4.1,10,9.11s-4.49,9.11-10,9.11h14.28c5.49,0,10,4.1,10,9.11S232.08,210.31,226.59,210.31z"/>
<ellipse class="st1" cx="664.34" cy="749.94" rx="75.23" ry="16.89"/>
<ellipse class="st1" cx="839.15" cy="803.58" rx="135.72" ry="11.14"/>
<ellipse class="st1" cx="294.22" cy="786.69" rx="135.72" ry="16.89"/>
<ellipse class="st1" cx="501.15" cy="702.14" rx="102.12" ry="16.89"/>
<ellipse class="st1" cx="529.66" cy="842.82" rx="81.75" ry="16.89"/>
<linearGradient id="SVGID_1_" gradientUnits="userSpaceOnUse" x1="512.7875" y1="129.55" x2="512.7875" y2="720.6854" gradientTransform="matrix(1 0 0 -1 -31.16 839.86)">
	<stop  offset="0" style="stop-color:#808080;stop-opacity:0.25"/>
	<stop  offset="0.54" style="stop-color:#808080;stop-opacity:0.12"/>
	<stop  offset="1" style="stop-color:#808080;stop-opacity:0.1"/>
</linearGradient>
<path class="st2" d="M577.46,300.33c-2.16-14.54-15.37-48.47-15.37-48.47l0,0c-0.23-1-0.49-2-0.78-3c-9.37-32.2-22.34-35-22.34-35
	l-46.46-10c0.39,0.24,0.73,0.56,1,0.93c-0.25,0.02-0.49,0.06-0.73,0.11c-2.13-2.51-3.53-5.55-4.07-8.8c-0.09-0.48-0.17-1-0.23-1.49
	c12.92-12.6,13.19-33.29,0.59-46.21c-1.02-1.04-2.1-2.02-3.25-2.92c-0.49-0.38-1-0.75-1.49-1.1c2.19-2.33,2.26-5.57,0.62-8.81
	c-3.66-7.6-11.62-12.41-19.8-14.76c-6.25-1.79-13-2.37-19.22-0.41c-3.53,1.12-6.75,3-10.06,4.67c-6.17,3.08-13,5.52-17.61,10.59
	c-1.08,1.18-2.08,2.69-1.76,4.25c0.24,1.16,1.16,2.06,1.75,3.09c1.33,2.31,1,5.22,0.09,7.74s-2.24,4.86-2.87,7.44
	s-0.39,5.62,1.55,7.47c0.93,0.72,1.9,1.39,2.9,2c1.06,0.9,1.99,1.95,2.77,3.11c1.84,2.47,3.67,4.94,5.5,7.43
	c2.58,3.3,4.88,6.8,6.89,10.47c1.37,2.7,2.43,5.58,4.26,8c0.54,0.71,1.15,1.35,1.83,1.92l-0.54-0.21c1.61,1.64,3.82,2.54,6.11,2.49
	l0,0c0.1,0,0.19,0,0.28,0c0.42-0.01,0.82-0.17,1.12-0.46c0,0.34,0,0.68,0,1c0.11,3.57,0.09,7.37-0.16,10.94l-0.43-0.22
	c-1.3-0.65-2.86-0.48-4,0.42l-42.77,34.32c0,0-9.3,12.72-8,34.68l-7.5,32.93c0,0-9.37,27.94-2.16,47.89s11.39,31.36,11.39,31.36
	s2.88,22.67,7.21,24.52s6.2,2.85,6.2,2.85l0.86,5.42l0,0c0,0,0.29,0.53,0.8,1.42c3.15,5.48,14.82,24.82,21.6,22.75
	c0.85,5.25,1.22,10.57,1.1,15.89l6.71,45.05c0,0,4.68,12.25,4.39,18.67s5.46,15.57,5.46,15.57c-3.49,6.39-4.52,13.85-2.88,20.95
	c2.74,12,6.2,67.28,6.2,67.28l5,13.4l-0.14,15.71c-0.41,2.56-1.48,4.97-3.1,7c-3.24,3.52-3,7.59-10.81,12.4s-12.76,6.63-12.76,13
	c-0.01,0.89-0.09,1.77-0.24,2.65c-0.72,4.68-2.12,7.22,12.24,8.58c16.87,1.6,28.12-9.4,28.12-9.4s2.48-4.5,14.16-6.32
	c0,0,4-0.21,4.21-3.74c0.08-1.22,0.06-3.55,0-6.12c-0.19-4.89-0.66-10.6-1.28-10.88c-0.78-0.35-2.14-5.27-2.61-7.05h3.25
	c0,0,3-22.67,0-37.35s-0.29-25.09-0.29-25.09l-0.58-38.77c0,0-4-4.28-0.86-11.84s0-44.9,0-44.9s1.16-13.4,4.47-16.54
	c3.31-3.14,0.16-19.63,0-20.49l5.9,19.79c0,0,2.59,39.34,8.08,46.46l1.58,17.82c0,0,11.24,16.4,9.08,25.23s2.31,40.77,2.31,40.77
	v32.65c0,0-5.05,13.11,2,17.82l3-0.12c-1,0.93-1.77,2.33-2.94,3.54c-1.35,1.39-2.12,6.68-2.55,11.23c-0.36,3.85-0.48,7.16-0.48,7.16
	s3,4.8,8.65,5.13s24.27,14.49,24.27,14.49s18.39,0,23.15-1l0.28-0.07c1.53-0.48,2.81-1.53,3.59-2.93c0.95-1.62,1.26-3.55,0.86-5.39
	c-0.59-2.81-2.82-5.89-7.76-8.51c-12.29-6.48-14.12-12.55-14.12-12.55l-8.07-12.11h1.15c0,0-0.71-12.83,8.07-27.23l-0.57-63.43
	c0,0,3.6-21.81-2.59-33.65c0,0-0.51-12.54,3.63-16.39s-5.51-42.76-5.51-42.76s-2-20.89-4.35-39.95l0,0
	c9.73,9.23,19.82-24,21.52-29.91h0.25l-0.11-0.43c0.07-0.28,0.11-0.42,0.11-0.42l0,0c0,0-2.16-7.68-0.58-6.12s5.48-4.28,5.48-4.28
	s-0.58-31.79,6.2-47.81C587.25,339.35,577.46,300.33,577.46,300.33z M548.46,320.56l0.05-0.09c1,19.41-0.19,60.83-0.19,60.83
	s-1.34,5.31-2.77,11.56l-1-39.35l0,0l-1-37.07L548.46,320.56z M424.35,307.18c0,0,4.9,61.29,0,70.13c-1.39,2.52-2.56,7-3.53,12.11
	c-1.62-4.25-5.05-14.23-3.82-19.52c1.59-6.84-3.17-24.81-3.17-25.23c0-0.42-0.43-10,3-17.32s1.18-10.49,1.18-10.49
	S420.89,304.86,424.35,307.18z"/>
<path class="st3" d="M436.29,445.22c-4.27,18.77-21.25-9.61-25.12-16.42c-0.5-0.89-0.78-1.41-0.78-1.41l1.84-8.63l9.73-4
	c1.54,0.81,3,1.76,4.36,2.84C431.65,421.79,439.58,430.68,436.29,445.22z"/>
<path class="st3" d="M568.02,414.51c0,0,0,0.14-0.11,0.42c0,0.12-0.08,0.28-0.13,0.45c-1.67,5.86-11.57,38.85-21.13,29.69
	c-10.46-10-5.38-33.12-5.38-33.12h0.07l22-2.25l4.36,4.48l0,0L568.02,414.51z"/>
<path class="st4" d="M555.29,576.86l0.56,63c-8.63,14.3-7.92,27-7.92,27l-28.44,1.12c-6.94-4.67-2-17.68-2-17.68v-32.44
	c0,0-4.39-31.69-2.27-40.47s-8.91-25-8.91-25l-1.56-17.69c-5.38-7.07-7.93-46.12-7.93-46.12l-5.77-19.72
	c0.16,0.85,3.16,17.31,0,20.34c-3.16,3.03-4.39,16.41-4.39,16.41s3.11,37.08,0,44.57s0.84,11.75,0.84,11.75l0.57,38.49
	c0,0-2.69,10.33,0.28,24.9s0,37.08,0,37.08h-30.51l0.14-15.71l-4.94-13.3c0,0-3.4-54.9-6.09-66.79c-1.61-7.05-0.61-14.44,2.82-20.8
	c0,0-5.65-9.05-5.37-15.42s-4.36-18.52-4.36-18.52l-6.58-44.71c0.18-8.6-0.92-17.19-3.26-25.47c-3.82-12.74-9.48-29.44-9.48-29.44
	l6.39,0.57l32.24,2.87c0,0,78.39-5.27,81.9-0.89c0.74,1.43,1.24,2.98,1.48,4.57c3.52,15.81,8.17,65.34,8.17,65.34
	s9.48,38.63,5.41,42.45s-3.57,16.26-3.57,16.26C558.84,555.16,555.29,576.86,555.29,576.86z"/>
<path class="st5" d="M489.02,686.29c-0.22,3.51-4.13,3.72-4.13,3.72c-11.46,1.8-13.9,6.26-13.9,6.26s-11,10.93-27.59,9.34
	c-14.1-1.36-12.73-3.87-12-8.52c0.14-0.87,0.22-1.74,0.23-2.62c0-6.37,4.88-8.18,12.52-13s7.43-8.81,10.61-12.31
	s3.51-10.29,3.51-10.29c3.6-6.27,12.73,1,12.73,1c0.43,2.22,14,1.91,14,1.91s1.8,7.22,2.73,7.64c0.61,0.28,1.07,5.94,1.25,10.8
	C489.08,682.77,489.1,685.08,489.02,686.29z"/>
<path class="st6" d="M489.02,686.29c-0.22,3.51-4.13,3.72-4.13,3.72c-11.46,1.8-13.9,6.26-13.9,6.26s-11,10.93-27.59,9.34
	c-14.1-1.36-12.73-3.87-12-8.52c6.3,1.56,18.34,3.74,25.37-0.08c9.77-5.3,16.78-9,16.78-9l15.44-7.77
	C489.08,682.77,489.1,685.08,489.02,686.29z"/>
<path class="st5" d="M575.39,705.18c-0.75,1.39-2.01,2.43-3.52,2.91l-0.27,0.07c-4.67,1-22.72,1-22.72,1s-18.25-14.11-23.77-14.43
	s-8.49-5.1-8.49-5.1s0.11-3.28,0.46-7.1c0.43-4.52,1.18-9.77,2.51-11.15c2.44-2.55,3-6,8.49-3.82c0,0,7.84-13.82,17.08-3.14
	l9.56,14.5c0,0,1.8,6,13.91,12.51c4.84,2.6,7,5.66,7.61,8.45C576.63,701.69,576.32,703.58,575.39,705.18z"/>
<path class="st6" d="M575.39,705.18c-1.08,0.91-2.27,1.89-3.52,2.91l-0.27,0.07c-4.67,1-22.72,1-22.72,1s-18.25-14.11-23.77-14.43
	s-8.49-5.1-8.49-5.1s0.11-3.28,0.46-7.1c5.62,1.68,14.13,4.65,16.41,7.85c3.5,4.87,14.13,11.67,14.13,11.67s19.82-1.91,28.62-2.17
	C576.63,701.69,576.32,703.58,575.39,705.18z"/>
<path class="st3" d="M498.26,211.39l-26.1,27.59c0,0-31.63-2.33-26.11-11.67c2.81-4.76,3.25-14.72,3-23.38
	c-0.23-8.35-1.09-15.46-1.09-15.46s44.36-22.08,41-1.49c-0.72,3.88-0.76,7.86-0.12,11.75C490.73,209.13,498.26,211.39,498.26,211.39
	z"/>
<path class="st6" d="M488.92,186.98c-0.72,3.88-0.76,7.86-0.12,11.75c-6.13,6.21-14.49,9.7-23.22,9.69c-6,0-12.49-4.93-17.34-7.78
	c-0.23-8.36-0.28-12.17-0.28-12.17S492.32,166.39,488.92,186.98z"/>
<path class="st3" d="M498.26,174.03c0.01,18.05-14.62,32.7-32.68,32.7c-18.05,0.01-32.7-14.62-32.7-32.68
	c-0.01-18.05,14.62-32.7,32.68-32.7c7.41,0,14.61,2.51,20.4,7.14C493.73,154.69,498.26,164.09,498.26,174.03z"/>
<path class="st6" d="M542.73,419.36c-8.14,19.37-60.5,19.77-60.5,19.77v-21.12l-3.17-0.21c1.37,6.05-1.92,20.8-1.92,20.8
	c-41.38,5.84-51.47-17.74-51.47-17.74l1.44-8.07l32.24,2.87c0,0,78.39-5.27,81.9-0.89C541.99,416.21,542.49,417.76,542.73,419.36z"
	/>
<path class="st7" d="M482.23,436.58v-21.12l-3.17-0.2c1.37,6-1.92,20.8-1.92,20.8c-31.14,4.39-44.56-7.87-49.29-14.21
	c-0.85-1.09-1.58-2.27-2.18-3.52l12.64-71.1l3-104.64l4.53-18.36l1.05-8.81v-0.1H447l3.22,1.38l19.27,8.33l21.89-16.53l0.32-0.23
	l1.09-0.83l1.81,1.45l4.5,3.61l14.43,93.19c0,0,25,71.75,29.68,100.71c0.19,1.16,0.34,2.24,0.46,3.25
	C546.76,436.09,482.23,436.58,482.23,436.58z"/>
<circle class="st8" cx="471.83" cy="227.09" r="1.86"/>
<circle class="st8" cx="472.69" cy="244.07" r="1.86"/>
<circle class="st8" cx="474.55" cy="271.56" r="1.86"/>
<circle class="st8" cx="477.62" cy="301.17" r="1.86"/>
<circle class="st8" cx="479.48" cy="328.97" r="1.86"/>
<circle class="st8" cx="481.34" cy="358.58" r="1.86"/>
<circle class="st8" cx="480.6" cy="387.87" r="1.86"/>
<path class="st6" d="M448.13,357.57c0,0-2.08,27.23-5.9,35.15s-5.52,30.14-5.52,30.14l-8.87-1c-0.85-1.09-1.58-2.27-2.18-3.52
	l12.64-71.1l3-104.64l4.54-18.37l1.05-8.81l0.12-0.05c1-0.47,2.17-0.46,3.16,0.05l0.42,0.22c-0.13,0.36-0.25,0.73-0.36,1.11
	c-3.46,10.83-4.75,30.79-4.75,30.79s5,36.51,5.52,53.49S448.13,357.57,448.13,357.57z"/>
<path class="st6" d="M426.32,417.63c-0.1,0.23-0.21,0.45-0.34,0.66c-3.44,5.81-12.16,9.5-14.81,10.51c-0.5-0.89-0.78-1.41-0.78-1.41
	l1.84-8.63l9.73-4C423.5,415.57,424.96,416.54,426.32,417.63z"/>
<path class="st9" d="M402.75,278.67l-8.07,4.81l-7.35,32.69c0,0-9.2,27.73-2.13,47.54s11.18,31.15,11.18,31.15s2.83,22.5,7.08,24.34
	c4.25,1.84,6.08,2.83,6.08,2.83l0.85,5.38c0,0,11.52-3.91,15.59-10.8c4.07-6.89-3-24-3-24s-6.08-14.58-4.52-21.37
	c1.56-6.79-3.12-24.62-3.12-25s-0.42-9.91,3-17.2c3.42-7.29,1.14-10.4,1.14-10.4l-2.13-20.8L402.75,278.67z"/>
<path class="st6" d="M543.4,413.24c0,0-21.37,8.06-28.16,1c-6.79-7.06-6.09-40.19-6.09-40.19s-6.5-61.13-10.61-71.17s-2-82.5-2-82.5
	s-2.76-9.37-5.17-11.82c-0.15-0.16-0.32-0.3-0.51-0.41l0.83,0.18l2.9,0.62l4.5,3.61l14.43,93.19c0,0,25,71.75,29.68,100.71
	L543.4,413.24z"/>
<path class="st6" d="M568.02,415.36h-0.24c-2.69,0.35-26.43,3.22-26.53-1.72c0-0.57,0.03-1.14,0.09-1.71l22-2.25l4.36,4.48l0,0
	c0.08,0.29,0.14,0.54,0.2,0.74L568.02,415.36z"/>
<path class="st9" d="M545.24,245.93l15.6,8.14c0,0,13,33.66,15.08,48.09c0,0,9.63,38.66,3,54.56c-6.63,15.9-6.08,47.46-6.08,47.46
	s-3.82,5.8-5.38,4.25s0.57,6.08,0.57,6.08s-26.67,3.54-26.78-1.7c-0.11-5.24,6.12-30.28,6.12-30.28s1.7-59.57-0.71-68.91
	C544.25,304.28,545.24,245.93,545.24,245.93z"/>
<path class="st6" d="M498.69,309.38c0,0-8.78,21.5-11.61,22.92c-2.83,1.42,0.57,7.07,0.57,7.07S503.64,317.02,498.69,309.38z"/>
<path class="st6" d="M493.45,233.96c0.1-0.41-10.47,10.37-13.3,12S490.48,245.86,493.45,233.96z"/>
<path class="st6" d="M464.02,307.68c0,0-16.13,10.43-14,14.56S464.02,307.68,464.02,307.68z"/>
<path class="st6" d="M493.31,459.93c0,0,13.73,8.83,35.09,11L493.31,459.93z"/>
<path class="st6" d="M460.34,481.16c0,0,12.73,16,18.54,16.41C484.69,497.98,460.34,481.16,460.34,481.16z"/>
<path class="st6" d="M478.17,543.86c-0.57,0.28-7.22,14.43-14,14.86S478.17,543.86,478.17,543.86z"/>
<path class="st6" d="M537.17,574.86c0,0,12.62-2.83,15.43,6.22C552.6,581.05,551.75,578.22,537.17,574.86z"/>
<path class="st6" d="M528.68,626.62c0,0,15.29-3.12,18.54,1.13S528.68,626.62,528.68,626.62z"/>
<path class="st6" d="M485.43,633.86c0,0.14-15.56,3.12-15,5.1s16.6,1.7,17.17-1.42c0.43-1.6-0.53-3.24-2.13-3.67
	C485.46,633.87,485.44,633.86,485.43,633.86z"/>
<path class="st6" d="M523.59,647.28c0,0,25.57-3.12,24,2.26S523.59,647.28,523.59,647.28z"/>
<path class="st6" d="M389.73,332.3c0.14,0.42,16.84,2.69,19.1,8.07c0,0-16.41-7.65-19-7.65"/>
<path class="st6" d="M413.22,376.02c0,0-13.87,4.39-12.88,11S398.93,383.96,413.22,376.02z"/>
<path class="st6" d="M406.76,409.7c0,0,5.05-6.93,9.86-5.66C421.43,405.31,406.76,409.7,406.76,409.7z"/>
<path class="st6" d="M485.96,148.49c-0.49,0.47-1.03,0.88-1.62,1.21c-4,2.33-5.1,5.92-7,10.06c-1.77,3.79-3.72,7.8-7.29,9.95
	c-4.61,2.78-10.68,1.76-15.47,4.18c-4.35,2.26-6.88,6.95-6.4,11.83c0.3,1.84,0.76,3.65,1.36,5.42c1.09,3.82,1.58,7.79,1.46,11.77
	c0.01,0.12,0.01,0.23,0,0.35c-16.15-8.07-22.69-27.69-14.63-43.84c8.07-16.15,27.69-22.69,43.84-14.63c2.05,1.03,3.99,2.27,5.79,3.7
	H485.96z"/>
<path class="st10" d="M485.11,138.65c-3.59-7.54-11.4-12.32-19.43-14.65c-6.13-1.77-12.79-2.35-18.87-0.4
	c-3.47,1.1-6.62,3-9.87,4.63c-6.06,3.06-12.72,5.48-17.28,10.51c-1.07,1.17-2,2.67-1.73,4.22c0.23,1.15,1.13,2,1.71,3.06
	c1.31,2.3,1,5.19,0.09,7.69s-2.2,4.82-2.82,7.39s-0.38,5.58,1.52,7.41c0.85,0.81,1.94,1.32,2.86,2c1.04,0.9,1.95,1.93,2.71,3.08
	l5.4,7.38c2.54,3.27,4.8,6.75,6.76,10.39c1.34,2.68,2.38,5.54,4.18,7.93s4.6,4.31,7.58,4.05c0.47,0.01,0.91-0.2,1.2-0.57
	c0.11-0.23,0.16-0.49,0.15-0.75c0.13-3.96-0.35-7.92-1.43-11.73c-0.6-1.77-1.06-3.58-1.36-5.42c-0.47-4.88,2.06-9.55,6.4-11.83
	c4.8-2.42,10.87-1.4,15.47-4.17c3.58-2.16,5.53-6.17,7.29-10c1.93-4.14,3-7.73,7-10.06C486.64,146.48,487.1,142.62,485.11,138.65z"
	/>
<path class="st6" d="M470.47,672.92c0,0,5,6.37,3.7,10S470.47,672.92,470.47,672.92z"/>
<path class="st6" d="M538.12,688.86c0,0,1.11-8.54,5.56-8.62s4.67-0.46,8.07,0.85s6.59,3.34,5.57,3.64s-5.85-4.88-10.81-2.23
	C543.41,684.19,540.59,686.34,538.12,688.86z"/>
<path class="st6" d="M455.55,235.74l14-9.81c0,0-20.48-12.1-22.92-10.4s-4.12,17-4.12,17L455.55,235.74z"/>
<path class="st11" d="M455.49,235.11l14-10c0,0-20.48-12.1-22.92-10.4s-4.12,17.84-4.12,17.84L455.49,235.11z"/>
<path class="st7" d="M455.49,235.11l14-10c0,0-20.48-12.1-22.92-10.4s-4.12,17.84-4.12,17.84L455.49,235.11z"/>
<path class="st9" d="M448.89,214.79l-0.42-0.21c-1.28-0.65-2.82-0.49-3.93,0.41l-42,34.07c0,0-9.13,12.63-7.86,34.42l24.77,35.09
	c0,0,2.83-11.88,6.22-9.62c0,0,4.81,60.85,0,69.62c-4.81,8.77-6.93,41.6-6.93,41.6l16.27,1.84c0,0,1.7-22.22,5.52-30.14
	s5.9-35.15,5.9-35.15s3.44-39.56,2.87-56.54c-0.57-16.98-5.52-53.49-5.52-53.49S445.17,225.29,448.89,214.79z"/>
<path class="st6" d="M490.73,229.54l-17.45-6.46c0,0,22.22-24.34,25-10.84L490.73,229.54z"/>
<path class="st11" d="M490.73,228.69l-17.45-6.46c0,0,22.22-24.34,25-10.84L490.73,228.69z"/>
<path class="st7" d="M490.73,228.69l-17.45-6.46c0,0,22.22-24.34,25-10.84L490.73,228.69z"/>
<path class="st6" d="M490.16,207.98c0.25-0.04,0.51,0.02,0.72,0.16L490.16,207.98z"/>
<path class="st9" d="M491.84,206.29l46.3,10c0,0,12.74,2.83,21.94,34.81s-12.6,71.16-12.6,71.16l-4.81-4.09l2.41,93.39
	c0,0-21.37,8.06-28.16,1c-6.79-7.06-6.08-40.22-6.08-40.22s-6.51-61.12-10.62-71.17c-4.11-10.05-2-82.49-2-82.49
	S494.44,205.73,491.84,206.29z"/>
<path class="st6" d="M534.2,265.8c-0.65,0.6-1.41,28.86,1.42,50.37c1.73,13.1,4.4,26.06,8,38.77l-4.2-86.17
	C539.42,268.77,536.18,263.96,534.2,265.8z"/>
<path class="st6" d="M528.54,241.46c1.13,0.71,6.09,12.45,3.82,17.26C530.09,263.53,528.54,241.46,528.54,241.46z"/>
<path class="st6" d="M484.84,138.65c-2.27-4.48-5.81-8.18-10.18-10.66c3.25,2.32,5.87,5.42,7.63,9c2,4,1.41,8-2.48,10.19
	s-5.1,5.92-7,10.06c-1.77,3.79-3.72,7.8-7.3,10c-4.6,2.78-10.67,1.75-15.47,4.17c-4.34,2.28-6.87,6.96-6.4,11.84
	c0.31,1.84,0.77,3.65,1.37,5.41c1.09,3.82,1.58,7.79,1.46,11.77c0.01,0.26-0.05,0.52-0.16,0.75c-0.28,0.37-0.72,0.59-1.19,0.57
	c-1.2,0.09-2.4-0.13-3.49-0.65c1.59,1.58,3.76,2.43,6,2.35c0.64,0.09,1.24-0.35,1.34-1c0.02-0.11,0.02-0.22,0-0.32
	c0.13-3.97-0.36-7.95-1.45-11.77c-0.61-1.76-1.07-3.58-1.37-5.42c-0.47-4.88,2.06-9.55,6.4-11.83c4.8-2.42,10.87-1.4,15.47-4.17
	c3.58-2.16,5.53-6.17,7.29-10c1.93-4.14,3-7.73,7-10.06C486.31,146.55,486.84,142.62,484.84,138.65z"/>
<linearGradient id="SVGID_2_" gradientUnits="userSpaceOnUse" x1="703.4399" y1="78.0765" x2="703.4399" y2="688.8809" gradientTransform="matrix(1 0 0 -1 -31.16 839.86)">
	<stop  offset="0" style="stop-color:#808080;stop-opacity:0.25"/>
	<stop  offset="0.54" style="stop-color:#808080;stop-opacity:0.12"/>
	<stop  offset="1" style="stop-color:#808080;stop-opacity:0.1"/>
</linearGradient>
<path class="st12" d="M769.71,264.23c-13.78-0.27-25.94-10-32.83-21.89c-1.81-2.83-2.94-6.03-3.32-9.37
	c0.05-0.76,0.18-1.51,0.38-2.24c0.42-1.12,0.76-2.26,1-3.43c0.05-0.47,0.05-0.93,0-1.4c0,0,0,0,0-0.08c0.33-2.53-1.16-5-3-6.73
	s-4.15-3-6.07-4.72c-5.92-5.2-7.72-13.54-7.83-21.48v-0.42c0.07-3.4,0.34-6.81,0.31-10.21c0.05-1.93-0.04-3.86-0.25-5.78
	c-0.57-4.81-2.4-9.71-6.18-12.78c-9.86-8-26.44,0.33-36.65-7.23c-2.48-1.85-4.49-4.58-7.5-5.3c-2.27-0.55-4.63,0.19-6.85,0.93
	c-7.52,2.48-15.91,5.74-18.85,13c-1.68,4.17-1.21,8.93-2.75,13.15c-1,2.83-2.91,5.26-4.3,7.94c-1.14,2.02-1.7,4.31-1.6,6.63
	c-0.12,1.2,0.04,2.41,0.49,3.53c0.52,1.35,1.36,2.55,2.45,3.51c-0.39,0.84-0.88,1.62-1.46,2.34c-1.92,2.35-4.87,4-6.87,6.34
	c-3.7,4.29-3.56,10.12-1.74,15.16s5.11,9.63,7.38,14.54c1,2.13,1.76,4.51,0.75,6.63c-0.71,1.47-2.18,2.59-3.32,3.86
	c-1.67,1.87-2.72,4.21-3,6.7c-22.51,5.14-22.53,23.23-22.53,23.23l0,0l-12.16,30.58c0,0-1.95,5.15-4.24,11.95l-14.39-2.58l10,16.74
	c-1.89,6.82-3.23,13.14-2.79,16.32c0,0-4.47,21,3.48,24.67l17.54,7.89c0.76,0.47,1.58,0.83,2.43,1.09l0.71,0.32
	c0.52,0.25,1.12,0.25,1.64,0h0.05h0.19c0.34,0.02,0.68-0.03,1-0.15c0.39-0.21,0.7-0.54,0.88-0.95c-0.01-0.03-0.01-0.07,0-0.1
	l5.25-1.52l4.45,5.27c2,1.41,4,2.63,5.89,3.73l-6.89,68.42c0,0-1.11,91-4.47,111.74c-1.24,7.68-1.25,12.92-0.78,16.48l-0.13,0.22
	c0.83,5.85,3,7,3,7v-0.08c0.04,0.03,0.08,0.06,0.13,0.08c1.01-2.66,2.22-5.24,3.6-7.72c0,0.49,0,1,0,1.5
	c-0.07,7.72-0.31,18.53-1.11,25.56c-1.36,12,3.48,51.55,3.48,51.55l1.67,36c0.27,6.11-1.15,12.18-4.1,17.54
	c-4,7.19-9.11,17.31-9.48,21.8c-0.02,0.24-0.02,0.49,0,0.73l0,0l-8.58,10.32c0,0-3.35,5.18,4.22,7.27c4.07,1.13,11.09,0,16.73-1.33
	c5.07-1.17,8.66-5.68,8.67-10.88c1.43-4.96,3.83-9.58,7.08-13.59l1.41,8.29l9.44,2.34l1.21-22.72c0.49-1.28,0.71-2.64,0.65-4l0,0
	c1.86-16.16-4.38-14.71-4.38-14.71c0.17,0.14,0.27,0.34,0.3,0.56l-0.3-0.55l0,0c-3.83-7.56-2-20-2-20s5-36,6.71-45.51
	c1.23-6.72,0.72-28.72,0.31-41c0-0.51,0-1-0.05-1.49c14.64-0.19,32.58-0.68,45.17-1.9v1.48l-2.32,85.05
	c-0.16,5.42-1.26,10.78-3.26,15.82c0,0.1-0.07,0.19-0.11,0.29c-2.76,7.12-4.32,14.66-4.61,22.29l-1.08,27v0.75l0,0
	c-1.88,0.72-4.85,2.81-4.93,8.87c-0.13,8.88,15.52,5.92,15.52,5.92c15.64,0,15.77-16.28,15.77-16.28s0.49-14.93,1.24-24.92
	s-2.36-7.79-2.36-7.79l-0.24,28.42c0,0.07,0,0.14,0,0.22v-24.91l0.24-3.61v-0.1l0,0v-0.77l1.97-29.31c0,0,14.41-48.84,16.64-58.21
	c1.59-6.66,0.93-26.72,0.41-37.81c0-0.51,0-1-0.08-1.47c4.47-0.4,8.42-0.44,10-0.44h0.73c0,0-0.74-78.44-2.61-108
	s-4.84-56.61-12.29-64.75c-4.5-4.92-10.77-20.11-15-31.36c8.89,3.84,18.12,6.86,27.57,9c23.59,4.94,20.36-15.54,20.36-15.54
	l-2.39-38.73h0.16c-0.09-10.15-0.96-20.27-2.6-30.28c-1.25-7.68-3.16-15.62-6.08-22c2.56-1,5.09-2.07,7.57-3.17
	c6.41-2.83,13.63-6.84,14.55-13.75h-0.31C769.59,265.25,769.67,264.74,769.71,264.23z M623.48,320.23L623.48,320.23
	c0.05,4-0.1,10.94-0.34,18.61l-7.49-10l7.51-12.18L623.48,320.23z M726.96,355.67l-12.48-4c2.21-3.45,4.8-6.65,7.71-9.54l1.08-1
	l-0.39,0.08l0.6-0.55l0.36-0.08l-0.57,0.55l0.68-0.14c0.75,3.14,2.2,6.06,4.25,8.55c4.48,4.89-1.23,6.13-1.23,6.13H726.96z"/>
<polygon class="st13" points="651.15,715.66 649.69,743.34 640.38,741.01 638.42,729.5 "/>
<polygon class="st6" points="651.15,715.66 649.69,743.34 640.38,741.01 638.42,729.5 "/>
<path class="st14" d="M685.32,747.01l14.2,2.94l10.53-9.3v-26.21l0.24-3.58v-0.11l0,0v-0.76l1.96-29.13c0,0,14.21-48.49,16.42-57.8
	c1.56-6.6,0.91-26.52,0.39-37.53c-0.21-4.51-0.39-7.53-0.39-7.53l-31.35-7.59l-0.66,24.1l-2.29,84.44
	c-0.16,5.38-1.24,10.7-3.21,15.71l-0.11,0.29c-2.73,7.07-4.26,14.55-4.55,22.12l-1.06,26.85v0.74L685.32,747.01z"/>
<path class="st6" d="M710.29,710.01v0.74l0,0v-0.76V710.01z"/>
<path class="st6" d="M685.32,747.01l14.2,2.94l10.53-9.3v-2.23c-0.07,1-0.64,1.9-1.51,2.4l-0.15,0.09
	c-4.89,2.59-10.43,3.68-15.94,3.15l-5.54-0.47c-0.5,0.05-1,0.17-1.47,0.36v0.74L685.32,747.01z"/>
<path class="st5" d="M708.39,741.64l0.15-0.08c0.94-0.53,1.52-1.52,1.53-2.6l0.23-28.21c0,0,3.06-2.19,2.32,7.73
	s-1.22,24.74-1.22,24.74s-0.12,16.16-15.55,16.16c0,0-15.43,2.94-15.31-5.88s6.37-9.18,6.37-9.18l5.54,0.48
	C697.96,745.33,703.5,744.23,708.39,741.64z"/>
<path class="st14" d="M611.36,741.01c0.36,6.37,19.1,2.69,19.1,2.69l12.61-24.48c0,0,10.53-8.09,5.26-15.19
	c-0.28-0.39-0.54-0.79-0.77-1.21c0,0,0,0-0.05-0.06l0,0c-0.11-0.18-0.21-0.37-0.31-0.57l0,0c-3.78-7.5-1.92-19.8-1.92-19.8
	s4.89-35.76,6.61-45.19c1.21-6.66,0.71-28.51,0.31-40.73c-0.16-5.08-0.31-8.49-0.31-8.49l-31.11-8.33c0,0,0,3.88,0,9.28
	c-0.07,7.67-0.31,18.4-1.1,25.38c-1.34,11.87,3.43,51.18,3.43,51.18l1.65,35.77c0.29,6.06-1.1,12.08-4,17.41
	c-3.9,7.14-9,17.2-9.35,21.65C611.38,740.55,611.36,740.78,611.36,741.01z"/>
<path class="st6" d="M611.36,741.01c0.36,6.37,19.1,2.69,19.1,2.69l12.61-24.48c0,0,10.53-8.09,5.26-15.19
	c-0.28-0.39-0.54-0.79-0.77-1.21c-0.17,3.71-4.24,13-4.24,13s-10.41,20.83-13.72,25.6s-17.69-0.89-18.23-1.09
	C611.35,740.56,611.35,740.78,611.36,741.01z"/>
<path class="st5" d="M647.2,702.16c0,0,6.16-1.43,4.32,14.61l0,0c0.14,3.71-1.72,7.21-4.87,9.17c-4.41,2.77-11.21,8.73-14.65,20.32
	l0,0c0.01,5.15-3.54,9.62-8.55,10.8c-5.56,1.3-12.49,2.44-16.5,1.32c-7.47-2.08-4.16-7.22-4.16-7.22l8.57-10.17
	c0,0,14.94,5.88,18.24,1.1s13.72-25.59,13.72-25.59S649.03,703.51,647.2,702.16z"/>
<path class="st6" d="M697.32,573.38l-0.66,24.1c8.35-0.81,14.33-1.94,15.35-3.53c2.21-3.42,10.23-4.86,17.05-5.45
	c-0.21-4.51-0.39-7.53-0.39-7.53L697.32,573.38z"/>
<path class="st6" d="M620.78,591.86c0.8-1.63,1.97-3.05,3.43-4.14c3.3-1.83,2.94,11.76,2.94,11.76s11,0.1,25.05-0.08
	c-0.16-5.08-0.31-8.5-0.31-8.5l-31.11-8.32C620.78,582.58,620.84,586.44,620.78,591.86z"/>
<path class="st4" d="M617.23,595.08c0,0,3.68-10,7-11.78s2.94,11.75,2.94,11.75s80.82,0.74,84.86-5.51s27.55-5.88,27.55-5.88
	s-0.73-77.88-2.57-107.26s-4.77-56.21-12.12-64.29c-4.75-5.23-11.51-22.15-15.69-33.43c-2.27-6.16-3.78-10.65-3.78-10.65l-77.14,4.4
	l-0.63,6.25l-8.19,81.92c0,0-1.1,90.37-4.41,110.94S617.23,595.08,617.23,595.08z"/>
<g class="st15">
	<path d="M705.75,589.54c4-6.24,27.55-5.88,27.55-5.88s-0.73-77.88-2.57-107.26s-4.77-56.21-12.12-64.29
		c-4.77-5.25-11.51-22.15-15.69-33.43c-1.91-5.18-3.28-9.17-3.66-10.31l6-0.34c0,0,1.51,4.49,3.79,10.65
		c4.18,11.28,10.93,28.2,15.68,33.43c7.35,8.08,10.29,34.9,12.12,64.29s2.58,107.26,2.58,107.26s-23.51-0.36-27.56,5.88
		c-3.45,5.33-62.92,5.58-80.18,5.53C653.84,595.02,702.63,594.36,705.75,589.54z"/>
	<path d="M617.95,583.3c1.49-0.83,2.23,1.47,2.6,4.26c-1.34,2.42-2.49,4.93-3.47,7.52c0,0-2.13-1.15-3-7
		C615.3,585.99,616.65,584.02,617.95,583.3z"/>
</g>
<path class="st10" d="M641.07,179.6c-5.34,7.28,0.06,17.63-5.67,24.71c-1.89,2.34-4.8,4-6.77,6.3c-3.65,4.26-3.51,10.05-1.72,15.05
	s5,9.56,7.28,14.44c1,2.11,1.74,4.48,0.74,6.58c-0.7,1.46-2.15,2.57-3.28,3.83c-3.68,4.11-3.78,9.82-1.8,14.66
	c1.98,4.84,5.76,9,9.49,13.1c1.47,1.61,3.33,3.39,5.78,3.34c1.29-0.1,2.53-0.51,3.63-1.19c17.62-9,25.04-30.28,16.84-48.29
	c-3.1-7.43-8.27-14.55-8.32-22.4c0-6.23,3.2-12.18,3.77-18.38c0.69-7.54-3.77-19.51-12.87-22.8
	C648.77,173.39,643.78,175.86,641.07,179.6z"/>
<path class="st6" d="M641.07,179.6c-5.34,7.28,0.06,17.63-5.67,24.71c-1.89,2.34-4.8,4-6.77,6.3c-3.65,4.26-3.51,10.05-1.72,15.05
	s5,9.56,7.28,14.44c1,2.11,1.74,4.48,0.74,6.58c-0.7,1.46-2.15,2.57-3.28,3.83c-3.68,4.11-3.78,9.82-1.8,14.66
	c1.98,4.84,5.76,9,9.49,13.1c1.47,1.61,3.33,3.39,5.78,3.34c1.29-0.1,2.53-0.51,3.63-1.19c17.62-9,25.04-30.28,16.84-48.29
	c-3.1-7.43-8.27-14.55-8.32-22.4c0-6.23,3.2-12.18,3.77-18.38c0.69-7.54-3.77-19.51-12.87-22.8
	C648.77,173.39,643.78,175.86,641.07,179.6z"/>
<path class="st6" d="M700.29,444.41c-10.69,0.56-20.75,5.16-30.11,10.36c-9.36,5.2-18.42,11.09-28.49,14.78"/>
<path class="st6" d="M693.65,469.6c-10.57,1.01-20.43,5.8-27.75,13.5c-2.6,2.75-4.84,5.83-7.55,8.47
	c-4.15,4.05-9.27,6.95-14.88,8.43"/>
<path class="st6" d="M695.84,488.77c-8.53,2.37-16.25,7.02-22.32,13.46c-1.64,1.77-3.13,3.66-4.77,5.43
	c-8.85,9.5-21.35,14.54-33.42,19.31"/>
<path class="st16" d="M694.93,222.92c0.24,8.54,0.97,17.06,2.2,25.52c1,6,2.4,11.4,4.41,13.79c5.88,7-28.65,16.35-28.65,16.35
	l-20.39-15.8c0,0,16.16-14.88,8.63-29.39S694.93,222.92,694.93,222.92z"/>
<path class="st6" d="M627.63,378.68h81.55c-2.27-6.16-3.78-10.65-3.78-10.65l-77.14,4.4L627.63,378.68z"/>
<path class="st7" d="M622.38,377.21h87.19c-2.45-8.77,0-16.88,3.49-23.12c2.45-4.37,5.52-8.36,9.13-11.84l0.6-0.55l30.44-6.74
	l1.64-0.36c0,0,0.25-55.35-19.35-62.95c-19.6-7.6-31.35-17.87-31.35-17.87l-26.93,8.32l-19.84-10c-6.37,6.85-23.27,4.16-23.27,4.16
	c-27.67,3.18-27.67,24-27.67,24s16.16,37.71,17.39,37.71S622.38,377.21,622.38,377.21z"/>
<path class="st6" d="M652.48,342.02c0,0-17.78-3.94-23.83-10.83"/>
<path class="st6" d="M742.13,321.37l-20.62,16.9c0.15,1.35,0.38,2.68,0.68,4l0.6-0.55l30.44-6.74L742.13,321.37z"/>
<path class="st6" d="M686.3,371.33c0,0,4.51,2.54,11.42,5.88h11.85c-2.45-8.77,0-16.88,3.49-23.12l-20.89-6.76
	C699.28,353.94,686.3,371.33,686.3,371.33z"/>
<path class="st7" d="M618.7,273.62l-12.24,6.61l-12,30.37c0,0-12.49,33.3-11.27,42.12c0,0-4.4,20.82,3.43,24.49l20.4,9.24
	c0.96,0.42,2.08-0.01,2.51-0.97c0.23-0.53,0.21-1.14-0.06-1.65c-2.91-5.51-6.11-14.13-1-18.87l-5.88-12.24l21.25-34.78l7.1-12
	L618.7,273.62z"/>
<path class="st6" d="M645.93,335.07c1.06,4.32,4.64,11,16.49,13.49l13,10.65l13.83,6.27l5.64,2.55l2.39-17.27l-5.43-3l-6.33-3.46
	c0,0-14.28-25.87-36.89-15C646.46,330.33,645.33,332.75,645.93,335.07z"/>
<path class="st14" d="M646.67,333.6c1.06,4.33,4.63,11,16.48,13.49l13,10.65l13.84,6.27l5.63,2.55l2.39-17.27l-5.43-3l-6.28-3.43
	c0,0-14.29-25.87-36.9-14.95C647.26,328.92,646.12,331.3,646.67,333.6z"/>
<circle class="st6" cx="672.15" cy="213.73" r="31.59"/>
<circle class="st14" cx="672.15" cy="213" r="31.59"/>
<path class="st6" d="M691.72,280.5l-9.5-18.46c0,0,13.9-5.62,14.91-12.13c1.01-6.51,13.32,7.63,10.66,12.32
	S691.72,280.5,691.72,280.5z"/>
<path class="st7" d="M691.72,279.03l-9.5-18.46c0,0,13.9-5.62,14.91-12.13s13.32,7.64,10.66,12.32S691.72,279.03,691.72,279.03z"/>
<path class="st17" d="M613.97,326.72l52.49,70.57c0,0-19.35,10.53-46-8.32l-11.51-13.72l-32.86-55.39L613.97,326.72z"/>
<path class="st14" d="M603.64,365.09l4.78-0.13c0,0,29.2-28.34,36.37-14c7.17,14.34-18.19,27.74-18.19,27.74l-7.71,4.16l-10.05,3
	l-6.43-8.63L603.64,365.09z"/>
<path class="st6" d="M610.69,380.4c0.44,1.63,0.86,3.43,0.12,4.94c-0.18,0.4-0.48,0.74-0.87,0.95c-0.32,0.12-0.66,0.17-1,0.14
	c-2.53-0.22-4.88-1.38-6.59-3.26c-1.68-1.87-3.11-3.95-4.27-6.18c-1.3-2.27-2.65-4.78-2.19-7.36c0.52-2.81,3-4.76,5.43-6.34
	c4.84-3.2,5,0.53,6.06,4.65S609.58,376.24,610.69,380.4z"/>
<path class="st7" d="M609.96,380.4c0.43,1.63,0.86,3.43,0.12,4.94c-0.18,0.4-0.48,0.74-0.87,0.95c-0.32,0.12-0.66,0.17-1,0.14
	c-2.53-0.21-4.89-1.38-6.59-3.26c-1.68-1.87-3.12-3.95-4.28-6.18c-1.3-2.27-2.65-4.78-2.18-7.36c0.51-2.81,3-4.76,5.42-6.34
	c4.85-3.2,5,0.53,6.07,4.65S608.84,376.24,609.96,380.4z"/>
<polygon class="st6" points="623.85,317.94 626.29,313.81 624.16,321.48 "/>
<path class="st6" d="M690.03,364.01l5.63,2.55l2.39-17.27l-5.43-3C696.37,350.59,693.09,358.54,690.03,364.01z"/>
<path class="st6" d="M712.63,343.96c0,0-18.18,1.11-25.9-3.85"/>
<g class="st15">
	<path d="M710.37,355.56c2.45-4.38,5.52-8.37,9.13-11.85c0.87-0.54,1.76-1.03,2.69-1.46l28.34-5.82l1.64-0.36
		c0,0,0.25-55.35-19.34-62.95c-10.99-4.18-21.29-9.98-30.56-17.21l2.15-0.66c0,0,11.75,10.28,31.35,17.87
		c19.6,7.59,19.34,62.95,19.34,62.95h-2.94l-29,5.55c0,0-1.25,1.21-1.63,1.56c-3.64,3.64-6.76,7.77-9.27,12.26
		c-3.84,7.12-4.71,15.48-2.43,23.24h-3C704.42,369.91,706.92,361.8,710.37,355.56z"/>
	<path d="M632.97,257.86c0.47-0.07,0.92-0.14,1.41-0.19c1.99,0.28,3.99,0.45,6,0.49C637.91,258.23,635.43,258.13,632.97,257.86z"/>
	<path d="M674.54,263.57l-17.94-9.08c0.36-0.29,0.69-0.61,1-0.95l18.72,9.47L674.54,263.57z"/>
</g>
<path class="st7" d="M742.84,319.86l12,14.7l2.45,39.92c0,0,3.18,20.32-20.08,15.42c-23.26-4.9-50.18-20.04-50.18-20.04
	s13-17.39,5.88-24l33.31,10.78c0,0,5.63-1.23,1.22-6.12c-4.41-4.89-5.19-13.72-5.19-13.72L742.84,319.86z"/>
<path class="st6" d="M748.26,362.03l6.61,7.59C751.4,368.55,748.84,365.61,748.26,362.03z"/>
<polygon class="st6" points="736.99,360.8 747.28,374.02 742.14,375.25 "/>
<path class="st6" d="M634.42,198.5c-1.13-2.77-0.26-6,1.1-8.61s3.23-5.08,4.25-7.89c1.51-4.18,1.05-8.91,2.7-13
	c2.91-7.25,11.18-10.49,18.59-13c2.19-0.73,4.52-1.46,6.76-0.92c3,0.71,4.95,3.43,7.4,5.26c10.06,7.5,26.42-0.76,36.15,7.18
	c3.72,3,5.53,7.91,6.09,12.68s0,9.61-0.06,14.42c-0.16,8.42,1.42,17.63,7.72,23.21c1.9,1.68,4.14,2.94,6,4.68s3.32,4.17,3,6.69
	c-0.25,1.16-0.58,2.29-1,3.4c-1.25,4.39,0.62,9,2.9,13c6.8,11.77,18.79,21.47,32.38,21.74c-0.91,6.86-8,10.84-14.35,13.65
	c-8,3.59-16.52,7.11-25.33,6.66c-8.81-0.45-18-6.09-19.54-14.77c-0.53-3-0.46-6.61-3-8.17c-1.56-0.95-3.58-0.71-5.26-1.42
	c-2.43-1-3.63-3.73-4.43-6.24c-1.64-5.18-2.52-10.57-2.61-16c-0.11-6.44,0.74-13.47-2.91-18.77c-3.38-4.91-9.38-7.4-13.28-11.91
	c-3.6-4.18-7.51-9.22-13.41-10C656.12,199.22,639.24,210.31,634.42,198.5z"/>
<path class="st10" d="M634.42,197.03c-1.13-2.77-0.26-6,1.1-8.61s3.23-5.08,4.25-7.89c1.51-4.18,1.05-8.91,2.7-13
	c2.91-7.26,11.18-10.5,18.59-13c2.19-0.73,4.52-1.46,6.76-0.92c3,0.71,4.95,3.43,7.4,5.26c10.06,7.5,26.42-0.76,36.15,7.18
	c3.72,3,5.53,7.91,6.09,12.69s0,9.6-0.06,14.41c-0.16,8.42,1.42,17.63,7.72,23.21c1.9,1.68,4.14,2.94,6,4.68s3.32,4.17,3,6.69
	c-0.25,1.16-0.58,2.29-1,3.4c-1.25,4.39,0.62,9,2.9,13c6.82,11.73,18.76,21.46,32.35,21.73c-0.91,6.86-8,10.84-14.35,13.66
	c-8,3.58-16.52,7.1-25.33,6.65s-18-6.09-19.54-14.77c-0.53-3-0.46-6.61-3-8.17c-1.56-0.95-3.58-0.71-5.26-1.42
	c-2.43-1-3.63-3.73-4.43-6.24c-1.64-5.18-2.52-10.57-2.61-16c-0.11-6.44,0.74-13.47-2.91-18.77c-3.38-4.91-9.38-7.4-13.28-11.91
	c-3.6-4.18-7.51-9.22-13.41-10C656.12,197.75,639.24,208.86,634.42,197.03z"/>
<path class="st6" d="M656.84,278.21l18.11-14.7c0,0-12.4-6.72-13.88-12.45c-1.48-5.73-11.4,2.72-10.39,7.86
	C651.69,264.06,656.84,278.21,656.84,278.21z"/>
<path class="st7" d="M657.55,276l18.11-14.69c0,0-12.4-6.72-13.82-12.45s-11.4,2.72-10.39,7.86C652.46,261.86,657.55,276,657.55,276
	z"/>
<circle class="st18" cx="676.37" cy="273.61" r="1.44"/>
<circle class="st18" cx="676.37" cy="281.61" r="1.44"/>
<circle class="st18" cx="676.37" cy="289.6" r="1.44"/>
<g class="st15">
	<path d="M641.73,176.61c1.43-3.93,1.12-8.34,2.46-12.3c-0.62,0.88-1.13,1.82-1.53,2.82c-1.66,4.13-1.19,8.86-2.71,13l-0.1,0.24
		C640.59,179.18,641.22,177.92,641.73,176.61z"/>
	<path d="M755.98,275.6c-8,3.58-16.52,7.1-25.33,6.65s-18-6.09-19.54-14.76c-0.53-3-0.46-6.62-3-8.18
		c-1.56-0.95-3.58-0.71-5.26-1.42c-2.43-1-3.63-3.73-4.43-6.24c-1.64-5.18-2.52-10.57-2.61-16c-0.11-6.43,0.75-13.46-2.9-18.77
		c-3.39-4.91-9.39-7.39-13.29-11.91c-3.6-4.17-7.51-9.22-13.41-10c-8.09-1.1-25,10-29.78-1.82c-0.77-2.23-0.66-4.68,0.31-6.83
		c-0.35,0.59-0.69,1.18-1,1.78c-1.36,2.66-2.22,5.85-1.09,8.62c4.81,11.8,21.69,0.71,29.78,1.82c5.9,0.8,9.81,5.85,13.41,10
		c3.9,4.52,9.9,7,13.28,11.92c3.66,5.3,2.8,12.33,2.91,18.76c0.09,5.43,0.97,10.82,2.61,16c0.8,2.52,2,5.22,4.43,6.24
		c1.68,0.71,3.7,0.48,5.26,1.42c2.58,1.56,2.51,5.21,3,8.18c1.56,8.67,10.74,14.31,19.54,14.76s17.28-3.06,25.33-6.65
		c5.8-2.58,12.26-6.15,14-12C765.42,270.97,760.5,273.59,755.98,275.6z"/>
</g>
<linearGradient id="SVGID_3_" gradientUnits="userSpaceOnUse" x1="876.0056" y1="32.543" x2="876.0056" y2="620.1619" gradientTransform="matrix(1 0 0 -1 -31.16 839.86)">
	<stop  offset="0" style="stop-color:#808080;stop-opacity:0.25"/>
	<stop  offset="0.54" style="stop-color:#808080;stop-opacity:0.12"/>
	<stop  offset="1" style="stop-color:#808080;stop-opacity:0.1"/>
</linearGradient>
<path class="st19" d="M932.71,332.04c-21.17-12.18-29.17-15.18-29.21-15.18l-0.44-0.31c-2.31-1.77-4.14-4.09-5.33-6.74
	c-0.02-0.48-0.02-0.97,0-1.45c-0.01,0.05-0.01,0.09,0,0.14c0.33-6.45,4.92-12.32,9.27-17.44l11.13-13.09
	c1.26-1.3,2.24-2.84,2.87-4.54c0.22-0.91,0.33-1.85,0.3-2.79c0-0.38,0-0.76,0-1.14c-0.06-3.25-0.15-6.51-0.27-9.76
	c-0.1-2.84-0.83-6.42-3.67-7c-1.48-0.3-3.44,0.23-4.22-1c-0.26-0.52-0.33-1.12-0.19-1.69c-0.01,0.05-0.01,0.09,0,0.14v-0.16
	c0.55-2.19,0.9-4.43,1.05-6.69c0.06-1.15-0.09-2.3-0.46-3.39c-1.64-4.71-7.31-6.65-12.32-7.54s-10.63-1.65-13.77-5.57
	c-0.84-1.31-1.76-2.57-2.74-3.77c-1.45-1.29-3.22-2.16-5.12-2.53c-6.22-1.53-12.77-0.96-18.63,1.62c-2.42,1.08-4.85,2.54-7.51,2.38
	s-5.12-2.08-7.84-2.54c-4.4-0.75-8.61,2.48-10.78,6.31c-1.29,2.27-1.97,4.83-2,7.44v0.44l0,0c-0.06,2.81,0.96,5.53,2.86,7.6
	c1.9,2,4.72,3.32,5.51,5.91c0.32,1.05,0.24,2.19,0.53,3.26c0.03,0.13,0.07,0.26,0.12,0.39l-0.14,0.19c-4.54,5.81-7,12.97-7,20.34
	c0.1,14.69,9.69,27.63,23.72,32c0,0.33,0,0.66,0,1c0,4-1.15,8.17-4.6,11.2l-29.99,11.98c0,0-18.08-2.15-24.6,24.27
	c-1.04,4.39-1.42,8.9-1.12,13.4c0.24,4-0.31,11-5,20.07c-7.41,14.52-5.72,47.85,9.44,51.15c14.31,3.12,19.91,1.82,20.5,1.67v0.58
	c-0.24,6.26-2.51,60.2-10.76,66.72c-2.28,1.81-1.86,3,0,3.85c0,0,0,0.35-0.05,1c-0.25,4-1.52,19-7,27.52c-6.41,9.9-5.74,67-5.74,67
	l-4.37,33.66c0,0,2.69,20.79,0,24.42c-2.41,3.23-5.61,80.14-6.28,96.82h-0.28c-2.69,0.18-5.12,1.67-6.48,4
	c-3.54,5.75-15.94,16.38-15.94,16.38c-2.69,3.82-12.64,7.48-17.9,9.2c-0.69,0.23-1.36,0.52-2,0.88c-1.97,1.07-3.55,2.74-4.52,4.76
	c-0.7,1.21-0.87,2.66-0.48,4c1.34,3.29,29.31,5.61,36.39,2.3c5.56-2.59,27.6-6,36.75-7.34c3.42-0.43,6.11-3.12,6.54-6.54
	c0.18-1.16-0.13-2.34-0.84-3.27l0,0c-1.75-2.17-2.64-8.1-3-12c0.74-0.3,1.44-0.71,2.06-1.22c-0.76-11.99,0.94-24.01,5-35.31
	c6.74-17.82,8.76-50.82,7.08-72.27c0,0,20.55-88.44,36.73-96.69l0,0c0.25,0.32,8.1,10.39,9.1,41.58c1,31.68,12.46,52.47,12.46,52.47
	s-5.06,53.79,0,73.92l-6.61,31.75c-0.49-0.41-0.8-0.73-0.8-0.73s0.2,0.88,0.47,2.29l-0.14,0.68l0.29,0.06c0.75,4,1.86,10.89,1.4,15
	c-0.26,2.31-0.91,5.48-1.35,8.59c-0.7,4.89-0.89,9.63,1.68,10.67c4.22,1.7,29,4,33.2-1.44c1.93-2.26,2.4-5.42,1.22-8.15
	c-0.3-0.75-0.71-1.45-1.22-2.08c0,0-6.58-10.75-4.72-18.33c0.35-1.5,0.06-3.07-0.79-4.35c0.29-3.72,1.79-20.94,5.67-35.56
	c4.22-15.88,13.11-50.7,6.57-73.59l0,0c-0.25-0.9-0.53-1.78-0.84-2.64c-3.77-12.5-5.04-25.62-3.71-38.61
	c-2.43-11.09-2.43-22.57,0-33.66c4.05-18.48,6.88-36.63,6.88-36.63s2.23-24.42,0.28-39.39c0-0.32-0.09-0.64-0.13-1l1.06-0.24
	c0,0-5.73-25.41-7.75-41.58c-0.48-3.82-1.1-8.65-1.78-13.81c1.86-0.31,3.7-0.77,5.49-1.37c18.19-6.27,23.92-63,23.92-63v-18
	C947.82,371.92,953.94,344.25,932.71,332.04z M797.15,770.28c-0.56-0.28-0.89-0.47-0.89-0.47l0,0L797.15,770.28z"/>
<path class="st20" d="M921.73,659.57c7.89,22.69-1.32,59.52-5.6,76s-5.59,36.18-5.59,36.18c-16.77,2.63-28.94-0.66-28.94-0.66
	l6.91-33.87c-4.94-20.06,0-73.67,0-73.67s-11.18-20.72-12.17-52.29c-1-31.07-8.63-41.12-8.87-41.43l0,0
	c-15.78,8.22-35.84,96.36-35.84,96.36c1.64,21.37-0.34,54.26-6.91,72c-3.99,11.28-5.67,23.24-4.93,35.18c-2.3,2-5.5,2.28-9,1.72
	c-9.39-1.52-20.65-9.61-20.65-9.61s3.61-96,6.25-99.64s0-24.34,0-24.34l4.27-33.54c0,0-0.66-56.9,5.59-66.76
	c5.4-8.52,6.64-23.5,6.88-27.43c0-0.62,0-1,0-1l9.52-11.4c0,0,92.08-6.91,99,0c1.69,1.69,2.74,5.55,3.36,10.4
	c1.9,14.92-0.28,39.25-0.28,39.25s-2.76,18.09-6.71,36.5c-2.37,11.06-2.37,22.49,0,33.55C916.75,634.02,918.01,647.1,921.73,659.57z
	"/>
<path class="st13" d="M915.97,803.77c-4.11,5.43-28.28,3.13-32.4,1.44c-2.51-1-2.32-5.77-1.64-10.64c0.43-3.09,1.06-6.25,1.32-8.55
	c0.65-5.92-2-17.93-2-17.93s5.42,5.76,6.73,0c0.58-2.52,2.6-3.81,4.7-4.46c2.82-0.85,5.85-0.66,8.54,0.53
	c4.27,1.86,11.39,5.81,10.12,11.15c-1.81,7.55,4.6,18.27,4.6,18.27c0.5,0.63,0.9,1.32,1.2,2.06
	C918.3,798.36,917.85,801.49,915.97,803.77z"/>
<path class="st6" d="M915.97,803.77c-4.11,5.43-28.28,3.13-32.4,1.44c-2.51-1-2.32-5.77-1.64-10.64c2.6,1.22,7,2.23,14.37,1.55
	c1.72-0.16,3.45-0.22,5.17-0.16c5.23,0.24,10.48,0.13,15.7-0.32C918.32,798.36,917.86,801.5,915.97,803.77z"/>
<path class="st6" d="M831.62,666.15c1.64,21.37-0.34,54.26-6.91,72c-3.99,11.28-5.67,23.24-4.93,35.18c-2.3,2-5.5,2.28-9,1.72
	c2-13.87,10.44-73.63,15.85-120.85c6.17-53.77,35-90.76,35-90.76l5.75,6.33C851.68,578.01,831.62,666.15,831.62,666.15z"/>
<path class="st21" d="M906.1,320.51l-4,19.73l-19.67,33.05l-24.25-10.36c0,0-33-34.53-12.25-39.46c2.48-0.53,4.82-1.58,6.88-3.06
	c4.07-3.07,5.35-7.53,5.37-11.9c-0.15-4.89-1.29-9.7-3.34-14.14l42.42-13.32c-1.73,5.57-2.74,11.35-3,17.18
	c-0.33,11.56,4,17.25,7.49,20C903.04,319.26,904.52,320.04,906.1,320.51z"/>
<path class="st6" d="M897.22,281.05c-1.73,5.57-2.74,11.35-3,17.18c-0.77,0.92-1.6,1.8-2.47,2.63c-8.92,8.52-21.8,11.46-33.54,7.65
	c-0.16-4.89-1.31-9.7-3.37-14.14L897.22,281.05z"/>
<path class="st21" d="M902.09,275.62c0.01,18.53-15.01,33.55-33.54,33.56c-18.53,0.01-33.55-15.01-33.56-33.54
	c-0.01-18.53,15.01-33.55,33.54-33.56c0,0,0.01,0,0.01,0c18.44-0.09,33.46,14.79,33.55,33.23
	C902.09,275.41,902.09,275.52,902.09,275.62z"/>
<path class="st6" d="M906.1,320.51l-4,19.73l-19.67,33.05l-24.25-10.36c0,0-33-34.53-12.25-39.46c2.48-0.53,4.82-1.58,6.88-3.06
	c-3.74,10.28,11.7,31.67,11.7,31.67c1.8,2.65,5.92,1,5.92,1c9.95-1.51,28.26-30.12,31.25-34.88
	C902.99,319.25,904.49,320.04,906.1,320.51z"/>
<path class="st6" d="M925.09,511.79c-5.84,1.33-38.15,8.48-50.4,6.69c-13.48-2-39.69-3.28-39.69-3.28s-16.69,0.9-21.83-1.45
	c0-0.62,0-1,0-1l9.52-11.4c0,0,92.08-6.91,99,0C923.42,503.08,924.47,506.94,925.09,511.79z"/>
<path class="st7" d="M864.5,353.07c0,0-17.35-24-10.81-33.4l-29.31,12c0,0-17.64-2.14-24,24.19c-1.02,4.38-1.38,8.88-1.09,13.36
	c0.24,4-0.3,11-4.83,20c-7.23,14.47-5.59,47.69,9.21,51s20.05,1.64,20.05,1.64s-2,60.18-10.52,67.09s21.8,5.26,21.8,5.26
	s26.21,1.32,39.7,3.29s51.3-6.91,51.3-6.91s-5.59-25.32-7.57-41.43s-6.59-50.43-6.59-50.43l33.54-45.44c0,0,5.92-27.46-14.8-39.63
	c-20.72-12.17-28.51-15.15-28.51-15.15s-20.82,33.9-31.67,35.54C870.42,354.05,866.3,355.71,864.5,353.07z"/>
<path class="st6" d="M826.02,362.6c0,0-0.32,10.86,1.65,15.13s9.21,28,9.21,28h-16.45c0,0,8.88-9.54,8.23-14.15
	S826.02,362.6,826.02,362.6z"/>
<path class="st21" d="M874.7,444.49c0,0-36.32-8.88-39.7-16.44s-12.71-24.49-12.71-24.49l3.83-5.16l17.66,13.86
	c0,0,21,16.77,30.92,18.42S874.7,444.49,874.7,444.49z"/>
<path class="st22" d="M874.7,444.49c0,0-36.32-8.88-39.7-16.44s-12.71-24.49-12.71-24.49l3.83-5.16l17.66,13.86
	c0,0,21,16.77,30.92,18.42S874.7,444.49,874.7,444.49z"/>
<path class="st21" d="M906.1,401.74v19.7h-3.16c-15.65,0-31.04,3.98-44.72,11.58l-5.94,3.29l-1.59,0.89l-10.2-23l9.54-8.55h0.49
	c2.33,0.23,12.42,1.07,16.7-0.37c4.06-1.38,9.1-5.75,21.06-2.7c5.89,1.51,10.93,8.11,16.64,6.05L906.1,401.74z"/>
<path class="st6" d="M937.84,365.86l6.57,7.4v17.93c0,0-5.59,56.56-23.34,62.81s-49.46-3.62-49.46-3.62s-8.19-21.7-4.36-23
	s33.85-9.24,33.85-9.24s-0.42-33.18,6.15-43.05c0,0-4.27-30.91,10.53-31.57C932.58,342.86,937.84,365.86,937.84,365.86z"/>
<path class="st7" d="M938.84,365.86l6.58,7.4v17.93c0,0-5.59,56.56-23.35,62.81s-49.46-3.62-49.46-3.62s-8.19-21.7-4.35-23
	s33.85-9.24,33.85-9.24s-0.43-33.18,6.15-43.05c0,0-4.28-30.91,10.52-31.57C933.58,342.86,938.84,365.86,938.84,365.86z"/>
<path class="st6" d="M892.89,289.86c0.28-2.17,0.03-4.37-0.75-6.41c-0.93-2-3.1-3.51-5.22-3c-2.81,0.66-4,4.32-6.78,5.2
	c-2.33,0.74-4.87-0.91-6-3.08s-1.14-4.72-1.14-7.16c0-2.74,0-5.49,0-8.24c0-3-0.1-6.22-1.94-8.57c-2.29-2.92-7.68-4.2-11.28-4.08
	c-2.4,0.03-4.69,0.95-6.44,2.59c-1.92,1.64-4.15,2.84-6.77,2.41c-2.23-0.33-4.07-1.92-4.72-4.08v-0.1
	c11.13-14.8,32.16-17.78,46.97-6.64c14.8,11.13,17.78,32.16,6.64,46.97c-1.13,1.5-2.38,2.91-3.75,4.2
	C892.29,296.55,892.68,293.21,892.89,289.86z"/>
<path class="st23" d="M846.57,258.55c-2.23-0.34-4.07-1.93-4.73-4.09c-0.27-1.06-0.2-2.19-0.51-3.24c-0.77-2.59-3.53-3.93-5.38-5.9
	c-3.7-3.93-3.46-10.39-0.84-15.12c2.12-3.81,6.22-7,10.52-6.28c2.66,0.46,5,2.35,7.66,2.53s5-1.29,7.33-2.37
	c5.71-2.59,12.14-3.17,18.22-1.62c1.87,0.37,3.59,1.25,5,2.53c0.96,1.2,1.85,2.45,2.67,3.75c3.06,3.9,8.55,4.67,13.44,5.55
	s10.42,2.82,12,7.52c1.07,3.12,0,6.5-0.58,9.74c-0.19,0.66-0.15,1.37,0.13,2c0.77,1.26,2.68,0.73,4.12,1c2.77,0.59,3.48,4.16,3.59,7
	c0.11,3.24,0.2,6.48,0.26,9.73c0.08,1.21-0.02,2.42-0.29,3.6c-0.6,1.69-1.55,3.23-2.79,4.53l-10.86,13.05
	c-4.82,5.78-9.93,12.52-9,20c-2.28,1-5-0.95-5.74-3.34c-0.74-2.39-0.15-5,0.36-7.41c0.89-4.24,1.47-8.53,1.74-12.85
	c0.28-2.16,0.03-4.36-0.75-6.4c-0.93-2-3.1-3.51-5.22-3c-2.82,0.66-4,4.32-6.78,5.2c-2.33,0.74-4.87-0.91-6-3.08
	s-1.14-4.71-1.14-7.15v-8.25c0-3-0.1-6.22-1.94-8.57c-2.29-2.92-7.68-4.2-11.28-4.08c-2.39,0.03-4.69,0.95-6.43,2.59
	C851.42,257.77,849.19,258.98,846.57,258.55z"/>
<path class="st6" d="M854.14,361.78l10.3,42.31C864.44,404.09,872.56,404.04,854.14,361.78z"/>
<path class="st6" d="M889.33,354.71c0,0-13.48,22.08-8.22,44.92l2.51,0.18C883.62,399.81,879.14,389.24,889.33,354.71z"/>
<path class="st6" d="M897.84,479.68c0,0,16.56-5.48,17.76,7.23C915.64,486.91,912.52,478.2,897.84,479.68z"/>
<path class="st6" d="M850.03,406.67c0,0-3.29,23,2.63,32.23c0,0-12,4.93-28.94,3.95l-2-36.18L850.03,406.67z"/>
<path class="st6" d="M852.28,436.31l-1.59,0.89l-10.2-23l9.54-8.55h0.49l0,0C850.37,406.79,847.71,426.56,852.28,436.31z"/>
<path class="st7" d="M850.03,405.69c0,0-3.29,23,2.63,32.22c0,0-12,4.94-28.94,3.95l-11.51-36.17H850.03z"/>
<path class="st13" d="M821.59,789.77c-0.39,3.38-3.02,6.06-6.39,6.52c-8.93,1.33-30.44,4.73-35.87,7.32c-6.91,3.29-34.2,1-35.52-2.3
	c-0.38-1.34-0.22-2.78,0.47-4c0.94-2,2.48-3.66,4.41-4.74c0.64-0.36,1.31-0.65,2-0.88c5.14-1.71,14.85-5.35,17.47-9.17
	c0,0,12.11-10.59,15.56-16.31c1.32-2.29,3.69-3.76,6.32-3.94c2.88-0.13,6.09,1.32,7.41,7.63c0,0,15.77,9,20,1.11
	c0,0,0.66,12.12,3.28,15.44l0,0C821.45,787.39,821.76,788.59,821.59,789.77z"/>
<path class="st6" d="M821.59,789.77c-0.39,3.38-3.02,6.06-6.39,6.52c-8.93,1.33-30.44,4.73-35.87,7.32c-6.91,3.29-34.2,1-35.52-2.3
	c-0.38-1.34-0.22-2.78,0.47-4c0.94-2,2.48-3.66,4.41-4.74c4.45,3,14.33,5.84,36.06,2.45c20.73-3.24,31-6.41,36-8.57l0,0
	C821.47,787.4,821.77,788.6,821.59,789.77z"/>
<g class="st15">
	<path d="M911.32,252.01v-0.16c0.47-2.46,1.18-5,1-7.47c-0.21,2.02-0.54,4.02-1,6C911.2,250.92,911.2,251.47,911.32,252.01z"/>
	<path d="M892.13,282.79c0.52,1.19,0.8,2.46,0.81,3.76c0.15-1.79-0.13-3.58-0.81-5.24c-0.92-2-3.09-3.51-5.21-3
		c-2.82,0.66-4,4.32-6.79,5.2c-2.32,0.74-4.86-0.91-6-3.08s-1.14-4.72-1.14-7.16c0-2.75,0-5.49,0-8.24c0-3-0.1-6.22-1.94-8.57
		c-2.3-2.93-7.68-4.2-11.28-4.09c-2.4,0.03-4.69,0.96-6.44,2.6c-1.93,1.64-4.15,2.84-6.78,2.41c-2.23-0.34-4.06-1.93-4.72-4.08
		c-0.27-1.06-0.2-2.2-0.51-3.25c-0.77-2.58-3.53-3.93-5.38-5.89c-1.74-1.92-2.72-4.41-2.77-7c-0.28,3.07,0.73,6.12,2.77,8.43
		c1.85,2,4.61,3.31,5.38,5.89c0.31,1,0.24,2.19,0.51,3.25c0.66,2.15,2.49,3.74,4.72,4.08c2.63,0.43,4.85-0.77,6.78-2.41
		c1.75-1.64,4.04-2.57,6.44-2.6c3.6-0.11,9,1.16,11.28,4.09c1.84,2.35,1.93,5.58,1.94,8.57c0,2.75,0,5.49,0,8.24
		c0,2.44,0,5,1.14,7.15c1.14,2.15,3.65,3.83,6,3.09c2.76-0.88,4-4.54,6.79-5.2C889.04,279.28,891.21,280.86,892.13,282.79z"/>
	<path d="M919.16,273.74c-0.6,1.69-1.56,3.23-2.8,4.52l-10.86,13.05c-4.57,5.49-9.4,11.85-9,18.86c0.33-6.43,4.81-12.28,9-17.38
		l10.86-13.05c1.24-1.29,2.2-2.83,2.8-4.52c0.27-1.18,0.37-2.4,0.29-3.61C919.43,272.33,919.34,273.04,919.16,273.74z"/>
	<path d="M890.84,307.97c-0.18-0.57-0.29-1.16-0.33-1.76c-0.09,1.09,0.02,2.19,0.33,3.24c0.74,2.38,3.45,4.35,5.74,3.33
		c-0.06-0.48-0.1-0.96-0.12-1.44C894.18,312.25,891.54,310.31,890.84,307.97z"/>
</g>
<path class="st6" d="M781.53,769.22c0,0,3.44,6,15.9,0.72"/>
<path class="st6" d="M886.84,770.68c0,0,10.74,12.65,24.28,4.15"/>
<path class="st6" d="M918.1,621.09c0,0-7.59,4.74-7.83,7.45s3.92-2,3.92-2L918.1,621.09z"/>
<path class="st6" d="M921.1,657.45c-2.64,2.2-5.92,3.48-9.35,3.65c-5.68,0.25-5.2,7.65-1.49,5.43S921.1,657.45,921.1,657.45z"/>
<path class="st6" d="M922.54,662.2c0,0-3.64,17.89-6.6,14.44"/>
<linearGradient id="SVGID_4_" gradientUnits="userSpaceOnUse" x1="-300.2234" y1="41.3185" x2="-300.2234" y2="630.1049" gradientTransform="matrix(-1 0 0 -1 17.71 839.86)">
	<stop  offset="0" style="stop-color:#808080;stop-opacity:0.25"/>
	<stop  offset="0.54" style="stop-color:#808080;stop-opacity:0.12"/>
	<stop  offset="1" style="stop-color:#808080;stop-opacity:0.1"/>
</linearGradient>
<path class="st24" d="M219.32,796.28c0,0,22.85,6.27,33.85-2.07s15.77-5.66,15.77-5.66s26.23-1.45,28.39-7.65
	s-10.06-28.72-10.06-28.72c-0.87-2-2.14-4.54-2.71-4.54l0.12-9.5l0,0l3.8-39.75c8.77-22.49,0.16-51.55,0.16-51.55l-1.57-7.21
	c-0.88-4.05-0.36-8.29,1.49-12l15.93-32c0.85-2.12,1.86-4.17,3-6.14c1-1.83,2.33-4.09,4-6.8c0.49-0.78,1-1.59,1.56-2.44
	c1.93-3,4.27-6.4,7.1-10.32c7.05-9.77,10.76-22,12.68-31l0.85,2.82h0.05h0.14l0,0l0.23,0.05l0,0h0.32h0.06l0.41,0.07h0.15l4.9,62.36
	c0.3,24.32,9.23,37.78,9.23,37.78l-1.23,53.69c1.68,12.93-2,30.17-3.69,37.05l-3.86,8.71c-3.09,1.54-5.21,4.5-5.69,7.92
	c-0.76,6.43-7.53,20.29-7.53,20.29c-2.62,3.32-8.31,12.29-8.31,12.29s-2.68,8.66-1.02,11.9s15.54,2.91,15.54,2.91
	c15.85,3.51,28-5,27.23-10.86s2.47-7.35,2.47-7.35c6.3-2,5.69-6.27,5.69-6.27c1.36-8.81-0.33-17.82-4.77-25.54l-1,2.31
	c-0.27-4.62,0.38-9.26,1.9-13.63l-0.58,0.4l-0.18,0.11h-0.06c1-8.77,10.21-25,10.21-25c16.92-29.68,10.77-69.9,10.77-69.9
	l-2.62-12.54l-0.15-4.73c-0.36-11.29,0.5-22.59,2.55-33.7c0.91-4.92,1.85-10.86,2.57-17.41c1.52-13.84,6.42-28.12,8.68-34.17
	l0.67-0.12h0.08c0.92-0.16,1.85-0.32,2.79-0.5h0.18c0,0,0.54-2.92,1-7.89c0.27-3.17,0.49-7.19,0.49-11.81
	c0.07-13.95-2.06-27.82-6.31-41.11l0.51-0.73c0,0,1.21-1.64,3.42-4.48l0,0c4.06-5.16,10.38-13,18.17-21.84
	c13.95-15.91,9.85-32,9.85-32s-10.1-37.01-14.6-59.23c-2.57-12.66-7.39-21.27-11.08-26.35c0.83-3.5,1.3-7.08,1.4-10.68
	c0.3-6.58,0.07-13.44-2.89-19.35c-2.96-5.91-9.26-10.58-15.84-9.79c-0.93,0.22-1.91,0.22-2.84,0c-0.77-0.35-1.42-0.92-1.87-1.63
	c-3.85-5.31-4.1-12.45-2.9-18.89s3.66-12.6,4.76-19.06c1.1-6.46,0.6-13.63-3.51-18.75c-4.83-6-13.25-7.69-19.53-12.2
	c-4.41-3.17-7.72-7.72-12.37-10.53s-9-1.74-14.05-0.68c-8.49,1.79-16.56,2.61-24.59,6.26c-8.13,3.68-15.42,8.99-21.43,15.59
	c-2.13,2.13-3.76,4.7-4.78,7.54c-2,6.61,1.91,13.65,1.09,20.49c-0.58,4.85-3.44,9.07-5.71,13.4c-2.27,4.33-4,9.47-2.22,14
	c2.8,7.08,11.93,8.58,18.57,12.35c0.89,0.43,1.65,1.09,2.2,1.91c1.64,2.86-1.71,5.83-3.82,8.37c-1.21,1.48-2.06,3.22-2.5,5.08
	c-5.58,2.29-9.66,7.21-10.87,13.12c-2.25,10.07,1.21,22.78,4.26,31.18c-3.33,18.71,1,26.09,4.19,28.92
	c3.23,2.77,5.23,6.7,5.56,10.94v0.35c0.21,3.4,0.57,6.79,1.05,10.17l0,0c-0.11-0.79-0.22-1.63-0.28-2
	c-2.61,4.83-7.58,17.17-10.38,37.93c-0.58,4.45-1.43,8.86-2.53,13.21c-2,7.7-2.72,15.68-2.12,23.62l0.5,6.73
	c-0.49,0.01-0.97-0.15-1.36-0.45l3.51,6.43v10.85c0,4.89-0.91,9.74-2.66,14.31c-0.25,0.66-0.52,1.32-0.81,2
	c-0.9,1.83-1.31,3.86-1.18,5.89c-7.55,11.57-24.86,76.41-24.86,76.41c-9.39,21.26,0.77,35,0.77,35s4.92,59.19,5.84,62.25
	s2.96,39.14,2.96,39.14l0,0c0,0.95,0,1.94,0,2.87c-0.55-0.24-1.12-0.4-1.71-0.49c-8.23-0.46-10.46,12.54-10.46,12.54l-16.84,16.08
	c0,0-7.69-1.3-19,7.19S219.32,796.28,219.32,796.28z M387.47,454.19l-0.05-0.18l-0.46,0.27l0,0l-0.19,0.11l-0.09,0.06l0,0
	l-7.76-27.39c-2.08-7.34-2.27-15.09-0.57-22.53l6-26.28l0,0v-6.32l19.07,50.82C404.64,429.6,393.31,446.19,387.47,454.19z"/>
<path class="st25" d="M395.84,536.86c0,0-7.7,18.73-9.66,36.7c-0.71,6.48-1.63,12.34-2.53,17.2c-2,10.97-2.82,22.12-2.46,33.27
	l0.15,4.67l2.5,12.37c0,0,6,39.73-10.57,69c0,0-9.82,17.53-10.12,25.83l-6.65,2.57l-13.44-3.77c0,0,6.49-23.27,4.38-39.58l1.21-53
	c0,0-8.73-13.26-9.03-37.26L334.49,539L395.84,536.86z"/>
<path class="st25" d="M334.49,527.48c0,0-1.65,25.68-14.35,43.38s-15.4,25.38-15.4,25.38l-15.64,31.62
	c-1.81,3.66-2.33,7.83-1.47,11.83l1.54,7.12c0,0,8.46,28.7-0.15,50.91l-4.08,42.9h-23.86c0,0-2-35.65-2.87-38.67
	s-5.74-61.48-5.74-61.48s-10-13.6-0.76-34.59c0,0,20.85-78.55,26.43-77.19S334.49,527.48,334.49,527.48z"/>
<g class="st15">
	<path d="M286.75,646.86l-1.53-7.12c-0.88-4.01-0.37-8.2,1.46-11.88l15.64-31.65c0,0,2.71-7.7,15.4-25.38
		c12.19-17,14.2-41.36,14.34-43.23l2.43-0.12c0,0-1.65,25.68-14.35,43.38s-15.4,25.38-15.4,25.38l-15.64,31.62
		c-1.81,3.66-2.33,7.83-1.47,11.83l1.54,7.12c0,0,8.46,28.7-0.15,50.91l-4.08,42.9h-2.42l4.08-42.9
		C295.21,675.51,286.75,646.86,286.75,646.86z"/>
</g>
<path class="st6" d="M360.77,735.93c0.3-8.3,10.12-25.83,10.12-25.83c16.62-29.3,10.57-69,10.57-69l-2.56-12.38l-0.15-4.67
	c-0.36-11.15,0.46-22.3,2.46-33.27c0.89-4.86,1.81-10.72,2.52-17.2c1.89-17.3,9.1-35.3,9.63-36.62l2.48-0.1c0,0-7.7,18.73-9.66,36.7
	c-0.71,6.48-1.63,12.34-2.53,17.2c-2,10.97-2.82,22.12-2.46,33.27l0.15,4.67l2.5,12.37c0,0,6,39.73-10.57,69
	c0,0-9.82,17.53-10.12,25.83l-6.65,2.57l-1.4-0.39L360.77,735.93z"/>
<path class="st26" d="M353.07,735.63c3.66,1.45,7.8,0.94,11-1.36c-2.2,6.42-2.51,13.34-0.9,19.94c2.72,10.88-25.38-8.76-25.38-8.76
	l6-13.71C343.79,731.74,346.12,736.08,353.07,735.63z"/>
<path class="st6" d="M355.16,736.24c3.13,0.63,6.37-0.1,8.93-2c-2.2,6.42-2.51,13.34-0.9,19.94c2.72,10.88-25.38-8.76-25.38-8.76
	l6-13.71c0,0,1.74,3.34,6.85,3.86C352.21,735.75,353.69,735.96,355.16,736.24z"/>
<polygon class="st27" points="289.32,481.5 301.06,481.5 301.06,414.89 292.25,413.31 "/>
<polygon class="st22" points="289.32,481.5 301.06,481.5 301.06,414.89 292.25,413.31 "/>
<path class="st28" d="M346.42,740.77c0,0,7.4-0.46,10.72,6.19l4.08,3.17l2-4.68c4.34,7.65,5.97,16.54,4.62,25.23
	c0,0,0.6,4.22-5.59,6.19c0,0-3.17,1.51-2.42,7.25s-11.17,14.2-26.73,10.72c0,0-13.6,0.31-15.26-2.87s1.06-11.63,1.06-11.63
	s5.59-8.86,8.15-12.13c0,0,6.65-13.7,7.41-20S342.49,737.29,346.42,740.77z"/>
<path class="st26" d="M285.17,746.36l0.12-9.39c0,0-13.51,3.89-24.45-0.51c0,0,0.92,9.44-0.6,10.73s5.06,13.44,5.06,13.44l7.35,7.7
	l12.64-4.6l3.43-10.8C288.72,752.93,286.07,746.36,285.17,746.36z"/>
<path class="st6" d="M285.17,746.36l0.12-9.39c0,0-13.51,3.89-24.45-0.51c0,0,0.92,9.44-0.6,10.73s5.06,13.44,5.06,13.44l7.35,7.7
	l12.64-4.6l3.43-10.8C288.72,752.93,286.07,746.36,285.17,746.36z"/>
<path class="st28" d="M259.41,742.96c0,0,7.18,0.83,6.27,10s0.38,0,0.38,0s7.63,3.09,10.35,7.4s7.63-3.85,8-6.19
	s3.43-3.31,3.43-3.31s12,22.25,9.88,28.37s-27.88,7.53-27.88,7.53s-4.69-2.64-15.49,5.59s-33.23,2-33.23,2s-18.28-7.63-7.17-16
	c11.11-8.37,18.65-7.1,18.65-7.1l16.54-15.94C249.14,755.31,251.33,742.5,259.41,742.96z"/>
<path class="st29" d="M345.16,216.95c4.57,2.77,7.82,7.27,12.15,10.4c6.16,4.45,14.43,6.11,19.17,12.05
	c4,5.06,4.52,12.13,3.44,18.51c-1.08,6.38-3.5,12.47-4.67,18.83s-0.93,13.41,2.85,18.65c0.44,0.7,1.08,1.26,1.83,1.61
	c0.92,0.22,1.87,0.22,2.79,0c6.46-0.78,12.66,3.84,15.56,9.67s3.13,12.61,2.83,19.11c-0.25,5.33-0.85,10.77-3.19,15.57
	c-4,8.16-12.32,13.2-20.53,17.06c-5.34,2.51-10.81,4.72-16.39,6.62c-3.84,1.3-7.89,2.47-11.88,1.79
	c-6.83-1.18-11.67-7.39-18.15-9.82c-5.31-2-11.2-1.28-16.85-0.78c-4.82,0.42-10.33,0.41-13.65-3.11
	c-4.26-4.52-2.34-11.81-0.16-17.63c-6.92-0.44-12.17-6.4-11.73-13.32c0.17-2.64,1.17-5.16,2.85-7.2c2.06-2.51,5.35-5.44,3.74-8.27
	c-0.54-0.81-1.29-1.46-2.16-1.88c-6.51-3.72-15.48-5.21-18.22-12.19c-1.76-4.49-0.06-9.57,2.17-13.84c2.23-4.27,5-8.45,5.61-13.23
	c0.8-6.76-3-13.71-1.07-20.23c1-2.8,2.6-5.35,4.69-7.46c5.88-6.51,13.02-11.74,21-15.39c7.89-3.61,15.8-4.42,24.14-6.18
	C336.33,215.23,340.47,214.11,345.16,216.95z"/>
<path class="st27" d="M301.05,317.62c0,0-19.13-1-22.75,15.31s7.85,39.67,7.85,39.67L301.05,317.62z"/>
<path class="st30" d="M301.05,317.62c0,0-19.13-1-22.75,15.31s7.85,39.67,7.85,39.67L301.05,317.62z"/>
<path class="st25" d="M288.84,366.16l7.25,5.74l33.83,1.51l21.12-14.5l21.48-36.86c-13.13-3.35-18.44-12.42-20.42-20.9
	c-1.26-5.74-1.4-11.67-0.42-17.46c0,0-34.44-17.83-30.21,10c0.58,3.42,0.69,6.89,0.32,10.34c-2,16.3-17.82,13.23-17.82,13.23
	l-6.07,9.36l-6.95,23L288.84,366.16z"/>
<path class="st6" d="M321.5,293.65c0.58,3.42,0.69,6.89,0.32,10.34c9.89,4.52,21.43,3.44,30.31-2.84
	c-1.26-5.74-1.4-11.67-0.42-17.46C351.71,283.69,317.27,265.86,321.5,293.65z"/>
<circle class="st25" cx="334.51" cy="275.03" r="30.51"/>
<path class="st7" d="M312.93,360.34c0.74,0,1.47,0.11,2.2,0.18c4,0.4,20.71,1.3,30.23-10.07c10.65-12.72,24.83-28.43,25.41-29.07
	l0,0l14.43,4.36c0,0-11.42-4.06-19,17.18c-3.42,9.15-0.39,19.46,7.43,25.31c2.8,2.03,6.03,3.4,9.44,4c0.01,0.02,0.01,0.03,0,0.05
	v9.32l0,0l-5.9,26c-1.68,7.35-1.48,15,0.56,22.25l9,31.81l0,0c-1.36,0.94-57.2,38.92-94.5,12.69l0,0
	c0.14-1.14,4.75-38.47,1.55-56.74c-0.82-4.67-1.38-9.39-1.67-14.12c0-0.12,0-0.23,0-0.35c-0.33-4.18-2.3-8.06-5.47-10.8
	c-3.36-3-7.91-11-3.41-32.14c1.14-5.24,2.81-10.34,5-15.23l12.51-28.27l0,0l11.53,0.23 M312.27,317.01
	c-1,1.24-14.37,17.94-15.82,28.7c-1.42,10.23-3.17,13.37,16.48,14.63L312.27,317.01z"/>
<path class="st25" d="M394.91,330.71c0,0,11.28,9.67,15.71,31.62c4.43,21.95,14.3,58.41,14.3,58.41s4,15.91-9.67,31.62
	c-13.67,15.71-22.76,28-22.76,28l-9,13.26c-1.53,2.26-3.84,3.89-6.48,4.58c-4.1,1.08-10.4,1.86-15.86-1.13
	c-4.12-2.3-5.84-7.33-4-11.67l2-4.63c0,0-18.53,11.68-20.14,5.23s21.55-12.89,21.55-12.89s19.13-3.22,23-12.28
	c0,0,20.54-26.39,18.93-35.45l-19.84-53.17c0,0-24.81-3.28-16.35-31.15S394.91,330.71,394.91,330.71z"/>
<path class="st20" d="M276.28,531.31c0,0,45.32,9.06,56,7.85l1.15,3.83c0,0,17.2,3.85,56.09-2.32c2.54-0.4,5.18-0.85,7.91-1.35
	l0.91-0.16c0,0,0.53-2.88,0.95-7.79c0.93-11.15,1.26-32.74-6.59-54.84l-6.54-20.14c0,0-40.42,24.23-67.18,22
	c-2.39-0.2-4.76-0.39-7.15-0.47c-5.49-0.21-14,0-19.53-4.43l-11.6,2v33c0,4.83-0.89,9.61-2.62,14.12c-0.25,0.66-0.51,1.31-0.8,2
	C276.22,526.67,275.86,529.03,276.28,531.31z"/>
<path class="st6" d="M333.42,532.72v10.27c0,0,19.8,4.43,64.91-3.83c0,0,0.53-2.88,0.95-7.79
	C385.44,533.59,347.27,538.93,333.42,532.72z"/>
<path class="st6" d="M276.28,531.31c0,0,45.32,9.06,56,7.85l1.15,3.83v-10.27c-5.16,2.14-42-6.74-55.35-10.07
	c-0.25,0.66-0.51,1.31-0.8,2C276.22,526.7,275.87,529.04,276.28,531.31z"/>
<path class="st20" d="M386.15,519.86l3.36,20.84c2.54-0.4,5.18-0.85,7.91-1.35c-1.05-6.09-3.34-20-2.71-22.31l-4.23-3.62
	L386.15,519.86z"/>
<path class="st6" d="M386.62,519.41l3.36,20.85c2.54-0.41,5.18-0.86,7.91-1.35c-1.05-6.09-3.34-20-2.71-22.31l-4.23-3.63
	L386.62,519.41z"/>
<g class="st31">
	<path d="M316.55,478.38c-2.38-0.2-4.76-0.39-7.15-0.47c-5.34-0.2-13.49,0-19.05-4.09l1.94-0.34c5.56,4.41,14,4.22,19.53,4.43
		c2.39,0.08,4.76,0.27,7.15,0.47c0.78,0.07,1.58,0.11,2.39,0.13C319.76,478.55,318.15,478.51,316.55,478.38z"/>
	<path d="M387.09,540.67c2.54-0.4,5.18-0.85,7.91-1.34l0.92-0.17c0,0,0.53-2.88,0.94-7.79c0.94-11.15,1.27-32.74-6.59-54.84
		l-6.16-19c1.31-0.74,2-1.17,2-1.17l6.54,20.14c7.85,22.1,7.52,43.69,6.59,54.84c-0.42,4.91-0.95,7.79-0.95,7.79l-0.91,0.17
		c-2.73,0.49-5.36,0.94-7.91,1.34c-18.17,2.88-31.59,3.58-40.75,3.5C361.58,543.95,374.4,542.79,387.09,540.67z"/>
	<path d="M329.84,539.16v0.11h-1.3C329.03,539.24,329.47,539.2,329.84,539.16z"/>
</g>
<ellipse class="st26" cx="391.78" cy="520.23" rx="1.71" ry="3.52"/>
<path class="st27" d="M282.64,448.95c2.76-20.5,7.63-32.68,10.2-37.45c0.1,0.65,0.36,2.76,0.48,3.41c0.52,3,0.06,6.78,0.22,10.59
	l-2.56,46.36l3.43,14.5c3.22,11.48-8.71,2.41-8.71,2.41c-2.47,5.44-7,4.84-7,4.84l-0.62-8.32c-0.59-7.84,0.12-15.72,2.08-23.33
	C281.24,457.68,282.07,453.33,282.64,448.95z"/>
<path class="st30" d="M282.64,448.95c2.76-20.5,7.63-32.68,10.2-37.45c0.1,0.65,0.36,2.76,0.48,3.41c0.52,3,0.06,6.78,0.22,10.59
	l-2.56,46.36l3.43,14.5c3.22,11.48-8.71,2.41-8.71,2.41c-2.47,5.44-7,4.84-7,4.84l-0.62-8.32c-0.59-7.84,0.12-15.72,2.08-23.33
	C281.24,457.68,282.07,453.33,282.64,448.95z"/>
<path class="st32" d="M397.42,473.96c-2.17,2.81-3.36,4.42-3.36,4.42l-9,13.25c-1.53,2.26-3.84,3.89-6.48,4.58
	c-4.1,1.08-10.4,1.87-15.86-1.13c-4.12-2.29-5.84-7.32-4-11.66l2-4.64c0,0-18.53,11.68-20.14,5.24s21.55-12.89,21.55-12.89
	s19.13-3.22,23-12.29c0,0,1.67-2.14,4-5.42"/>
<path class="st20" d="M386.15,496.17c0,0-21.91-2.13-28.85-14.66l-3.18,10.35c0,0,23,15.88,28.25,13.82L386.15,496.17z"/>
<path class="st6" d="M385.37,496.07c0,0-21.9-2.13-28.85-14.67l-3.17,10.32c0,0,23,15.88,28.24,13.82L385.37,496.07z"/>
<path class="st20" d="M286.42,490.32c0,0-7.67,2.72-9.18,1.21l3.45,6.35l6.52-5L286.42,490.32z"/>
<path class="st6" d="M286.42,490.32c0,0-7.67,2.72-9.18,1.21l3.45,6.35l6.52-5L286.42,490.32z"/>
<polygon class="st6" points="333.42,532.72 333.42,519.47 330.27,533.04 "/>
<path class="st6" d="M364.49,258.92c-1.85,2.6-5.06,3.92-8.22,4.33s-6.36,0.06-9.55,0c-5-0.08-10.32,0.69-14.41,3.63
	c-2.61,1.87-4.57,4.5-6.61,7c-6.18,7.55-14.76,14.62-24.5,13.83c-1.71,0-3.35-0.69-4.55-1.92c-0.79-1.23-1.2-2.67-1.16-4.14
	c-0.42-6.22-0.22-12.47,0.59-18.66c0.39-3.83,1.34-7.58,2.82-11.13c1.74-3.56,4.03-6.83,6.78-9.68c3.33-3.86,7.34-7.07,11.83-9.48
	c4.54-2.41,9.8-3.09,14.8-1.91c5.83,1.59,10.37,6.15,15.93,8.5C354.59,241.96,371.45,249.09,364.49,258.92z"/>
<path class="st29" d="M364.49,257.71c-1.85,2.6-5.06,3.92-8.22,4.33s-6.36,0.06-9.55,0c-5-0.09-10.32,0.68-14.41,3.62
	c-2.61,1.87-4.57,4.5-6.61,7c-6.18,7.55-14.76,14.62-24.5,13.83c-1.71,0-3.36-0.69-4.55-1.92c-0.8-1.23-1.2-2.67-1.16-4.14
	c-0.42-6.22-0.22-12.47,0.59-18.66c0.39-3.83,1.34-7.58,2.82-11.13c1.74-3.56,4.03-6.82,6.78-9.67c3.32-3.87,7.34-7.08,11.83-9.49
	c4.54-2.41,9.8-3.09,14.8-1.91c5.83,1.59,10.37,6.15,15.93,8.5C354.59,240.75,371.45,247.86,364.49,257.71z"/>
<polygon class="st27" points="292.3,473.47 292.22,477.12 291.4,473.63 "/>
<polygon class="st22" points="292.3,473.47 292.22,477.12 291.4,473.63 "/>
<g class="st31">
	<path d="M369.42,339.15c-8.47,27.87,16.22,31.14,16.22,31.14l19.84,53.17c1.61,9.06-18.94,35.45-18.94,35.45
		c-1.43,3.38-5,5.95-8.9,7.85c2.28-1.39,4.11-3.4,5.28-5.8c0,0,20.54-26.38,18.93-35.44l-19.84-53.18c0,0-24.68-3.27-16.22-31.14
		c2.83-9.31,7-13.55,11.22-15.07C374.1,328.47,371.43,332.52,369.42,339.15z"/>
</g>
<g class="st15">
	<path d="M369.84,364.47c1.16,1.43,2.5,2.71,4,3.79c2.8,2.03,6.03,3.4,9.44,4c0,0,0,0,0,0.05v1c-3.09-0.65-6-1.94-8.56-3.79
		C372.82,368.13,371.17,366.42,369.84,364.47z"/>
	<path d="M293.12,404.34c0,0.11,0,0.23,0,0.35c0.31,4.75,0.89,9.48,1.72,14.17c3,17.24-0.93,51.47-1.49,56.2
		c-0.32-0.21-0.64-0.41-1-0.64l0,0c0.15-1.14,4.76-38.47,1.56-56.73c-0.82-4.67-1.38-9.39-1.67-14.12c0-0.12,0-0.24,0-0.35
		c-0.2-2.74-1.13-5.39-2.69-7.65C291.62,398.05,292.87,401.12,293.12,404.34z"/>
	<path d="M311.53,318.06l-9.78-0.19c-0.02-0.01-0.03-0.01-0.05,0l-12.5,28.26c-2.19,4.89-3.86,9.99-5,15.23
		c-3.64,17.1-1.35,25.62,1.43,29.83c-3.13-3.69-6.36-12.1-2.33-31c1.12-5.24,2.78-10.35,4.95-15.24l12.59-28.26l0,0l11.53,0.23
		 M312.37,316.99c-0.09,0.12-0.4,0.5-0.84,1.07L312.37,316.99z"/>
	<path d="M385.23,325.73l0.17,0.05L385.23,325.73z"/>
	<path d="M381.64,325.57l-9.8-2.95 M371.79,322.62c-0.58,0.64-14.75,16.35-25.4,29.07c-9.52,11.37-26.21,10.48-30.23,10.08
		c-0.73-0.08-1.47-0.14-2.2-0.19c-10.93-0.7-15.23-2-16.67-4.76c2.05,2,6.56,3,15.76,3.56c0.74,0,1.47,0.11,2.2,0.18
		c4,0.4,20.71,1.29,30.23-10.07c10.65-12.73,24.83-28.44,25.41-29.08l0,0l14.26,4.32c-1.15-0.29-2.34-0.34-3.51-0.16L371.79,322.62z
		"/>
</g>
<path class="st6" d="M265.61,757.49c0,0-13.8,3.77-16.47-2.15"/>
<path class="st6" d="M353.22,754.66c0,0-16,4.13-19.7-2.26"/>
<linearGradient id="SVGID_5_" gradientUnits="userSpaceOnUse" x1="561.7403" y1="-15.4891" x2="561.7403" y2="122.2087" gradientTransform="matrix(1 0 0 -1 -31.16 839.86)">
	<stop  offset="0" style="stop-color:#808080;stop-opacity:0.25"/>
	<stop  offset="0.54" style="stop-color:#808080;stop-opacity:0.12"/>
	<stop  offset="1" style="stop-color:#808080;stop-opacity:0.1"/>
</linearGradient>
<path class="st33" d="M583.94,745.71c0.23-2,0.56-4,0.92-6c1.58-8.64-0.83-16.88-2-20.28l0,0c-0.37-1.05-0.64-1.64-0.64-1.64
	c-6.37-1.74-31.48,17.74-40.63,25.08c-3.17,0-6.61,0.14-10.37,0.39c-1.64,0.12-3.28,0.16-4.92,0.13c-1.47,0-3.56,0-6,0
	c-8.49-6.84-34.77-27.41-41.31-25.63c0,0-0.27,0.59-0.64,1.64l0,0c-1.22,3.4-3.63,11.64-2.05,20.28c0.36,2,0.69,4,0.92,6
	c0.49,4.39,2.33,12.82,9,18.51c1.43,10.4,6.78,24.07,10.9,32.37c0.31,1.57,0.78,3.1,1.4,4.57c-1.7,6.56-3.66,15.12-3.1,18
	c0,0-8.88-2.15-9.78,8.54c0,0.1,0,0.22,0,0.33c-3.21,1.47-7.22,4.84-2.71,11.9c0.54,0.87,1.36,1.53,2.32,1.89
	c0.8,0.28,1.58,0.28,1.5-0.84l5.55,6.25c0,0,10.06,1.16,10.18-4.68l0.59,0.09c1.35,0.2,2.76,0.37,4.21,0.52l0.7,2.31
	c0,0-7.55-0.16-5.49,4.49c0,0,1.9,1.76,2.55,1.12c0,0-1,3.05,2.94,3.05c0,0,4.23,2.24,5.88,0.64s5.07-4,5.39-5
	c0.09-0.27,0.13-2.64,0.15-5.92h0.65c8.43,0.2,17.38-0.07,25.52-0.51h0.66c0,3.55,0.05,6.17,0.14,6.45c0.33,1,3.76,3.37,5.4,5
	s5.87-0.64,5.87-0.64c3.92,0,2.94-3.05,2.94-3.05c0.66,0.64,2.56-1.12,2.56-1.12c2.06-4.65-5.5-4.49-5.5-4.49l0.9-3l4.17-0.35
	l0.66-0.06c-0.4,6.35,10.17,5.13,10.17,5.13l5.56-6.25c-0.09,1.12,0.69,1.12,1.49,0.84c0.94-0.37,1.73-1.04,2.25-1.91
	c6.81-10.65-5.77-12.91-5.77-12.91c-0.39-0.1-0.79-0.17-1.19-0.19c0-0.18,0-0.37,0.05-0.55l0,0c0.16-1.4,0.19-2.81,0.08-4.22
	c-0.47-1.93-3.57-5-7.49-5.45c-2.56-0.32-2.61-12.08-2.35-20.23c0.29-1.53,0.42-3.08,0.4-4.64c0.05-2.51-0.29-5.02-1-7.43
	c5-8.48,9-17.37,9.45-20C581.61,758.5,583.45,750.1,583.94,745.71z"/>
<path class="st7" d="M574.26,826.76L574.26,826.76c-0.4,5.54-1.47,14.43-1.47,14.43s-4.45,0.54-11.33,1.16l-4.67,0.4
	c-3.58,0.29-7.6,0.57-11.85,0.81c-7.85,0.43-16.47,0.7-24.6,0.5c-4.06-0.09-8-0.3-11.65-0.66c-1.63-0.16-3.21-0.35-4.71-0.57
	c-9.32-1.39-16-4.05-16.57-8.72c-0.29-1.99-0.36-4-0.21-6c0.87-10.5,9.42-8.38,9.42-8.38c-0.55-2.9,1.52-11.91,3.2-18.43
	c1.06-4.11,2-7.23,2-7.23l60.12-4h0.2c1.62,0,2.94,1.31,2.94,2.94c0,0.05,0,0.1,0,0.15c-0.36,7.21-0.87,23.72,2.08,24.09
	c3.78,0.47,6.77,3.46,7.23,5.35C574.48,823.99,574.43,825.38,574.26,826.76z"/>
<path class="st7" d="M523.2,747.62c0,0-22.67,27.29-33.59,19.73c-0.26-0.18-0.51-0.36-0.75-0.55c-7.34-5.56-9.27-14.52-9.78-19.07
	c-0.22-2-0.54-3.93-0.89-5.88c-1.51-8.49,0.8-16.57,2-19.91l0,0c0.36-1,0.61-1.61,0.61-1.61
	C488.35,718.23,523.2,747.62,523.2,747.62z"/>
<path class="st7" d="M511.02,750.14c0,0-7.14,5-17.21,13.22c-1.57,1.28-3.24,2.43-5,3.44c-7.34-5.56-9.27-14.52-9.78-19.07
	c-0.22-2-0.54-3.93-0.89-5.88c-1.51-8.49,0.8-16.57,2-19.91l0,0C494.26,722.92,511.02,750.14,511.02,750.14z"/>
<path class="st34" d="M511.02,750.14c0,0-7.14,5-17.21,13.22c-1.57,1.28-3.24,2.43-5,3.44c-7.34-5.56-9.27-14.52-9.78-19.07
	c-0.22-2-0.54-3.93-0.89-5.88c-1.51-8.49,0.8-16.57,2-19.91l0,0C494.26,722.92,511.02,750.14,511.02,750.14z"/>
<path class="st6" d="M503.25,747.45c0,0-3.81,2.69-9.19,7.06c-0.83,0.68-1.71,1.29-2.64,1.83c-3.91-3-5-7.75-5.22-10.17
	c-0.11-1.06-0.28-2.1-0.47-3.15c-0.51-3.58-0.13-7.23,1.11-10.62l0,0C494.31,732.92,503.25,747.45,503.25,747.45z"/>
<path class="st7" d="M537.89,747.62c0,0,22.67,27.29,33.59,19.73c0.25-0.18,0.51-0.36,0.75-0.55c7.34-5.56,9.27-14.52,9.78-19.07
	c0.22-2,0.54-3.93,0.88-5.88c1.52-8.49-0.8-16.57-2-19.91l0,0c-0.36-1-0.62-1.61-0.62-1.61
	C572.74,718.23,537.89,747.62,537.89,747.62z"/>
<path class="st7" d="M550.06,750.14c0,0,7.15,5,17.22,13.22c1.55,1.28,3.21,2.43,4.95,3.44c7.34-5.56,9.27-14.52,9.78-19.07
	c0.22-2,0.54-3.93,0.88-5.88c1.52-8.49-0.8-16.57-2-19.91l0,0C566.84,722.92,550.06,750.14,550.06,750.14z"/>
<path class="st34" d="M550.06,750.14c0,0,7.15,5,17.22,13.22c1.55,1.28,3.21,2.43,4.95,3.44c7.34-5.56,9.27-14.52,9.78-19.07
	c0.22-2,0.54-3.93,0.88-5.88c1.52-8.49-0.8-16.57-2-19.91l0,0C566.84,722.92,550.06,750.14,550.06,750.14z"/>
<path class="st6" d="M557.89,747.43c0,0,3.79,2.68,9.13,7c0.82,0.68,1.7,1.29,2.63,1.82c3.89-2.95,4.92-7.7,5.19-10.11
	c0.11-1,0.28-2.09,0.47-3.13c0.52-3.55,0.16-7.18-1.05-10.56l0,0C566.78,732.99,557.89,747.43,557.89,747.43z"/>
<path class="st6" d="M561.9,790.09c-2.86,4.52-5.9,8.6-8.68,11.06c-9,8-47.86,4.82-50.38,4.41c-0.53-0.09-1.63-1.66-3-4.21
	c1.06-4.11,2-7.23,2-7.23L561.9,790.09z"/>
<path class="st7" d="M531.14,745.33c-1.58,0.11-3.16,0.15-4.75,0.12c-8.11-0.14-35.43,0.22-38.46,11.25
	c-3.57,13,12.39,47.81,14.9,48.23s41.36,3.57,50.39-4.41s20.78-33,20.15-35.27C573.37,765.25,584.57,741.63,531.14,745.33z"/>
<path class="st6" d="M530.28,766.41c0,0-20-3.08-29.38,16.6c-3.83,7.79-3.15,17.04,1.77,24.19c3.12,4.39,7.7,7.66,14.07,5
	C530.9,806.37,530.28,766.41,530.28,766.41z"/>
<path class="st6" d="M529.65,765.15c0,0-20-3.08-29.38,16.6c-3.83,7.79-3.15,17.04,1.77,24.19c3.12,4.39,7.7,7.66,14.07,5
	C530.27,805.11,529.65,765.15,529.65,765.15z"/>
<path class="st7" d="M529.65,765.78c0,0-20-3.08-29.38,16.6c-3.83,7.79-3.15,17.04,1.77,24.19c3.12,4.39,7.7,7.66,14.07,5
	C530.27,805.74,529.65,765.78,529.65,765.78z"/>
<path class="st34" d="M529.65,765.78c0,0-20-3.08-29.38,16.6c-3.83,7.79-3.15,17.04,1.77,24.19c3.12,4.39,7.7,7.66,14.07,5
	C530.27,805.74,529.65,765.78,529.65,765.78z"/>
<path class="st35" d="M508.08,782.99c0,0-2.73,2.52-1.68,3.15S508.08,782.99,508.08,782.99z"/>
<path class="st35" d="M511.02,786.21c0,0-1.49,3.29-0.43,3.65s1.69-2.36,1.69-2.36L511.02,786.21z"/>
<path class="st35" d="M504.43,791.18c0,0-1.46,3.88,0,3.88S504.43,791.18,504.43,791.18z"/>
<path class="st36" d="M502.62,801.57c0,0,2.92,7.46,10.52,6.93"/>
<path class="st36" d="M509.45,803.77c0,0,3,2.94,6.29,0.84"/>
<path class="st6" d="M532.84,766.41c0,0,20-3.08,29.38,16.6c3.83,7.79,3.15,17.04-1.77,24.19c-3.11,4.39-7.7,7.66-14.07,5
	C532.18,806.37,532.84,766.41,532.84,766.41z"/>
<path class="st6" d="M533.43,765.15c0,0,20-3.08,29.38,16.6c3.83,7.79,3.15,17.04-1.77,24.19c-3.11,4.39-7.7,7.66-14.07,5
	C532.84,805.11,533.43,765.15,533.43,765.15z"/>
<path class="st7" d="M533.43,765.78c0,0,20-3.08,29.38,16.6c3.83,7.79,3.15,17.04-1.77,24.19c-3.11,4.39-7.7,7.66-14.07,5
	C532.84,805.74,533.43,765.78,533.43,765.78z"/>
<path class="st34" d="M533.43,765.78c0,0,20-3.08,29.38,16.6c3.83,7.79,3.15,17.04-1.77,24.19c-3.11,4.39-7.7,7.66-14.07,5
	C532.84,805.74,533.43,765.78,533.43,765.78z"/>
<path class="st35" d="M555,782.99c0,0,2.73,2.52,1.68,3.15S555,782.99,555,782.99z"/>
<path class="st35" d="M552.06,786.21c0,0,1.49,3.29,0.43,3.65s-1.69-2.36-1.69-2.36L552.06,786.21z"/>
<path class="st35" d="M558.66,791.18c0,0,1.45,3.88,0,3.88S558.66,791.18,558.66,791.18z"/>
<path class="st36" d="M560.46,801.57c0,0-2.92,7.46-10.52,6.93"/>
<path class="st36" d="M553.64,803.77c0,0-3,2.94-6.3,0.84"/>
<path class="st35" d="M522.04,822.77c0.53-0.1,10.5-4.41,20.78,0H522.04z"/>
<path class="st6" d="M503.98,842.86c-9.32-1.39-16-4.05-16.57-8.72c-0.29-1.99-0.36-4-0.21-6c1.12-0.6,2.32-1.04,3.56-1.3
	c1.69-0.47,3.78-0.15,8.19,1.11s4.09,6.45,5,13.22C504.05,841.73,504.06,842.3,503.98,842.86z"/>
<path class="st7" d="M490.13,827.49c0,0-12.12,2.22-5.56,12.68c0.52,0.85,1.31,1.5,2.24,1.85c0.77,0.27,1.51,0.27,1.43-0.83
	l5.36,6.14c0,0,10.7,1.26,9.76-5.51s-0.63-12-5-13.22S491.84,827.02,490.13,827.49z"/>
<path class="st36" d="M493.02,834.53c0,0,2.57,5.87,6.14,0.94"/>
<path class="st36" d="M487.12,836.86c0,0,1.33,5.56,6.37,1.42"/>
<path class="st6" d="M574.26,826.76L574.26,826.76c-0.4,5.54-1.47,14.43-1.47,14.43s-4.45,0.54-11.33,1.16
	c-0.04-0.39-0.04-0.77,0-1.16c0.94-6.77,0.63-12,5-13.22C570.56,826.86,572.65,826.45,574.26,826.76z"/>
<path class="st7" d="M575.36,827.49c0,0,12.13,2.22,5.57,12.68c-0.52,0.85-1.31,1.5-2.24,1.85c-0.77,0.27-1.52,0.27-1.44-0.83
	l-5.35,6.14c0,0-10.71,1.26-9.76-5.51s0.63-12,5-13.22S573.68,827.02,575.36,827.49z"/>
<path class="st36" d="M572.48,834.53c0,0-2.58,5.87-6.14,0.94"/>
<path class="st36" d="M578.38,836.86c0,0-1.34,5.56-6.38,1.42"/>
<path class="st6" d="M520.34,844.06c-4.06-0.09-8-0.3-11.65-0.66l-3.63-12.22c-0.22-0.72-0.33-1.47-0.33-2.23
	c0.14-4.29,3.73-7.66,8.03-7.52c4.08,0.13,7.36,3.39,7.52,7.47C520.32,833.66,520.36,839.69,520.34,844.06z"/>
<path class="st7" d="M504.43,831.18l4.28,14.42c0,0-7.28-0.16-5.29,4.41c0,0,1.83,1.73,2.46,1.1c0,0-0.95,3,2.83,3
	c0,0,4.08,2.21,5.66,0.63s4.89-3.94,5.21-4.88c0.2-0.62,0.14-12.68,0.07-21c-0.03-4.27-3.5-7.71-7.77-7.7l0,0
	c-4.29-0.01-7.78,3.47-7.78,7.76C504.1,829.68,504.21,830.45,504.43,831.18z"/>
<path class="st36" d="M510.21,849.33c0,0-3.18,3-1.5,4.77"/>
<path class="st36" d="M508.84,847.42c0,0-2.94,1-2.94,3.69"/>
<path class="st6" d="M560.55,828.95c0,0.75-0.11,1.51-0.32,2.23l-3.39,11.57c-3.58,0.29-7.6,0.57-11.85,0.81
	c0-4.32,0-10.07,0.07-14.66c0.01-4.29,3.5-7.76,7.79-7.74s7.76,3.5,7.74,7.79l0,0H560.55z"/>
<path class="st7" d="M560.84,831.18l-4.28,14.42c0,0,7.29-0.16,5.3,4.41c0,0-1.83,1.73-2.46,1.1c0,0,0.94,3-2.84,3
	c0,0-4.08,2.21-5.66,0.63s-4.88-3.94-5.2-4.88c-0.2-0.62-0.14-12.68-0.07-21c0.03-4.27,3.5-7.71,7.77-7.7l0,0
	c4.29,0,7.77,3.48,7.77,7.77C561.17,829.69,561.06,830.45,560.84,831.18z"/>
<path class="st36" d="M555.07,849.33c0,0,3.18,3,1.5,4.77"/>
<path class="st36" d="M556.47,847.42c0,0,2.94,1,2.94,3.69"/>
<path class="st6" d="M529.66,762.63c0,0-14.81-0.47-15.28,11s23.14,6.61,23.14,6.61s9.92-1.33,8.19-8.3S540.37,763.26,529.66,762.63
	z"/>
<path class="st6" d="M529.66,761.37c0,0-14.81-0.47-15.28,11s23.14,6.61,23.14,6.61s9.92-1.33,8.19-8.3S540.37,762,529.66,761.37z"
	/>
<path class="st35" d="M529.66,762c0,0-14.81-0.47-15.28,11s23.14,6.61,23.14,6.61s9.92-1.33,8.19-8.3S540.37,762.63,529.66,762z"/>
<path class="st6" d="M496.62,819.78c0,0,5,1.78,6,5.19"/>
<path class="st6" d="M567.12,817.26c0,0-3.55,1.49-3.3,7.71"/>
<ellipse transform="matrix(0.867 -0.4983 0.4983 0.867 -355.1134 360.9824)" class="st7" cx="498.72" cy="845.78" rx="2.32" ry="3.84"/>
<ellipse transform="matrix(0.5 -0.866 0.866 0.5 -444.944 914.0208)" class="st7" cx="569.09" cy="842.34" rx="3.83" ry="2.31"/>
<ellipse transform="matrix(0.867 -0.4983 0.4983 0.867 -355.1134 360.9824)" class="st34" cx="498.72" cy="845.78" rx="2.32" ry="3.84"/>
<ellipse transform="matrix(0.5 -0.866 0.866 0.5 -444.944 914.0208)" class="st34" cx="569.09" cy="842.34" rx="3.83" ry="2.31"/>
<ellipse class="st1" cx="192.6" cy="716.06" rx="26.93" ry="4.55"/>
<ellipse class="st1" cx="86.51" cy="780.59" rx="26.93" ry="4.55"/>
<ellipse class="st7" cx="58.47" cy="722.86" rx="40.21" ry="6.8"/>
<path class="st7" d="M41.84,711.74c-1.84-1.49-3.18-3.51-3.84-5.78c-0.49-2.3,0.49-5.05,2.68-5.89c2.46-0.94,5.09,0.76,7.08,2.48
	s4.28,3.69,6.89,3.33c-2.73-2.48-3.96-6.2-3.24-9.82c0.11-0.74,0.42-1.43,0.9-2c1.36-1.46,3.84-0.83,5.48,0.32
	c5.19,3.66,6.65,10.72,6.67,17.08c0.53-2.3,0.09-4.68,0.1-7c0.01-2.32,0.66-5,2.64-6.22c1.22-0.68,2.6-1.02,4-1
	c2.34-0.08,4.94,0.15,6.54,1.86c2,2.12,1.47,5.69-0.26,8c-1.73,2.31-4.35,3.8-6.76,5.42c-1.94,1.15-3.6,2.73-4.84,4.61
	c-0.15,0.26-0.27,0.54-0.36,0.82H50.91C47.62,716.3,44.57,714.21,41.84,711.74z"/>
<ellipse class="st1" cx="1029.83" cy="754.12" rx="26.93" ry="4.55"/>
<path class="st37" d="M1011.75,732.97c0,0,15.36-0.47,20-3.77s23.62-7.23,24.77-1.94s23.09,26.29,5.74,26.43s-40.29-2.7-44.91-5.52
	S1011.75,732.97,1011.75,732.97z"/>
<path class="st38" d="M1062.56,751.86c-17.34,0.14-40.29-2.7-44.91-5.52c-3.52-2.14-4.92-9.83-5.39-13.38h-0.51
	c0,0,1,12.39,5.59,15.2s27.57,5.66,44.91,5.52c5,0,6.74-1.82,6.64-4.46C1068.2,750.86,1066.29,751.86,1062.56,751.86z"/>
</svg>
