<svg xmlns="http://www.w3.org/2000/svg" id="Layer_1" data-name="Layer 1" viewBox="0 0 316.23 111.81"><defs><style>.cls-1{fill:#e73900}.cls-1,.cls-10,.cls-11,.cls-15,.cls-2,.cls-3,.cls-4,.cls-5,.cls-7,.cls-8,.cls-9{fill-rule:evenodd}.cls-2{fill:#e78c00}.cls-3{fill:#e7e100}.cls-4{fill:#ffff9e}.cls-5{fill:#ececec}.cls-12,.cls-13,.cls-16,.cls-5,.cls-7,.cls-8{stroke:#000}.cls-12,.cls-13,.cls-5,.cls-7,.cls-8{stroke-width:3px}.cls-11,.cls-6{fill:#ccc}.cls-13,.cls-7{fill:red}.cls-8{fill:#b3b3b3}.cls-9{fill:#d20000}.cls-10{fill:#999}.cls-12,.cls-16{fill:none}.cls-13{stroke-linecap:round}.cls-14,.cls-15{fill:#fff}.cls-16{stroke-width:3px}</style></defs><title>rocket</title><g id="svg_29" data-name="svg 29"><path id="svg_27" d="M209.24,48.79c44.45-9.68,47.6,5,107.78,4.44-28.77,7.56-63.62,8.27-74.08,11.53a82.6,82.6,0,0,1-28,2.11c-7.92-.45-17.73,3.24-25.05,1.71C201.87,63.08,194.83,52.19,209.24,48.79Z" class="cls-1" data-name="svg 27" transform="translate(-23.35 -8.31)"/><path id="svg_26" d="M195.5,66.23c8.39.51,12.25-3.56,18.89-4.93,5.16-2.58,13-3.07,20.67-2.73,12.29.41,85.22,8.84,104.52,16.56C309.53,71,269,75.24,255.5,78.47a104.71,104.71,0,0,1-34.07.93c-9.32-1-14.76-4.5-23-6.7C193.44,70.68,193.08,68.26,195.5,66.23Z" class="cls-1" data-name="svg 26" transform="translate(-23.35 -8.31)"/><path id="svg_25" d="M191.27,68.45c7.23,1.4,18.9,0,25.69-.3,6.18-1.4,13.52-.85,20.22.33,10.8,1.8,62,4.68,85.08,25.67-35-17.17-64.55-8.54-78.63-7.62a102.94,102.94,0,0,1-31.19-3.34C199.4,79.48,192.54,71.06,191.27,68.45Z" class="cls-1" data-name="svg 25" transform="translate(-23.35 -8.31)"/><path id="svg_24" d="M195.71,65.42c6.85.41,10-2.66,15.41-3.67,4.2-1.94,10.59-2.28,16.86-2,10,.35,62.77,7.41,85.4,12-51.58-5.05-57.64.67-68.66,3.08a91.87,91.87,0,0,1-27.8.59c-7.61-.75-14.48-2.65-21.25-4.34C191.62,69.57,193.75,67,195.71,65.42Z" class="cls-2" data-name="svg 24" transform="translate(-23.35 -8.31)"/><path id="svg_23" d="M206.18,53.57c30.74-10.72,32.13,2.79,73.65,1.55-19.7,3-34.51,5.62-48.42,6.37-5,1.93-35.22,7.91-40.6,7.18C197.51,64.25,197.32,56.66,206.18,53.57Z" class="cls-2" data-name="svg 23" transform="translate(-23.35 -8.31)"/><path id="svg_22" d="M207.86,56.13c17-6.49,26.52-.48,47.32.54-18.31,1.08-23.13,7.28-34.06,6.63-3.32.89-26.94,5.23-29.91,4.61C196.07,65.68,201.41,58.59,207.86,56.13Z" class="cls-3" data-name="svg 22" transform="translate(-23.35 -8.31)"/><path id="svg_21" d="M209.48,68.08c4.64-1.06,10.15-.64,15.17.24,8.1,1.35,53.19,7.75,62.74,14-18.4-5.13-47.33-1.17-57.9-.47-8,.3-17.46,0-23.4-2.52-9-3.81-14.07-8.31-15.23-10.74C188.43,67,204.38,68.29,209.48,68.08Z" class="cls-2" data-name="svg 21" transform="translate(-23.35 -8.31)"/><path id="svg_20" d="M195.22,65.24c4.18.33,6.3-1.51,9.69-2.07,2.69-1.14,6.65-1.28,10.48-1,6.15.32,44.45,2.24,53.8,6-14.89-2.23-37.49,2.05-44.4,3.39a57.11,57.11,0,0,1-17.13.07,85.54,85.54,0,0,1-12.8-2.87C192.46,67.73,193.92,66.15,195.22,65.24Z" class="cls-3" data-name="svg 20" transform="translate(-23.35 -8.31)"/><path id="svg_19" d="M194.6,66.77c2.87,1,6.38.13,9.56.37a23.59,23.59,0,0,1,9.1,1.23c4.38,1.35,37.24,5,40.53,9.3-9.11-4.25-34.35,1-41,.62-5-.39-11.6-3.3-15.16-4.93a36.93,36.93,0,0,1-7.79-5A12.6,12.6,0,0,1,194.6,66.77Z" class="cls-3" data-name="svg 19" transform="translate(-23.35 -8.31)"/><path id="svg_18" d="M198,65.53c9.89-2.08,20.73-.55,32.54,1.18-8.08.08-18,1.67-21.23,2.68a25.77,25.77,0,0,1-8.74.66,56.15,56.15,0,0,1-7.73-1.3C196.59,67,193.51,66.59,198,65.53Z" class="cls-4" data-name="svg 18" transform="translate(-23.35 -8.31)"/><path id="svg_17" d="M202.7,68.71c10.4,2.56,18.78,1,26.79,6.05-7.57-1.78-19.81.74-24,.18-7-.94-12-5.2-12.53-6.24C198.76,69.24,197.74,67.59,202.7,68.71Z" class="cls-4" data-name="svg 17" transform="translate(-23.35 -8.31)"/><path id="svg_16" d="M355.55,46" class="cls-4" data-name="svg 16" transform="translate(-23.35 -8.31)"/></g><g id="svg_1" data-name="svg 1"><path id="path3217" d="M25.43,54.39C31.87,62.83,86.16,128,200.25,88.17l2.85-46.45v-.17C94.76-11.92,32.91,46.06,25.49,53.65Z" class="cls-5" transform="translate(-23.35 -8.31)"/><path id="path3219" d="M97.56,56.89c-.6,9.7,7.5,18.12,18,18.77s19.6-6.71,20.2-16.41-7.5-18.13-18-18.78S98.15,47.19,97.56,56.89Zm2.26.14c.53-8.57,8.5-15.05,17.82-14.48s16.43,8,15.91,16.56-8.5,15-17.82,14.47S99.29,65.61,99.82,57Z" class="cls-6" transform="translate(-23.35 -8.31)"/><path id="path2419" d="M69.18,88.25,47.31,75.56l-18.45-17-3.44-4.69L45.59,38.27l24-11.72,4.92-.75L70.31,88.58" class="cls-7" transform="translate(-23.35 -8.31)"/><path id="path2408" d="M154.77,99.84s-2.09,27.83,75.87,15.74c0,0-64.13-5.52-55.31-19.75" class="cls-7" transform="translate(-23.35 -8.31)"/><path id="path2410" d="M159.42,24.31S160.75-3.56,236.65,18c0,0-64.33-2.37-57.32,12.83" class="cls-7" transform="translate(-23.35 -8.31)"/><path id="path2423" d="M184.09,94l16.13-5.87,2.59-46.79-15.08-6.46Z" class="cls-8" transform="translate(-23.35 -8.31)"/><path id="path3209" d="M167.53,18.34l13.95,6.13-3,3,1.49,3.78-21.11-6.31,5.4-8.63s12.67-14.78,70.19.89C174.57,6.38,167.51,18.6,167.53,18.34Z" class="cls-9" transform="translate(-23.35 -8.31)"/><path id="path3213" d="M229.74,116.32s-62.48-1.22-61.62-19.09c.1-2,7-1.41,7-1.41l1.28,7.2,18.51,6.67Z" class="cls-9" transform="translate(-23.35 -8.31)"/><path id="path3232" d="M186.67,52c3.52-.84,8.38-1.17,15.22-.44a6.21,6.21,0,0,1,.39-.69l.53-9.53-12.15-5.21c-1.08.11-2,.26-3,.4Z" class="cls-10" transform="translate(-23.35 -8.31)"/><path id="path3227" d="M156.1,56.93a9.41,9.41,0,0,0,0,2.9L178,62.5s-1-6.41,8.58-8.82l1-15.51C161.68,41.64,156.82,51.86,156.1,56.93Z" class="cls-11" transform="translate(-23.35 -8.31)"/><path id="path3241" d="M185.41,93.34,199.87,89l1-7.25-16.25,1.09Z" class="cls-11" transform="translate(-23.35 -8.31)"/><path id="path2394" d="M69.76,88.28l3.79-61.74" class="cls-12" transform="translate(-23.35 -8.31)"/><path id="path2400" d="M-71.26,531" class="cls-12" transform="translate(-23.35 -8.31)"/><path id="path2402" d="M-71.26,531" class="cls-12" transform="translate(-23.35 -8.31)"/><path id="path2417" d="M184.42,93.23,188,34.89" class="cls-12" transform="translate(-23.35 -8.31)"/><path id="rect2414" d="M156.38,64.45l.29-4.73,77.12,4.74-.29,4.73Z" class="cls-13" transform="translate(-23.35 -8.31)"/><path id="path2425" d="M184.14,37.29S132.87,13,81.28,26.75C171,31.48,183.05,54.9,183.05,54.9Z" class="cls-11" transform="translate(-23.35 -8.31)"/><polygon id="rect2429" points="79.77 45.91 87.08 40.03 102.96 56.39 95.64 62.28 79.77 45.91" class="cls-14"/><path id="path2431" d="M-71.26,531" class="cls-14" transform="translate(-23.35 -8.31)"/><path id="path2437" d="M68.88,32.58S45.24,39.3,32,54.05c30.58-12.36,35.84-4.66,35.84-4.66Z" class="cls-9" transform="translate(-23.35 -8.31)"/><path id="path3211" d="M159.42,24.31S160.75-3.56,236.65,18c0,0-64.33-2.37-57.32,12.83" class="cls-12" transform="translate(-23.35 -8.31)"/><path id="path3215" d="M154.77,99.84s-2.09,27.83,75.87,15.74c0,0-64.13-5.52-55.31-19.75" class="cls-12" transform="translate(-23.35 -8.31)"/><path id="path3237" d="M64.84,84.29S36.28,68.55,29.28,56.52,65.43,84.06,64.84,84.29Z" class="cls-15" transform="translate(-23.35 -8.31)"/><path id="path3239" d="M142.51,97.3c-.54.79-41.63,3.37-66.24-10.79C70,78.32,74.18,68,77,68.65,101.12,74.5,145.77,92.59,142.51,97.3Z" class="cls-15" transform="translate(-23.35 -8.31)"/><path id="path2382" d="M25.43,54.39C31.87,62.83,86.16,128,200.25,88.17l2.85-46.45v-.17C94.76-11.92,32.91,46.06,25.49,53.65Z" class="cls-12" transform="translate(-23.35 -8.31)"/></g><path id="svg_1756" d="M324.14,532.06" class="cls-16" data-name="svg 1756" transform="translate(-23.35 -8.31)"/><path id="svg_1755" d="M324.14,532.06" class="cls-16" data-name="svg 1755" transform="translate(-23.35 -8.31)"/><path id="svg_1754" d="M324.14,532.06" class="cls-16" data-name="svg 1754" transform="translate(-23.35 -8.31)"/><path id="svg_1753" d="M324.14,532.06" class="cls-16" data-name="svg 1753" transform="translate(-23.35 -8.31)"/><path id="svg_1752" d="M324.14,532.06" class="cls-16" data-name="svg 1752" transform="translate(-23.35 -8.31)"/><path id="svg_1751" d="M324.14,532.06" class="cls-16" data-name="svg 1751" transform="translate(-23.35 -8.31)"/><path id="svg_1750" d="M324.14,532.06" class="cls-16" data-name="svg 1750" transform="translate(-23.35 -8.31)"/><path id="svg_1749" d="M324.14,532.06" class="cls-16" data-name="svg 1749" transform="translate(-23.35 -8.31)"/><path id="svg_1748" d="M324.14,532.06" class="cls-16" data-name="svg 1748" transform="translate(-23.35 -8.31)"/><path id="svg_1747" d="M324.14,532.06" class="cls-16" data-name="svg 1747" transform="translate(-23.35 -8.31)"/><path id="svg_1746" d="M324.14,532.06" class="cls-16" data-name="svg 1746" transform="translate(-23.35 -8.31)"/><path id="svg_1745" d="M324.14,532.06" class="cls-16" data-name="svg 1745" transform="translate(-23.35 -8.31)"/><path id="svg_13" d="M324.14,532.06" class="cls-16" data-name="svg 13" transform="translate(-23.35 -8.31)"/><path id="svg_12" d="M324.14,532.06" class="cls-16" data-name="svg 12" transform="translate(-23.35 -8.31)"/><path id="svg_11" d="M324.14,532.06" class="cls-16" data-name="svg 11" transform="translate(-23.35 -8.31)"/><path id="svg_10" d="M324.14,532.06" class="cls-16" data-name="svg 10" transform="translate(-23.35 -8.31)"/><path id="svg_9" d="M324.14,532.06" class="cls-16" data-name="svg 9" transform="translate(-23.35 -8.31)"/><path id="svg_8" d="M324.14,532.06" class="cls-16" data-name="svg 8" transform="translate(-23.35 -8.31)"/><path id="svg_7" d="M324.14,532.06" class="cls-16" data-name="svg 7" transform="translate(-23.35 -8.31)"/><path id="svg_6" d="M324.14,532.06" class="cls-16" data-name="svg 6" transform="translate(-23.35 -8.31)"/><path id="svg_5" d="M324.14,532.06" class="cls-16" data-name="svg 5" transform="translate(-23.35 -8.31)"/><path id="svg_4" d="M324.14,532.06" class="cls-16" data-name="svg 4" transform="translate(-23.35 -8.31)"/><g id="svg_15" data-name="svg 15"><path id="svg_3" d="M324.14,532.06" class="cls-16" data-name="svg 3" transform="translate(-23.35 -8.31)"/><path id="svg_2" d="M324.14,532.06" class="cls-16" data-name="svg 2" transform="translate(-23.35 -8.31)"/></g></svg>