<svg xmlns="http://www.w3.org/2000/svg" xmlns:xlink="http://www.w3.org/1999/xlink" id="Capa_1" width="15" height="15" x="0" y="0" version="1.1" viewBox="0 0 490 490" xml:space="preserve" style="enable-background:new 0 0 490 490"><g><rect width="122.5" height="30.625" x="155.039" y="97.251"/><rect width="122.5" height="30.625" x="197.148" y="142.232"/><rect width="122.5" height="30.625" x="155.039" y="187.212"/><rect width="122.5" height="30.632" x="197.148" y="232.193"/><rect width="122.5" height="30.625" x="155.039" y="277.166"/><path d="M22.969,362.717h183.75v52.951h-69.863v30.625h216.289v-30.625h-69.863v-52.951h183.75 c12.633,0,22.969-10.336,22.969-22.969V66.676c0-12.633-10.336-22.969-22.969-22.969H22.969C10.336,43.707,0,54.043,0,66.676 v273.073C0,352.381,10.336,362.717,22.969,362.717z M30.625,74.332h428.75v257.76H30.625V74.332z"/></g></svg>