<svg xmlns="http://www.w3.org/2000/svg" xmlns:xlink="http://www.w3.org/1999/xlink" width="16" height="16" version="1.1" viewBox="0 0 17 15"><title>5B108AAF-111D-43D8-B969-BD9A55E68A64</title><desc>Created with sketchtool.</desc><g id="UI" fill="none" fill-rule="evenodd" stroke="none" stroke-width="1"><g id="awesome-design-plugins-v3" transform="translate(-863.000000, -611.000000)"><g id="content" transform="translate(520.000000, 469.000000)"><g id="design-tool-item" transform="translate(0.000000, 135.000000)"><g id="sketch-support-tag" transform="translate(336.000000, 1.000000)"><g id="sketch-2" transform="translate(7.000000, 6.000000)"><g id="a-link" fill="#EA6C00" transform="translate(0.030421, 5.389709)"><polygon id="a" points="3.423 0 8.452 9.593 0 0"/></g><g id="b-link" fill="#EA6C00" transform="translate(12.640842, 10.186221) scale(-1, 1) translate(-12.640842, -10.186221) translate(8.346105, 5.389709)"><polygon id="b" points="3.423 0 8.452 9.593 0 0"/></g><g id="c-link" fill="#FDAD00" transform="translate(3.453684, 5.389709)"><polygon id="c" points="0 0 10.057 0 5.028 9.593"/></g><g id="d-link" fill="#FDD231" transform="translate(3.453684, 0.073256)"><polygon id="d" points="5.028 0 .265 .491 0 5.316"/></g><g id="e-link" fill="#FDD231" transform="translate(10.915789, 2.776744) scale(-1, 1) translate(-10.915789, -2.776744) translate(8.321053, 0.073256)"><polygon id="e" points="5.028 0 .265 .491 0 5.316"/></g><g id="f-link" fill="#FDAD00" transform="translate(15.056632, 3.005930) scale(-1, 1) translate(-15.056632, -3.005930) translate(13.177684, 0.564070)"><polygon id="f" points="0 4.826 3.688 0 3.423 4.826"/></g><g id="g-link" fill="#FDAD00" transform="translate(0.030421, 0.564070)"><polygon id="g" points="0 4.826 3.688 0 3.423 4.826"/></g><g id="h-link" fill="#FEEEB7" transform="translate(3.453684, 0.073256)"><polygon id="h" points="5.028 0 0 5.316 10.057 5.316"/></g></g></g></g></g></g></g></svg>