<?xml version="1.0" standalone="no"?>
<!DOCTYPE svg PUBLIC "-//W3C//DTD SVG 20010904//EN"
 "http://www.w3.org/TR/2001/REC-SVG-20010904/DTD/svg10.dtd">
<svg version="1.0" xmlns="http://www.w3.org/2000/svg"
 width="616.000000pt" height="616.000000pt" viewBox="0 0 616.000000 616.000000"
 preserveAspectRatio="xMidYMid meet">
<metadata>
Created by potrace 1.11, written by Peter Selinger 2001-2013
</metadata>
<g transform="translate(0.000000,616.000000) scale(0.100000,-0.100000)"
fill="#000000" stroke="none">
<path d="M2887 5664 c-1 -1 -40 -5 -86 -9 -47 -4 -94 -9 -105 -11 -11 -2 -38
-7 -61 -10 -22 -4 -49 -8 -60 -10 -11 -1 -30 -5 -41 -8 -12 -2 -37 -7 -55 -10
-19 -3 -65 -15 -104 -26 -38 -11 -80 -23 -93 -26 -24 -5 -221 -77 -257 -93
-11 -5 -50 -23 -86 -40 -37 -17 -71 -31 -77 -31 -6 0 -12 -3 -14 -7 -1 -5 -28
-21 -58 -37 -63 -32 -93 -51 -205 -126 -143 -95 -248 -182 -385 -320 -124
-124 -157 -160 -222 -245 -12 -16 -26 -34 -31 -40 -23 -28 -117 -166 -117
-172 0 -3 -6 -14 -14 -22 -51 -60 -203 -380 -250 -531 -10 -30 -20 -62 -23
-70 -3 -8 -7 -19 -8 -25 -2 -5 -14 -53 -28 -105 -34 -129 -56 -262 -72 -435
-6 -59 -6 -355 -1 -405 2 -19 7 -62 10 -95 7 -71 22 -159 46 -275 15 -70 18
-85 20 -85 1 0 3 -9 5 -20 19 -97 118 -352 193 -500 25 -49 51 -100 56 -112 6
-13 14 -23 19 -23 4 0 7 -5 7 -11 0 -6 14 -31 30 -56 17 -24 30 -46 30 -48 0
-5 61 -92 87 -125 6 -8 40 -51 74 -95 79 -101 301 -323 399 -398 272 -209 528
-348 815 -441 119 -38 240 -71 295 -80 19 -3 46 -8 60 -11 14 -3 44 -8 66 -11
23 -2 52 -7 65 -9 144 -28 568 -23 724 8 17 4 48 9 70 12 22 3 69 13 105 21
36 9 74 17 85 20 54 11 200 58 252 80 17 8 34 14 38 14 4 0 23 7 43 16 21 9
53 23 72 32 138 60 367 190 465 264 371 280 620 571 814 954 51 102 133 295
146 344 2 8 20 70 39 137 19 67 37 134 39 150 3 15 10 55 15 88 30 167 37 254
36 460 0 213 -17 386 -49 525 -3 14 -19 96 -19 102 -1 3 -4 10 -8 14 -5 4 -8
15 -8 24 0 49 -128 388 -188 500 -76 141 -99 182 -140 245 -250 388 -611 713
-1022 920 -131 67 -371 162 -450 180 -8 2 -44 11 -80 20 -36 9 -74 19 -85 21
-11 2 -31 6 -45 9 -94 19 -172 30 -280 41 -52 6 -388 12 -393 8z m433 -107
c14 -3 48 -8 75 -11 68 -8 98 -14 180 -32 39 -9 79 -18 90 -20 104 -21 365
-119 510 -192 66 -33 256 -144 279 -163 6 -5 49 -37 96 -72 115 -84 127 -94
266 -232 253 -251 445 -542 569 -860 68 -172 129 -397 149 -545 2 -19 7 -55
11 -80 14 -103 20 -382 10 -485 -11 -120 -22 -211 -30 -245 -3 -14 -8 -38 -11
-55 -3 -16 -10 -50 -15 -75 -6 -25 -13 -55 -15 -66 -8 -42 -82 -261 -114 -339
-85 -203 -224 -437 -366 -615 -83 -105 -283 -305 -387 -387 -372 -297 -833
-489 -1292 -538 -38 -4 -83 -9 -100 -11 -43 -5 -313 -4 -360 1 -22 2 -65 7
-95 10 -121 13 -159 19 -260 41 -78 17 -83 19 -140 35 -25 7 -47 13 -50 14
-70 20 -100 29 -125 40 -16 7 -61 25 -100 40 -468 187 -900 547 -1180 985
-180 281 -320 652 -361 957 -3 26 -8 50 -9 53 -9 15 -19 194 -19 340 0 155 7
272 18 330 3 14 8 45 11 70 4 37 31 168 50 243 52 211 180 503 309 707 37 58
146 210 166 231 8 8 35 40 60 69 100 119 263 271 395 368 39 29 75 55 80 60
22 16 172 110 205 127 165 84 196 99 200 100 3 1 16 6 30 12 148 63 317 118
450 146 108 24 153 30 275 43 33 3 62 8 64 10 6 6 451 -3 481 -9z"/>
<path d="M2340 4494 c-162 -101 -303 -193 -312 -204 -23 -29 -6 -70 30 -70 19
0 304 167 488 287 52 33 50 64 52 -983 1 -1110 6 -1040 -84 -1131 -150 -151
-398 -96 -475 105 -33 86 -24 171 25 252 28 48 57 73 146 128 41 25 77 49 80
53 3 3 20 14 38 23 18 9 64 37 102 62 54 34 70 50 70 68 0 25 -15 42 -41 48
-17 3 -290 -160 -377 -225 -195 -148 -210 -425 -31 -592 208 -195 553 -99 630
175 9 31 13 139 14 345 1 254 4 305 17 330 19 36 12 30 213 155 88 55 167 104
175 110 42 28 192 120 196 120 3 0 17 8 32 19 24 16 135 86 187 118 11 6 47
28 79 49 45 28 63 35 75 27 15 -9 16 -100 15 -979 0 -533 -3 -976 -6 -984 -26
-77 -80 -140 -149 -176 -62 -31 -148 -38 -218 -18 -71 20 -160 106 -184 178
-43 126 8 274 118 343 11 7 54 34 95 59 41 26 86 54 100 63 14 9 50 32 82 50
69 42 87 72 58 101 -23 23 -33 24 -62 8 -85 -50 -312 -193 -351 -222 -146
-112 -193 -305 -115 -474 29 -62 121 -154 181 -180 202 -89 427 -2 517 200 30
67 32 98 34 413 1 278 2 292 22 319 12 16 37 39 57 50 166 96 387 242 393 258
3 10 -1 30 -10 43 -23 35 -49 24 -241 -100 -153 -98 -192 -117 -208 -100 -12
11 -14 120 -14 649 0 593 -1 637 -17 655 -11 12 -25 17 -34 14 -20 -8 -311
-187 -329 -202 -7 -6 -14 -11 -17 -11 -3 0 -76 -44 -163 -98 -87 -55 -169
-105 -182 -112 -14 -7 -30 -17 -35 -22 -31 -26 -272 -168 -287 -168 -9 0 -19
6 -22 14 -3 7 -6 308 -6 667 -1 600 -3 655 -18 667 -9 6 -22 12 -27 11 -6 0
-144 -83 -306 -185z"/>
<path d="M4410 2980 c-11 -11 -20 -31 -20 -45 0 -29 40 -75 61 -71 37 6 57 19
67 41 30 66 -57 126 -108 75z"/>
</g>
</svg>
