<?xml version="1.0" encoding="UTF-8"?>
<svg width="254px" height="41px" viewBox="0 0 254 41" version="1.1" xmlns="http://www.w3.org/2000/svg" xmlns:xlink="http://www.w3.org/1999/xlink">
    <!-- Generator: sketchtool 47.1 (45422) - http://www.bohemiancoding.com/sketch -->
    <title>9C0567F1-B1E7-4E03-81DF-2023879B1FC7</title>
    <desc>Created with sketchtool.</desc>
    <defs>
        <linearGradient x1="89.8301728%" y1="22.630174%" x2="17.3721161%" y2="79.6984738%" id="linearGradient-1">
            <stop stop-color="#00A1FF" offset="0%"/>
            <stop stop-color="#007CFF" offset="52.5936346%"/>
            <stop stop-color="#1360FF" offset="100%"/>
        </linearGradient>
    </defs>
    <g id="1.2-WIP" stroke="none" stroke-width="1" fill="none" fill-rule="evenodd">
        <g id="01-Light-post" transform="translate(-136.000000, -25.000000)">
            <g id="Light-header">
                <g id="Hero">
                    <g id="Nav">
                        <g id="logo_black" transform="translate(136.000000, 25.000000)">
                            <g id="Group-3-Copy-13">
                                <g id="Group-2">
                                    <g id="Group-42-Copy-3">
                                        <g id="Group-7">
                                            <path d="M5.20569147,6.96217481 L10.8965512,2.11440136 C14.2060463,-0.704800454 19.0766178,-0.704800454 22.3861128,2.11440136 L28.0769726,6.96217481 C29.5695221,8.23360692 30.5967346,9.96414654 30.9972105,11.8818843 L33.0961468,21.9329518 C33.7026702,24.8373791 32.8092782,27.8519064 30.717517,29.9590408 L22.9277209,37.8060877 C19.4863003,41.2728008 13.8819655,41.2974537 10.4100889,37.8611513 C10.3977803,37.8489689 7.78279974,35.2149321 2.56514707,29.9590408 C0.473385899,27.8519064 -0.420006178,24.8373791 0.186517262,21.9329518 L2.2854536,11.8818843 C2.68592941,9.96414654 3.71314197,8.23360692 5.20569147,6.96217481 Z" id="Rectangle-2-Copy-45" fill="url(#linearGradient-1)"/>
                                            <path d="M28.9514162,20.622523 C28.9514162,23.3460781 26.8364048,25.5763805 24.1569141,25.7652042 L24.1569141,27.0670614 C24.1569141,31.2364337 20.7719357,34.6163779 16.5963532,34.6163779 C12.4207707,34.6163779 9.0357923,31.2364337 9.0357923,27.0670614 L9.0357923,25.7652042 C6.35630164,25.5763805 4.24129026,23.3460781 4.24129026,20.622523 C4.24129026,17.7751467 6.55298284,15.4668922 9.40460015,15.4668922 L23.7881063,15.4668922 C26.6397236,15.4668922 28.9514162,17.7751467 28.9514162,20.622523 Z M9.68120604,19.3336153 C8.91737997,19.3336153 8.29817661,19.9518977 8.29817661,20.7145878 C8.29817661,21.4772779 8.91737997,22.0955603 9.68120604,22.0955603 L23.6959043,22.0955603 C24.4597304,22.0955603 25.0789337,21.4772779 25.0789337,20.7145878 C25.0789337,19.9518977 24.4597304,19.3336153 23.6959043,19.3336153 L9.68120604,19.3336153 Z M14.660112,25.041635 C13.8962859,25.041635 13.2770826,25.6599175 13.2770826,26.4226076 C13.2770826,27.1852976 13.8962859,27.8035801 14.660112,27.8035801 L18.7169983,27.8035801 C19.4808244,27.8035801 20.1000278,27.1852976 20.1000278,26.4226076 C20.1000278,25.6599175 19.4808244,25.041635 18.7169983,25.041635 L14.660112,25.041635 Z" id="Combined-Shape" fill="#FFFFFF"/>
                                        </g>
                                    </g>
                                </g>
                            </g>
                            <g id="logos/text_logo" transform="translate(43.795455, 12.113636)" fill="#2B3E51">
                                <path d="M78.7860097,4.48868437 L77.790068,4.48868437 C77.5154417,4.48868437 77.142301,4.60549687 76.9324515,5.15149687 L73.297534,12.8565281 L69.7132233,5.16199687 C69.4993252,4.60549687 69.1261845,4.48868437 68.8508835,4.48868437 L67.8549417,4.48868437 C67.6477913,4.48868437 67.4689806,4.56021562 67.323233,4.70196562 C67.1774854,4.84371562 67.1039369,5.01827812 67.1039369,5.21974687 C67.1039369,5.30046562 67.114733,5.37330937 67.1423981,5.45271562 L71.9203544,15.7551844 L69.7611311,20.2741219 C69.7395388,20.3384344 69.728068,20.4112781 69.728068,20.4906844 C69.728068,20.6928094 69.8022913,20.8673719 69.9473641,21.0084656 C70.0931117,21.1502156 70.2725971,21.2224031 70.4797476,21.2224031 L71.4756893,21.2224031 C71.7503155,21.2224031 72.1234563,21.1055906 72.3333058,20.5595906 L79.5046262,5.43762187 C79.5268932,5.37330937 79.5376893,5.30243437 79.5376893,5.21974687 C79.5376893,5.01827812 79.4641408,4.84371562 79.3183932,4.70196562 C79.1726456,4.56021562 78.993835,4.48868437 78.7860097,4.48868437 L78.7860097,4.48868437 Z M57.9002476,9.52080937 C57.9360097,8.67096563 58.2551699,7.97205937 58.8503058,7.44312187 C59.4710825,6.89187187 60.2382816,6.61230937 61.1296359,6.61230937 C62.1161311,6.61230937 62.9150437,6.88727812 63.503432,7.42934062 C64.0682039,7.95105937 64.3644223,8.65455937 64.384665,9.52080937 L57.9002476,9.52080937 Z M61.1296359,4.25243437 C60.050699,4.25243437 59.0864709,4.49065312 58.2625922,4.95987187 C57.4400631,5.42909062 56.7734029,6.07615312 56.2835291,6.88465312 C55.7956796,7.68921562 55.4974369,8.60205937 55.3982476,9.60284062 C55.3658592,10.0759969 55.3489903,10.4448094 55.3489903,10.7007469 C55.3489903,10.9566844 55.3658592,11.3254969 55.3982476,11.8025906 C55.4974369,12.8453719 55.7950049,13.7975906 56.2821796,14.6329969 C56.7720534,15.4729969 57.4427621,16.1410594 58.2747379,16.6181531 C59.1060388,17.0952469 60.0668932,17.3380594 61.1296359,17.3380594 C62.2153204,17.3380594 63.1647039,17.1785906 63.9507961,16.8655594 C64.7409369,16.5492469 65.357665,16.1535281 65.7854612,15.6889031 C66.2186553,15.2177156 66.4730388,14.7478406 66.5438883,14.2825594 C66.5648058,14.0620594 66.489233,13.8625594 66.325267,13.7037469 C66.1633252,13.5455906 65.9602233,13.4661844 65.7200097,13.4661844 L64.9912718,13.4661844 C64.7874951,13.4661844 64.6255534,13.4944031 64.4953252,13.5521531 C64.3698204,13.6085906 64.2389175,13.7044031 64.0897961,13.8500906 C63.751068,14.2097156 63.3637573,14.4919031 62.939335,14.6874656 C62.5189612,14.8797469 61.9096553,14.9781844 61.1296359,14.9781844 C60.1917233,14.9781844 59.4177767,14.6953406 58.8300631,14.1394969 C58.2463981,13.5862781 57.9326359,12.8086219 57.8975485,11.8334344 L66.0843786,11.8334344 C66.3083981,11.8334344 66.5040777,11.7533719 66.6653447,11.5965281 C66.8272864,11.4390281 66.908932,11.2493719 66.908932,11.0314969 L66.908932,10.3936219 C66.908932,8.51740312 66.3873447,7.00999687 65.3590146,5.91209062 C64.3259612,4.81090312 62.9028981,4.25243437 61.1296359,4.25243437 L61.1296359,4.25243437 Z M91.7791359,14.6474344 L83.7137621,14.6474344 L83.7137621,1.03812187 C83.7137621,0.820903125 83.6321165,0.631246875 83.4695,0.473090625 C83.3075583,0.316246875 83.1118786,0.236184375 82.888534,0.236184375 L81.8925922,0.236184375 C81.6692476,0.236184375 81.473568,0.316246875 81.3116262,0.473090625 C81.1496845,0.631246875 81.0680388,0.820903125 81.0680388,1.03812187 L81.0680388,16.2998719 C81.0680388,16.5170906 81.1496845,16.7067469 81.3116262,16.8649031 C81.4728932,17.0224031 81.6685728,17.1018094 81.8925922,17.1018094 L91.7791359,17.1018094 C92.0031553,17.1018094 92.198835,17.0224031 92.3601019,16.8649031 C92.5220437,16.7067469 92.6043641,16.5170906 92.6043641,16.2998719 L92.6043641,15.4493719 C92.6043641,15.2328094 92.5220437,15.0431531 92.3601019,14.8843406 C92.198835,14.7268406 92.0031553,14.6474344 91.7791359,14.6474344 L91.7791359,14.6474344 Z M138.265866,6.80655937 C137.807706,5.98755937 137.159939,5.34968437 136.340784,4.91065312 C135.525677,4.47424687 134.583716,4.25243437 133.539191,4.25243437 C132.609376,4.25243437 131.811138,4.41321562 131.166745,4.73084062 C130.682944,4.96905937 130.273366,5.25452812 129.942735,5.58265312 L129.942735,5.29062187 C129.942735,5.07340312 129.861089,4.88374687 129.698473,4.72559062 C129.536531,4.56874687 129.340852,4.48868437 129.117507,4.48868437 L128.21873,4.48868437 C127.99606,4.48868437 127.800381,4.56874687 127.638439,4.72559062 C127.476497,4.88309062 127.394177,5.07274687 127.394177,5.29062187 L127.394177,16.2998719 C127.394177,16.5177469 127.475822,16.7080594 127.638439,16.8649031 C127.799706,17.0224031 127.995386,17.1018094 128.21873,17.1018094 L129.117507,17.1018094 C129.341526,17.1018094 129.537206,17.0224031 129.698473,16.8649031 C129.861089,16.7067469 129.942735,16.5170906 129.942735,16.2998719 L129.942735,10.0628719 C129.942735,8.93084062 130.232881,8.06262187 130.806424,7.48315312 C131.377944,6.90565312 132.174832,6.61230937 133.174822,6.61230937 C134.190332,6.61230937 134.990594,6.90499687 135.554017,7.48249687 C136.120138,8.06262187 136.40691,8.93084062 136.40691,10.0628719 L136.40691,16.2998719 C136.40691,16.5170906 136.488555,16.7074031 136.649822,16.8649031 C136.811089,17.0224031 137.006769,17.1018094 137.230788,17.1018094 L138.129565,17.1018094 C138.353585,17.1018094 138.549939,17.0217469 138.710531,16.8649031 C138.872473,16.7080594 138.954119,16.5177469 138.954119,16.2998719 L138.954119,9.70849687 C138.954119,8.59943437 138.722002,7.62293437 138.265866,6.80655937 L138.265866,6.80655937 Z M125.075034,4.48868437 L123.811888,4.48868437 C123.059534,4.48868437 122.437408,4.60549687 121.962379,4.83649687 C121.621626,5.00252812 121.312587,5.23812187 121.04066,5.53934062 L121.04066,5.29062187 C121.04066,5.07274687 120.95834,4.88309062 120.797073,4.72559062 C120.635131,4.56874687 120.440126,4.48868437 120.216107,4.48868437 L119.31733,4.48868437 C119.093311,4.48868437 118.898306,4.56874687 118.737039,4.72559062 C118.575772,4.88309062 118.493451,5.07274687 118.493451,5.29062187 L118.493451,16.2998719 C118.493451,16.5177469 118.575097,16.7080594 118.737039,16.8649031 C118.897631,17.0217469 119.093311,17.1018094 119.31733,17.1018094 L120.216107,17.1018094 C120.440126,17.1018094 120.635806,17.0217469 120.797073,16.8649031 C120.959015,16.7080594 121.04066,16.5177469 121.04066,16.2998719 L121.04066,9.40137187 C121.04066,8.56859062 121.265354,7.92809062 121.707995,7.49759062 C122.151311,7.06709062 122.809199,6.84855937 123.666141,6.84855937 L125.075034,6.84855937 C125.297704,6.84855937 125.493383,6.76915312 125.655325,6.61165312 C125.816592,6.45480937 125.898913,6.26449687 125.898913,6.04662187 L125.898913,5.29062187 C125.898913,5.07274687 125.816592,4.88309062 125.655325,4.72559062 C125.493383,4.56874687 125.297704,4.48868437 125.075034,4.48868437 L125.075034,4.48868437 Z M113.612932,11.6457469 C113.612932,12.6320906 113.264083,13.4419031 112.575155,14.0528719 C111.881505,14.6664656 110.963835,14.9781844 109.846437,14.9781844 C109.131194,14.9781844 108.596786,14.8324969 108.257383,14.5463719 C107.92068,14.2609031 107.756714,13.9537781 107.756714,13.6066219 C107.756714,13.1275594 108.016495,12.7357781 108.551578,12.4109344 C109.111626,12.0703406 109.915937,11.8196531 110.942243,11.6660906 L113.612932,11.2474031 L113.612932,11.6457469 Z M110.939544,4.25243437 C110.110942,4.25243437 109.320126,4.40796562 108.590039,4.71509062 C107.857252,5.02221562 107.261442,5.42121562 106.818801,5.90159062 C106.366714,6.39049687 106.110981,6.89515312 106.059024,7.40243437 C106.038782,7.62424687 106.120427,7.82571562 106.294515,7.98518437 C106.463879,8.14005937 106.662257,8.21880937 106.883578,8.21880937 L107.612316,8.21880937 C107.830937,8.21880937 108.003675,8.19124687 108.139976,8.13480937 C108.281,8.07574687 108.409879,7.97074687 108.524587,7.82177812 C108.834301,7.41555937 109.164932,7.10777812 109.508383,6.90827812 C109.844413,6.71205937 110.326189,6.61230937 110.939544,6.61230937 C111.737782,6.61230937 112.392971,6.81049687 112.885544,7.20162187 C113.375417,7.58946562 113.612932,8.13152812 113.612932,8.85799687 L113.612932,9.02599687 L110.329563,9.54640312 C108.803262,9.78593437 107.561034,10.2538406 106.634592,10.9363406 C105.687908,11.6352469 105.208155,12.6130594 105.208155,13.8428719 C105.208155,14.5030594 105.393714,15.1061531 105.760107,15.6357469 C106.123801,16.1627156 106.649437,16.5833719 107.32217,16.8852469 C107.98883,17.1858094 108.756704,17.3380594 109.603524,17.3380594 C110.463165,17.3380594 111.334277,17.1667781 112.193243,16.8294656 C112.815369,16.5853406 113.290398,16.2736219 113.612932,15.8975906 L113.612932,16.2998719 C113.612932,16.5177469 113.694578,16.7080594 113.857194,16.8649031 C114.018461,17.0224031 114.214141,17.1018094 114.437485,17.1018094 L115.336262,17.1018094 C115.560282,17.1018094 115.755961,17.0224031 115.917903,16.8649031 C116.079845,16.7067469 116.16149,16.5170906 116.16149,16.2998719 L116.16149,9.09424687 C116.16149,7.57240312 115.672291,6.37146562 114.708738,5.52359062 C113.749908,4.68030937 112.482039,4.25243437 110.939544,4.25243437 L110.939544,4.25243437 Z M95.3728932,9.52080937 C95.4093301,8.67096563 95.7284903,7.97205937 96.3236262,7.44312187 C96.9444029,6.89187187 97.7109272,6.61230937 98.6022816,6.61230937 C99.5894515,6.61230937 100.388364,6.88727812 100.976752,7.42934062 C101.542199,7.95105937 101.837743,8.65455937 101.857311,9.52080937 L95.3728932,9.52080937 Z M98.6022816,4.25243437 C97.5246942,4.25243437 96.5597913,4.49065312 95.7359126,4.95987187 C94.9127087,5.42909062 94.2473981,6.07615312 93.7568495,6.88465312 C93.269,7.68855937 92.9707573,8.60205937 92.871568,9.60284062 C92.8391796,10.0740281 92.8229854,10.4434969 92.8229854,10.7007469 C92.8229854,10.9586531 92.8391796,11.3274656 92.871568,11.8025906 C92.9707573,12.8453719 93.2683252,13.7975906 93.7555,14.6329969 C94.2453738,15.4729969 94.9154078,16.1410594 95.7480583,16.6181531 C96.5793592,17.0952469 97.5395388,17.3380594 98.6022816,17.3380594 C99.6893155,17.3380594 100.638024,17.1785906 101.423442,16.8655594 C102.214257,16.5492469 102.83166,16.1535281 103.258782,15.6889031 C103.691301,15.2183719 103.946359,14.7484969 104.017883,14.2825594 C104.038126,14.0620594 103.962553,13.8625594 103.798587,13.7037469 C103.63732,13.5455906 103.432869,13.4661844 103.19333,13.4661844 L102.464592,13.4661844 C102.260816,13.4661844 102.098874,13.4944031 101.967971,13.5521531 C101.84449,13.6079344 101.709539,13.7063719 101.563117,13.8500906 C101.223714,14.2103719 100.837078,14.4919031 100.41333,14.6868094 C99.9922816,14.8797469 99.382301,14.9781844 98.6022816,14.9781844 C97.6650437,14.9781844 96.8910971,14.6953406 96.3033835,14.1394969 C95.7197184,13.5856219 95.4059563,12.8079656 95.3708689,11.8334344 L103.557699,11.8334344 C103.781718,11.8334344 103.977398,11.7540281 104.138665,11.5965281 C104.300607,11.4390281 104.382927,11.2487156 104.382927,11.0314969 L104.382927,10.3936219 C104.382927,8.51740312 103.860665,7.00999687 102.832335,5.91209062 C101.799282,4.81090312 100.376218,4.25243437 98.6022816,4.25243437 L98.6022816,4.25243437 Z M26.8641117,11.7717469 C26.7709951,12.7384031 26.4390146,13.5245906 25.8769417,14.1086531 C25.3216165,14.6854969 24.5173058,14.9781844 23.4856019,14.9781844 C22.4545728,14.9781844 21.6495874,14.6854969 21.0949369,14.1086531 C20.5321893,13.5245906 20.2002087,12.7384031 20.1070922,11.7724031 C20.0915728,11.6063719 20.0834757,11.2854656 20.0834757,10.8188719 C20.0834757,10.3365281 20.0915728,9.99855937 20.1070922,9.81874687 C20.2002087,8.85209062 20.5321893,8.06655937 21.0949369,7.48184062 C21.6502621,6.90499687 22.4545728,6.61230937 23.4856019,6.61230937 C24.5166311,6.61230937 25.3216165,6.90499687 25.8769417,7.48184062 C26.4390146,8.06590312 26.7709951,8.85209062 26.8641117,9.81677812 C26.8958252,10.1882156 26.9120194,10.5255281 26.9120194,10.8188719 C26.9120194,11.1122156 26.8958252,11.4331219 26.8641117,11.7717469 L26.8641117,11.7717469 Z M27.6603252,5.72834062 C26.6286214,4.74921562 25.2237767,4.25243437 23.4856019,4.25243437 C21.7481019,4.25243437 20.343932,4.74921562 19.3108786,5.72834062 C18.2818738,6.70549687 17.6928107,8.03243437 17.5605583,9.67043437 C17.5436893,9.85090312 17.5355922,10.2269344 17.5355922,10.8188719 C17.5355922,11.3793094 17.5436893,11.7389344 17.5605583,11.9207156 C17.7096796,13.5593719 18.3027913,14.8849969 19.3230243,15.8614969 C20.3466311,16.8412781 21.7474272,17.3380594 23.4856019,17.3380594 C25.2244515,17.3380594 26.6252476,16.8412781 27.6481796,15.8614969 C28.6697621,14.8843406 29.262199,13.5587156 29.4106456,11.9207156 C29.4437087,11.5715906 29.4599029,11.2014656 29.4599029,10.8188719 C29.4599029,10.4047781 29.4437087,10.0182469 29.4106456,9.67174687 C29.2783932,8.03177812 28.6893301,6.70484062 27.6603252,5.72834062 L27.6603252,5.72834062 Z M14.6219903,0.236184375 L13.6989223,0.236184375 C13.1786845,0.236184375 12.768432,0.520996875 12.4803107,1.08077812 L7.72327184,10.0366219 L2.96758252,1.08274687 C2.67878641,0.520996875 2.26853398,0.236184375 1.74762136,0.236184375 L0.824553398,0.236184375 C0.601208738,0.236184375 0.405529126,0.316246875 0.244262136,0.473090625 C0.0823203883,0.630590625 0,0.820903125 0,1.03812187 L0,16.2998719 C0,16.5170906 0.0823203883,16.7074031 0.243587379,16.8649031 C0.405529126,17.0217469 0.600533981,17.1018094 0.824553398,17.1018094 L1.8211699,17.1018094 C2.04451456,17.1018094 2.24019417,17.0217469 2.40146117,16.8649031 C2.56340291,16.7080594 2.64504854,16.5177469 2.64504854,16.2998719 L2.64504854,5.77427812 L6.11532524,12.2855906 C6.25432524,12.5566219 6.41154369,12.7653094 6.58293204,12.9057469 C6.76781553,13.0566844 6.9958835,13.1328094 7.26173786,13.1328094 L8.18480583,13.1328094 C8.45066019,13.1328094 8.67940291,13.0566844 8.86428641,12.9057469 C9.035,12.7653094 9.19221845,12.5566219 9.33054369,12.2882156 L12.8014951,5.77493437 L12.8014951,16.2998719 C12.8014951,16.5170906 12.8838155,16.7074031 13.0450825,16.8649031 C13.2070243,17.0224031 13.4027039,17.1018094 13.6260485,17.1018094 L14.6219903,17.1018094 C14.8460097,17.1018094 15.0416893,17.0217469 15.2029563,16.8649031 C15.3648981,16.7074031 15.4465437,16.5170906 15.4465437,16.2998719 L15.4465437,1.03812187 C15.4465437,0.820903125 15.3648981,0.630590625 15.2029563,0.473090625 C15.0410146,0.316246875 14.8460097,0.236184375 14.6219903,0.236184375 L14.6219903,0.236184375 Z M49.1499951,10.1442469 L54.8496699,5.81955937 C55.0682913,5.64565312 55.1789515,5.44418437 55.1789515,5.21974687 C55.1789515,5.01827812 55.1054029,4.84371562 54.9596553,4.70196562 C54.8139078,4.56021562 54.6350971,4.48868437 54.4272718,4.48868437 L53.2127087,4.48868437 C52.9907136,4.48868437 52.7990825,4.53134062 52.6445631,4.61599687 C52.5102864,4.68949687 52.3490194,4.79252812 52.1621117,4.92443437 L47.6972427,8.28705938 L47.6972427,0.801871875 C47.6972427,0.584653125 47.6155971,0.394340625 47.4536553,0.236840625 C47.2923883,0.079996875 47.0967087,-6.5625e-05 46.8726893,-6.5625e-05 L45.9739126,-6.5625e-05 C45.750568,-6.5625e-05 45.5548883,0.079996875 45.3936214,0.236840625 C45.2316796,0.394340625 45.1493592,0.583996875 45.1493592,0.801871875 L45.1493592,16.2998719 C45.1493592,16.5177469 45.2316796,16.7080594 45.3929466,16.8649031 C45.5548883,17.0217469 45.750568,17.1018094 45.9739126,17.1018094 L46.8726893,17.1018094 C47.0967087,17.1018094 47.2923883,17.0217469 47.4536553,16.8649031 C47.6155971,16.7074031 47.6972427,16.5170906 47.6972427,16.2998719 L47.6972427,12.1156219 L52.7633204,16.6608094 C53.1168932,16.9541531 53.4893592,17.1018094 53.8685728,17.1018094 L55.0102621,17.1018094 C55.2180874,17.1018094 55.3968981,17.0302781 55.5426456,16.8885281 C55.6883932,16.7467781 55.7619417,16.5728719 55.7619417,16.3707469 C55.7619417,16.1843719 55.6634272,15.9940594 55.4643738,15.8017781 L49.1499951,10.1442469 Z M40.2283544,4.91065312 C39.4132476,4.47424687 38.4706117,4.25243437 37.4260874,4.25243437 C36.4969466,4.25243437 35.6987087,4.41321562 35.0543155,4.73084062 C34.5711893,4.96905937 34.1609369,5.25452812 33.8303058,5.58265312 L33.8303058,5.29062187 C33.8303058,5.07340312 33.7479854,4.88309062 33.5860437,4.72559062 C33.4241019,4.56874687 33.2284223,4.48868437 33.0050777,4.48868437 L32.106301,4.48868437 C31.8829563,4.48868437 31.6872767,4.56874687 31.525335,4.72559062 C31.364068,4.88309062 31.2817476,5.07340312 31.2817476,5.29062187 L31.2817476,16.2998719 C31.2817476,16.5170906 31.364068,16.7074031 31.525335,16.8649031 C31.6872767,17.0217469 31.8822816,17.1018094 32.106301,17.1018094 L33.0050777,17.1018094 C33.2290971,17.1018094 33.4241019,17.0224031 33.5860437,16.8649031 C33.7479854,16.7074031 33.8303058,16.5170906 33.8303058,16.2998719 L33.8303058,10.0628719 C33.8303058,8.93084062 34.1204515,8.06327812 34.6933204,7.48315312 C35.2648398,6.90565312 36.0624029,6.61230937 37.0617184,6.61230937 C38.0772282,6.61230937 38.878165,6.90499687 39.4415874,7.48249687 C40.007034,8.06262187 40.2938058,8.93084062 40.2938058,10.0628719 L40.2938058,16.2998719 C40.2938058,16.5170906 40.3761262,16.7074031 40.5373932,16.8649031 C40.699335,17.0217469 40.8943398,17.1018094 41.1183592,17.1018094 L42.0171359,17.1018094 C42.2411553,17.1018094 42.436835,17.0217469 42.5987767,16.8649031 C42.7600437,16.7074031 42.8416893,16.5170906 42.8416893,16.2998719 L42.8416893,9.70849687 C42.8416893,8.59943437 42.6102476,7.62293437 42.1534369,6.80655937 C41.6946019,5.98755937 41.046835,5.34968437 40.2283544,4.91065312 L40.2283544,4.91065312 Z" id="Fill-1"/>
                            </g>
                            <path d="M213.3,29.862 C213.208,29.7699995 213.162,29.6473341 213.162,29.494 L213.162,14.429 C213.162,14.2756659 213.208,14.1491672 213.3,14.0495 C213.392,13.9498328 213.514666,13.9 213.668,13.9 L219.671,13.9 C221.189008,13.9 222.338996,14.2909961 223.121,15.073 C223.903004,15.8550039 224.294,16.8363274 224.294,18.017 C224.294,18.9216712 224.094669,19.6653304 223.696,20.248 C223.297331,20.8306696 222.822003,21.252332 222.27,21.513 C222.929337,21.850335 223.485164,22.3639966 223.9375,23.054 C224.389836,23.7440035 224.616,24.5413288 224.616,25.446 C224.616,26.2433373 224.428169,26.9908298 224.0525,27.6885 C223.676831,28.3861702 223.12867,28.9458312 222.408,29.3675 C221.68733,29.7891688 220.828672,30 219.832,30 L213.668,30 C213.514666,30 213.392,29.9540005 213.3,29.862 Z M214.611,20.892 L219.372,20.892 C220.506672,20.892 221.369164,20.6428358 221.9595,20.1445 C222.549836,19.6461642 222.845,18.9370046 222.845,18.017 C222.845,17.1123288 222.549836,16.4300023 221.9595,15.97 C221.369164,15.5099977 220.506672,15.28 219.372,15.28 L214.611,15.28 L214.611,20.892 Z M214.611,28.62 L219.602,28.62 C220.721339,28.62 221.59533,28.3248363 222.224,27.7345 C222.85267,27.1441637 223.167,26.381338 223.167,25.446 C223.167,24.4953286 222.85267,23.7286696 222.224,23.146 C221.59533,22.5633304 220.721339,22.272 219.602,22.272 L214.611,22.272 L214.611,28.62 Z M228.526,29.862 C228.434,29.9540005 228.311334,30 228.158,30 L227.767,30 C227.613666,30 227.491,29.9540005 227.399,29.862 C227.307,29.7699995 227.261,29.6473341 227.261,29.494 L227.261,14.176 C227.261,14.0226659 227.307,13.9000005 227.399,13.808 C227.491,13.7159995 227.613666,13.67 227.767,13.67 L228.158,13.67 C228.311334,13.67 228.434,13.7159995 228.526,13.808 C228.618,13.9000005 228.664,14.0226659 228.664,14.176 L228.664,29.494 C228.664,29.6473341 228.618,29.7699995 228.526,29.862 Z M241.452,24.02 C241.452,24.5106691 241.444333,24.8326659 241.429,24.986 C241.383,26.5346744 240.919171,27.7958285 240.0375,28.7695 C239.155829,29.7431715 237.917675,30.23 236.323,30.23 C234.728325,30.23 233.490171,29.7431715 232.6085,28.7695 C231.726829,27.7958285 231.263,26.5346744 231.217,24.986 L231.194,24.02 L231.217,23.054 C231.263,21.5053256 231.726829,20.2441715 232.6085,19.2705 C233.490171,18.2968285 234.728325,17.81 236.323,17.81 C237.917675,17.81 239.155829,18.2968285 240.0375,19.2705 C240.919171,20.2441715 241.383,21.5053256 241.429,23.054 C241.444333,23.2073341 241.452,23.5293309 241.452,24.02 Z M233.6895,20.1905 C233.022497,20.8881702 232.666,21.8809936 232.62,23.169 L232.597,24.02 L232.62,24.871 C232.666,26.1590064 233.022497,27.1518298 233.6895,27.8495 C234.356503,28.5471702 235.234328,28.896 236.323,28.896 C237.411672,28.896 238.289497,28.5471702 238.9565,27.8495 C239.623503,27.1518298 239.98,26.1590064 240.026,24.871 C240.041333,24.7176659 240.049,24.4340021 240.049,24.02 C240.049,23.6059979 240.041333,23.3223341 240.026,23.169 C239.98,21.8809936 239.623503,20.8881702 238.9565,20.1905 C238.289497,19.4928298 237.411672,19.144 236.323,19.144 C235.234328,19.144 234.356503,19.4928298 233.6895,20.1905 Z M252.17,19.627 L252.17,18.569 C252.17,18.4156659 252.216,18.2891672 252.308,18.1895 C252.4,18.0898328 252.522666,18.04 252.676,18.04 L253.044,18.04 C253.197334,18.04 253.323833,18.0898328 253.4235,18.1895 C253.523167,18.2891672 253.573,18.4156659 253.573,18.569 L253.573,29.77 C253.573,31.4106749 253.189671,32.7024953 252.423,33.6455 C251.65633,34.5885047 250.322343,35.06 248.421,35.06 C247.224994,35.06 246.26667,34.8530021 245.546,34.439 C244.82533,34.0249979 244.323168,33.5535026 244.0395,33.0245 C243.755832,32.4954974 243.614,32.0316687 243.614,31.633 C243.614,31.4949993 243.663833,31.3800005 243.7635,31.288 C243.863167,31.1959995 243.981999,31.15 244.12,31.15 L244.442,31.15 C244.580001,31.15 244.691166,31.1844997 244.7755,31.2535 C244.859834,31.3225003 244.932666,31.4489991 244.994,31.633 C245.469336,33.0283403 246.573325,33.726 248.306,33.726 C249.624673,33.726 250.59833,33.4538361 251.227,32.9095 C251.85567,32.3651639 252.17,31.3953403 252.17,30 L252.17,28.413 C251.280662,29.6243394 249.992675,30.23 248.306,30.23 C246.649992,30.23 245.427171,29.6895054 244.6375,28.6085 C243.847829,27.5274946 243.43,26.2126744 243.384,24.664 L243.361,24.02 L243.384,23.376 C243.43,21.8273256 243.847829,20.5125054 244.6375,19.4315 C245.427171,18.3504946 246.649992,17.81 248.306,17.81 C249.977342,17.81 251.265329,18.4156606 252.17,19.627 Z M245.7185,20.3285 C245.143497,21.1181706 244.833,22.1339938 244.787,23.376 L244.764,24.02 L244.787,24.664 C244.833,25.9060062 245.143497,26.9218294 245.7185,27.7115 C246.293503,28.5011706 247.201994,28.896 248.444,28.896 C249.655339,28.896 250.567664,28.493504 251.181,27.6885 C251.794336,26.883496 252.124,25.9366721 252.17,24.848 C252.185333,24.6946659 252.193,24.4186687 252.193,24.02 C252.193,23.6213313 252.185333,23.3453341 252.17,23.192 C252.124,22.1033279 251.794336,21.156504 251.181,20.3515 C250.567664,19.546496 249.655339,19.144 248.444,19.144 C247.201994,19.144 246.293503,19.5388294 245.7185,20.3285 Z" id="Blog" fill="#2B3E51"/>
                            <path d="M197.5,4.5 L197.5,39.5" id="Line" stroke-opacity="0.1" stroke="#000000" stroke-linecap="square"/>
                        </g>
                    </g>
                </g>
            </g>
        </g>
    </g>
</svg>