<svg xmlns="http://www.w3.org/2000/svg" xmlns:xlink="http://www.w3.org/1999/xlink" width="63" height="63" version="1.1" viewBox="0 0 63 63"><title>B557AFDE-085A-4616-9012-1A58006D71DF</title><desc>Created with sketchtool.</desc><g id="UI" fill="none" fill-rule="evenodd" stroke="none" stroke-width="1"><g id="awesome-design-plugins-v3-banners" fill="#000" transform="translate(-549.000000, -493.000000)"><g id="Group-2-Copy-2" transform="translate(520.000000, 450.000000)"><g id="abstract-logo" transform="translate(29.000000, 43.000000)"><g id="Group"><path id="Shape" fill-rule="nonzero" d="M31.3888235,0 C6.27529412,0 0,6.27529412 0,31.3888235 C0,56.5023529 6.27529412,62.7776471 31.3888235,62.7776471 C56.5023529,62.7776471 62.7776471,56.5023529 62.7776471,31.3888235 C62.7776471,6.27529412 56.5023529,0 31.3888235,0 Z M26.2376471,48.5594118 C19.6043718,48.5389596 14.2416952,43.148663 14.2553195,36.5153703 C14.2689437,29.8820775 19.6537175,24.5138553 26.2870208,24.5206517 C32.920324,24.527448 38.2940861,29.9066932 38.2941176,36.54 C38.2804863,43.1869573 32.8846148,48.5662431 26.2376471,48.5594118 Z M48.0652941,48.0652941 L42.1729412,48.0652941 L42.1729412,20.5923529 L14.7123529,20.5923529 L14.7123529,14.7123529 L48.0652941,14.7123529 L48.0652941,48.0652941 Z"/><circle id="Oval" cx="26.238" cy="36.54" r="6.127"/></g></g></g></g></g></svg>